G04*
G04 #@! TF.GenerationSoftware,Altium Limited,Altium Designer,24.2.2 (26)*
G04*
G04 Layer_Color=16711935*
%FSLAX44Y44*%
%MOMM*%
G71*
G04*
G04 #@! TF.SameCoordinates,F3FA609E-1BF8-4CEC-B42F-6BA8E99BA353*
G04*
G04*
G04 #@! TF.FilePolarity,Negative*
G04*
G01*
G75*
%ADD95C,2.1532*%
%ADD96R,2.1532X2.1532*%
%ADD97C,1.8532*%
%ADD98R,1.8532X1.8532*%
%ADD99R,1.6012X1.6012*%
%ADD100C,1.6012*%
%ADD101R,1.8532X1.8532*%
%ADD102C,0.8032*%
D95*
X580000Y1030000D02*
D03*
Y695250D02*
D03*
D96*
Y1080000D02*
D03*
Y745250D02*
D03*
D97*
X1238025Y462000D02*
D03*
X1288825D02*
D03*
X1161825D02*
D03*
X1187225D02*
D03*
X1212625D02*
D03*
X1263425D02*
D03*
X1339625D02*
D03*
X1314225D02*
D03*
X1299300Y879500D02*
D03*
X1273900D02*
D03*
X1248500D02*
D03*
X1370250Y651150D02*
D03*
Y625750D02*
D03*
Y600350D02*
D03*
D98*
X1365025Y462000D02*
D03*
X1223100Y879500D02*
D03*
D99*
X1370250Y737300D02*
D03*
D100*
Y762700D02*
D03*
Y788100D02*
D03*
Y813500D02*
D03*
Y838900D02*
D03*
D101*
Y574950D02*
D03*
D102*
X605568Y1037250D02*
D03*
Y1029500D02*
D03*
X618704Y1021750D02*
D03*
Y1029500D02*
D03*
Y1037250D02*
D03*
X612136Y1021750D02*
D03*
Y1029500D02*
D03*
Y1037250D02*
D03*
X605568Y1021750D02*
D03*
X599000D02*
D03*
Y1029500D02*
D03*
Y1037250D02*
D03*
X771636Y508875D02*
D03*
Y502000D02*
D03*
Y515750D02*
D03*
X764750Y501750D02*
D03*
Y515750D02*
D03*
Y508750D02*
D03*
X771636Y719000D02*
D03*
Y725875D02*
D03*
Y732750D02*
D03*
X764750Y718750D02*
D03*
Y725750D02*
D03*
Y732750D02*
D03*
X914750Y1114250D02*
D03*
X920750D02*
D03*
X642250Y922750D02*
D03*
Y916750D02*
D03*
X638750Y1040000D02*
D03*
Y1046000D02*
D03*
M02*
