G04*
G04 #@! TF.GenerationSoftware,Altium Limited,Altium Designer,24.2.2 (26)*
G04*
G04 Layer_Physical_Order=4*
G04 Layer_Color=16711680*
%FSLAX44Y44*%
%MOMM*%
G71*
G04*
G04 #@! TF.SameCoordinates,F3FA609E-1BF8-4CEC-B42F-6BA8E99BA353*
G04*
G04*
G04 #@! TF.FilePolarity,Positive*
G04*
G01*
G75*
%ADD118C,1.9500*%
%ADD119R,1.9500X1.9500*%
%ADD120C,1.6500*%
%ADD121R,1.6500X1.6500*%
%ADD122R,1.3980X1.3980*%
%ADD123C,1.3980*%
%ADD124R,1.6500X1.6500*%
%ADD125C,0.6000*%
G36*
X1207176Y915000D02*
X1207163D01*
X1207430Y912972D01*
X1208213Y911081D01*
X1209458Y909458D01*
X1211081Y908213D01*
X1212972Y907430D01*
X1215000Y907163D01*
Y907176D01*
X1387300D01*
X1387336Y907183D01*
X1389859Y906851D01*
X1390000Y906792D01*
Y440000D01*
X632824D01*
Y637300D01*
X632845D01*
X632546Y640333D01*
X631662Y643249D01*
X630225Y645936D01*
X628292Y648292D01*
X625936Y650225D01*
X623249Y651662D01*
X620333Y652546D01*
X617300Y652845D01*
Y652824D01*
X542700D01*
X542664Y652817D01*
X540141Y653149D01*
X540000Y653208D01*
Y786792D01*
X540141Y786851D01*
X542664Y787183D01*
X542700Y787176D01*
X617300D01*
Y787155D01*
X620333Y787454D01*
X623249Y788338D01*
X625936Y789775D01*
X628292Y791708D01*
X630225Y794064D01*
X631662Y796751D01*
X632546Y799667D01*
X632845Y802700D01*
X632824D01*
Y977300D01*
X632845D01*
X632546Y980333D01*
X631662Y983249D01*
X630225Y985936D01*
X628292Y988292D01*
X625936Y990225D01*
X623249Y991662D01*
X620333Y992546D01*
X617300Y992845D01*
Y992824D01*
X542700D01*
X542664Y992817D01*
X540141Y993149D01*
X540000Y993208D01*
Y1120000D01*
X1207176D01*
Y915000D01*
D02*
G37*
%LPC*%
G36*
X1174770Y1105220D02*
Y1101020D01*
X1178970D01*
X1178197Y1102888D01*
X1176638Y1104447D01*
X1174770Y1105220D01*
D02*
G37*
G36*
X1172230D02*
X1170362Y1104447D01*
X1168803Y1102888D01*
X1168030Y1101020D01*
X1172230D01*
Y1105220D01*
D02*
G37*
G36*
X1178970Y1098480D02*
X1174770D01*
Y1094280D01*
X1176638Y1095053D01*
X1178197Y1096612D01*
X1178970Y1098480D01*
D02*
G37*
G36*
X1172230D02*
X1168030D01*
X1168803Y1096612D01*
X1170362Y1095053D01*
X1172230Y1094280D01*
Y1098480D01*
D02*
G37*
G36*
X841270Y1085471D02*
Y1081270D01*
X845471D01*
X844697Y1083138D01*
X843138Y1084697D01*
X841270Y1085471D01*
D02*
G37*
G36*
X838730D02*
X836862Y1084697D01*
X835303Y1083138D01*
X834530Y1081270D01*
X838730D01*
Y1085471D01*
D02*
G37*
G36*
X1044520Y1083970D02*
Y1079770D01*
X1048720D01*
X1047947Y1081638D01*
X1046388Y1083197D01*
X1044520Y1083970D01*
D02*
G37*
G36*
X1041980D02*
X1040112Y1083197D01*
X1038553Y1081638D01*
X1037780Y1079770D01*
X1041980D01*
Y1083970D01*
D02*
G37*
G36*
X647020Y1079720D02*
Y1075520D01*
X651220D01*
X650447Y1077388D01*
X648888Y1078947D01*
X647020Y1079720D01*
D02*
G37*
G36*
X644480D02*
X642612Y1078947D01*
X641053Y1077388D01*
X640280Y1075520D01*
X644480D01*
Y1079720D01*
D02*
G37*
G36*
X845471Y1078730D02*
X841270D01*
Y1074530D01*
X843138Y1075303D01*
X844697Y1076862D01*
X845471Y1078730D01*
D02*
G37*
G36*
X838730D02*
X834530D01*
X835303Y1076862D01*
X836862Y1075303D01*
X838730Y1074530D01*
Y1078730D01*
D02*
G37*
G36*
X1048720Y1077230D02*
X1044520D01*
Y1073030D01*
X1046388Y1073803D01*
X1047947Y1075362D01*
X1048720Y1077230D01*
D02*
G37*
G36*
X1041980D02*
X1037780D01*
X1038553Y1075362D01*
X1040112Y1073803D01*
X1041980Y1073030D01*
Y1077230D01*
D02*
G37*
G36*
X1000520Y1076970D02*
Y1072770D01*
X1004720D01*
X1003947Y1074638D01*
X1002388Y1076197D01*
X1000520Y1076970D01*
D02*
G37*
G36*
X997980D02*
X996112Y1076197D01*
X994553Y1074638D01*
X993780Y1072770D01*
X997980D01*
Y1076970D01*
D02*
G37*
G36*
X651220Y1072980D02*
X647020D01*
Y1068780D01*
X648888Y1069553D01*
X650447Y1071112D01*
X651220Y1072980D01*
D02*
G37*
G36*
X644480D02*
X640280D01*
X641053Y1071112D01*
X642612Y1069553D01*
X644480Y1068780D01*
Y1072980D01*
D02*
G37*
G36*
X591250Y1091250D02*
X568750D01*
Y1068750D01*
X591250D01*
Y1091250D01*
D02*
G37*
G36*
X1004720Y1070230D02*
X1000520D01*
Y1066030D01*
X1002388Y1066803D01*
X1003947Y1068362D01*
X1004720Y1070230D01*
D02*
G37*
G36*
X997980D02*
X993780D01*
X994553Y1068362D01*
X996112Y1066803D01*
X997980Y1066030D01*
Y1070230D01*
D02*
G37*
G36*
X581618Y1042290D02*
X581270D01*
Y1031270D01*
X592290D01*
Y1031618D01*
X591452Y1034744D01*
X589835Y1037546D01*
X587546Y1039834D01*
X584744Y1041452D01*
X581618Y1042290D01*
D02*
G37*
G36*
X578730D02*
X578382D01*
X575256Y1041452D01*
X572454Y1039834D01*
X570166Y1037546D01*
X568548Y1034744D01*
X567710Y1031618D01*
Y1031270D01*
X578730D01*
Y1042290D01*
D02*
G37*
G36*
X991270Y1025471D02*
Y1021270D01*
X995471D01*
X994697Y1023138D01*
X993138Y1024697D01*
X991270Y1025471D01*
D02*
G37*
G36*
X988730D02*
X986862Y1024697D01*
X985303Y1023138D01*
X984530Y1021270D01*
X988730D01*
Y1025471D01*
D02*
G37*
G36*
X592290Y1028730D02*
X581270D01*
Y1017710D01*
X581618D01*
X584744Y1018548D01*
X587546Y1020165D01*
X589835Y1022454D01*
X591452Y1025256D01*
X592290Y1028382D01*
Y1028730D01*
D02*
G37*
G36*
X578730D02*
X567710D01*
Y1028382D01*
X568548Y1025256D01*
X570166Y1022454D01*
X572454Y1020165D01*
X575256Y1018548D01*
X578382Y1017710D01*
X578730D01*
Y1028730D01*
D02*
G37*
G36*
X995471Y1018730D02*
X991270D01*
Y1014530D01*
X993138Y1015303D01*
X994697Y1016862D01*
X995471Y1018730D01*
D02*
G37*
G36*
X988730D02*
X984530D01*
X985303Y1016862D01*
X986862Y1015303D01*
X988730Y1014530D01*
Y1018730D01*
D02*
G37*
G36*
X1190020Y1005470D02*
Y1001270D01*
X1194220D01*
X1193447Y1003138D01*
X1191888Y1004697D01*
X1190020Y1005470D01*
D02*
G37*
G36*
X1187480D02*
X1185612Y1004697D01*
X1184053Y1003138D01*
X1183280Y1001270D01*
X1187480D01*
Y1005470D01*
D02*
G37*
G36*
X1194220Y998730D02*
X1190020D01*
Y994530D01*
X1191888Y995303D01*
X1193447Y996862D01*
X1194220Y998730D01*
D02*
G37*
G36*
X1187480D02*
X1183280D01*
X1184053Y996862D01*
X1185612Y995303D01*
X1187480Y994530D01*
Y998730D01*
D02*
G37*
G36*
X738770Y997220D02*
Y993020D01*
X742970D01*
X742197Y994888D01*
X740638Y996447D01*
X738770Y997220D01*
D02*
G37*
G36*
X736230D02*
X734362Y996447D01*
X732803Y994888D01*
X732030Y993020D01*
X736230D01*
Y997220D01*
D02*
G37*
G36*
X742970Y990480D02*
X738770D01*
Y986280D01*
X740638Y987053D01*
X742197Y988612D01*
X742970Y990480D01*
D02*
G37*
G36*
X736230D02*
X732030D01*
X732803Y988612D01*
X734362Y987053D01*
X736230Y986280D01*
Y990480D01*
D02*
G37*
G36*
X1021270Y965471D02*
Y961270D01*
X1025471D01*
X1024697Y963138D01*
X1023138Y964697D01*
X1021270Y965471D01*
D02*
G37*
G36*
X1018730D02*
X1016862Y964697D01*
X1015303Y963138D01*
X1014530Y961270D01*
X1018730D01*
Y965471D01*
D02*
G37*
G36*
X901270D02*
Y961270D01*
X905471D01*
X904697Y963138D01*
X903138Y964697D01*
X901270Y965471D01*
D02*
G37*
G36*
X898730D02*
X896862Y964697D01*
X895303Y963138D01*
X894530Y961270D01*
X898730D01*
Y965471D01*
D02*
G37*
G36*
X841270D02*
Y961270D01*
X845471D01*
X844697Y963138D01*
X843138Y964697D01*
X841270Y965471D01*
D02*
G37*
G36*
X838730D02*
X836862Y964697D01*
X835303Y963138D01*
X834530Y961270D01*
X838730D01*
Y965471D01*
D02*
G37*
G36*
X781270D02*
Y961270D01*
X785471D01*
X784697Y963138D01*
X783138Y964697D01*
X781270Y965471D01*
D02*
G37*
G36*
X778730D02*
X776862Y964697D01*
X775303Y963138D01*
X774530Y961270D01*
X778730D01*
Y965471D01*
D02*
G37*
G36*
X1064770Y964720D02*
Y960520D01*
X1068970D01*
X1068197Y962388D01*
X1066638Y963947D01*
X1064770Y964720D01*
D02*
G37*
G36*
X1062230D02*
X1060362Y963947D01*
X1058803Y962388D01*
X1058030Y960520D01*
X1062230D01*
Y964720D01*
D02*
G37*
G36*
X845471Y958730D02*
X841270D01*
Y954530D01*
X843138Y955303D01*
X844697Y956862D01*
X845471Y958730D01*
D02*
G37*
G36*
X838730D02*
X834530D01*
X835303Y956862D01*
X836862Y955303D01*
X838730Y954530D01*
Y958730D01*
D02*
G37*
G36*
X785471D02*
X781270D01*
Y954530D01*
X783138Y955303D01*
X784697Y956862D01*
X785471Y958730D01*
D02*
G37*
G36*
X778730D02*
X774530D01*
X775303Y956862D01*
X776862Y955303D01*
X778730Y954530D01*
Y958730D01*
D02*
G37*
G36*
X1025471D02*
X1021270D01*
Y954530D01*
X1023138Y955303D01*
X1024697Y956862D01*
X1025471Y958730D01*
D02*
G37*
G36*
X1018730D02*
X1014530D01*
X1015303Y956862D01*
X1016862Y955303D01*
X1018730Y954530D01*
Y958730D01*
D02*
G37*
G36*
X905471D02*
X901270D01*
Y954530D01*
X903138Y955303D01*
X904697Y956862D01*
X905471Y958730D01*
D02*
G37*
G36*
X898730D02*
X894530D01*
X895303Y956862D01*
X896862Y955303D01*
X898730Y954530D01*
Y958730D01*
D02*
G37*
G36*
X1068970Y957980D02*
X1064770D01*
Y953780D01*
X1066638Y954553D01*
X1068197Y956112D01*
X1068970Y957980D01*
D02*
G37*
G36*
X1062230D02*
X1058030D01*
X1058803Y956112D01*
X1060362Y954553D01*
X1062230Y953780D01*
Y957980D01*
D02*
G37*
G36*
X1120270Y944470D02*
Y940270D01*
X1124471D01*
X1123697Y942138D01*
X1122138Y943697D01*
X1120270Y944470D01*
D02*
G37*
G36*
X1117730D02*
X1115862Y943697D01*
X1114304Y942138D01*
X1113530Y940270D01*
X1117730D01*
Y944470D01*
D02*
G37*
G36*
X1124471Y937730D02*
X1120270D01*
Y933530D01*
X1122138Y934303D01*
X1123697Y935862D01*
X1124471Y937730D01*
D02*
G37*
G36*
X1117730D02*
X1113530D01*
X1114304Y935862D01*
X1115862Y934303D01*
X1117730Y933530D01*
Y937730D01*
D02*
G37*
G36*
X1081270Y896470D02*
Y892270D01*
X1085470D01*
X1084697Y894138D01*
X1083138Y895697D01*
X1081270Y896470D01*
D02*
G37*
G36*
X1078730D02*
X1076862Y895697D01*
X1075303Y894138D01*
X1074530Y892270D01*
X1078730D01*
Y896470D01*
D02*
G37*
G36*
X989470D02*
Y892270D01*
X993670D01*
X992896Y894138D01*
X991338Y895697D01*
X989470Y896470D01*
D02*
G37*
G36*
X986930D02*
X985062Y895697D01*
X983503Y894138D01*
X982729Y892270D01*
X986930D01*
Y896470D01*
D02*
G37*
G36*
X1085470Y889730D02*
X1081270D01*
Y885530D01*
X1083138Y886303D01*
X1084697Y887862D01*
X1085470Y889730D01*
D02*
G37*
G36*
X1078730D02*
X1074530D01*
X1075303Y887862D01*
X1076862Y886303D01*
X1078730Y885530D01*
Y889730D01*
D02*
G37*
G36*
X993670D02*
X989470D01*
Y885530D01*
X991338Y886303D01*
X992896Y887862D01*
X993670Y889730D01*
D02*
G37*
G36*
X986930D02*
X982729D01*
X983503Y887862D01*
X985062Y886303D01*
X986930Y885530D01*
Y889730D01*
D02*
G37*
G36*
X1249921Y890290D02*
X1249770D01*
Y880770D01*
X1259290D01*
Y880920D01*
X1258555Y883665D01*
X1257134Y886125D01*
X1255125Y888134D01*
X1252665Y889555D01*
X1249921Y890290D01*
D02*
G37*
G36*
X1247230D02*
X1247080D01*
X1244335Y889555D01*
X1241875Y888134D01*
X1239866Y886125D01*
X1238445Y883665D01*
X1237710Y880920D01*
Y880770D01*
X1247230D01*
Y890290D01*
D02*
G37*
G36*
X881270Y880970D02*
Y876770D01*
X885470D01*
X884697Y878638D01*
X883138Y880197D01*
X881270Y880970D01*
D02*
G37*
G36*
X878730D02*
X876862Y880197D01*
X875303Y878638D01*
X874530Y876770D01*
X878730D01*
Y880970D01*
D02*
G37*
G36*
X948770Y876470D02*
Y872270D01*
X952970D01*
X952197Y874138D01*
X950638Y875697D01*
X948770Y876470D01*
D02*
G37*
G36*
X946230D02*
X944362Y875697D01*
X942803Y874138D01*
X942030Y872270D01*
X946230D01*
Y876470D01*
D02*
G37*
G36*
X1351520Y875970D02*
Y871770D01*
X1355720D01*
X1354946Y873638D01*
X1353388Y875196D01*
X1351520Y875970D01*
D02*
G37*
G36*
X1348980D02*
X1347111Y875196D01*
X1345553Y873638D01*
X1344779Y871770D01*
X1348980D01*
Y875970D01*
D02*
G37*
G36*
X1171520D02*
Y871770D01*
X1175720D01*
X1174946Y873638D01*
X1173388Y875196D01*
X1171520Y875970D01*
D02*
G37*
G36*
X1168980D02*
X1167112Y875196D01*
X1165553Y873638D01*
X1164779Y871770D01*
X1168980D01*
Y875970D01*
D02*
G37*
G36*
X885470Y874230D02*
X881270D01*
Y870030D01*
X883138Y870803D01*
X884697Y872362D01*
X885470Y874230D01*
D02*
G37*
G36*
X878730D02*
X874530D01*
X875303Y872362D01*
X876862Y870803D01*
X878730Y870030D01*
Y874230D01*
D02*
G37*
G36*
X1300584Y889250D02*
X1298017D01*
X1295537Y888586D01*
X1293313Y887302D01*
X1291498Y885487D01*
X1290215Y883263D01*
X1289550Y880784D01*
Y878216D01*
X1290215Y875737D01*
X1291498Y873513D01*
X1293313Y871698D01*
X1295537Y870415D01*
X1298017Y869750D01*
X1300584D01*
X1303064Y870415D01*
X1305287Y871698D01*
X1307102Y873513D01*
X1308386Y875737D01*
X1309050Y878216D01*
Y880784D01*
X1308386Y883263D01*
X1307102Y885487D01*
X1305287Y887302D01*
X1303064Y888586D01*
X1300584Y889250D01*
D02*
G37*
G36*
X1275184D02*
X1272617D01*
X1270137Y888586D01*
X1267914Y887302D01*
X1266098Y885487D01*
X1264815Y883263D01*
X1264150Y880784D01*
Y878216D01*
X1264815Y875737D01*
X1266098Y873513D01*
X1267914Y871698D01*
X1270137Y870415D01*
X1272617Y869750D01*
X1275184D01*
X1277663Y870415D01*
X1279887Y871698D01*
X1281702Y873513D01*
X1282986Y875737D01*
X1283650Y878216D01*
Y880784D01*
X1282986Y883263D01*
X1281702Y885487D01*
X1279887Y887302D01*
X1277663Y888586D01*
X1275184Y889250D01*
D02*
G37*
G36*
X1232850D02*
X1213350D01*
Y869750D01*
X1232850D01*
Y889250D01*
D02*
G37*
G36*
X1259290Y878230D02*
X1249770D01*
Y868710D01*
X1249921D01*
X1252665Y869445D01*
X1255125Y870866D01*
X1257134Y872875D01*
X1258555Y875335D01*
X1259290Y878080D01*
Y878230D01*
D02*
G37*
G36*
X1247230D02*
X1237710D01*
Y878080D01*
X1238445Y875335D01*
X1239866Y872875D01*
X1241875Y870866D01*
X1244335Y869445D01*
X1247080Y868710D01*
X1247230D01*
Y878230D01*
D02*
G37*
G36*
X952970Y869730D02*
X948770D01*
Y865530D01*
X950638Y866303D01*
X952197Y867862D01*
X952970Y869730D01*
D02*
G37*
G36*
X946230D02*
X942030D01*
X942803Y867862D01*
X944362Y866303D01*
X946230Y865530D01*
Y869730D01*
D02*
G37*
G36*
X1355720Y869230D02*
X1351520D01*
Y865029D01*
X1353388Y865803D01*
X1354946Y867362D01*
X1355720Y869230D01*
D02*
G37*
G36*
X1348980D02*
X1344779D01*
X1345553Y867362D01*
X1347111Y865803D01*
X1348980Y865029D01*
Y869230D01*
D02*
G37*
G36*
X1175720D02*
X1171520D01*
Y865029D01*
X1173388Y865803D01*
X1174946Y867362D01*
X1175720Y869230D01*
D02*
G37*
G36*
X1168980D02*
X1164779D01*
X1165553Y867362D01*
X1167112Y865803D01*
X1168980Y865029D01*
Y869230D01*
D02*
G37*
G36*
X1224645Y854250D02*
X1222855D01*
X1221201Y853565D01*
X1219935Y852299D01*
X1219250Y850645D01*
Y848855D01*
X1219935Y847201D01*
X1221201Y845935D01*
X1222855Y845250D01*
X1224645D01*
X1226299Y845935D01*
X1227565Y847201D01*
X1228250Y848855D01*
Y850645D01*
X1227565Y852299D01*
X1226299Y853565D01*
X1224645Y854250D01*
D02*
G37*
G36*
X1186520Y845970D02*
Y841770D01*
X1190720D01*
X1189946Y843638D01*
X1188388Y845196D01*
X1186520Y845970D01*
D02*
G37*
G36*
X1183980D02*
X1182112Y845196D01*
X1180553Y843638D01*
X1179779Y841770D01*
X1183980D01*
Y845970D01*
D02*
G37*
G36*
X1156520D02*
Y841770D01*
X1160720D01*
X1159946Y843638D01*
X1158388Y845196D01*
X1156520Y845970D01*
D02*
G37*
G36*
X1153980D02*
X1152112Y845196D01*
X1150553Y843638D01*
X1149779Y841770D01*
X1153980D01*
Y845970D01*
D02*
G37*
G36*
X1126520D02*
Y841770D01*
X1130720D01*
X1129946Y843638D01*
X1128388Y845196D01*
X1126520Y845970D01*
D02*
G37*
G36*
X1123980D02*
X1122112Y845196D01*
X1120553Y843638D01*
X1119779Y841770D01*
X1123980D01*
Y845970D01*
D02*
G37*
G36*
X1096520D02*
Y841770D01*
X1100720D01*
X1099946Y843638D01*
X1098388Y845196D01*
X1096520Y845970D01*
D02*
G37*
G36*
X1093980D02*
X1092112Y845196D01*
X1090553Y843638D01*
X1089779Y841770D01*
X1093980D01*
Y845970D01*
D02*
G37*
G36*
X1021270Y845471D02*
Y841270D01*
X1025471D01*
X1024697Y843138D01*
X1023138Y844697D01*
X1021270Y845471D01*
D02*
G37*
G36*
X1018730D02*
X1016862Y844697D01*
X1015303Y843138D01*
X1014530Y841270D01*
X1018730D01*
Y845471D01*
D02*
G37*
G36*
X961270D02*
Y841270D01*
X965471D01*
X964697Y843138D01*
X963138Y844697D01*
X961270Y845471D01*
D02*
G37*
G36*
X958730D02*
X956862Y844697D01*
X955303Y843138D01*
X954530Y841270D01*
X958730D01*
Y845471D01*
D02*
G37*
G36*
X721270D02*
Y841270D01*
X725471D01*
X724697Y843138D01*
X723138Y844697D01*
X721270Y845471D01*
D02*
G37*
G36*
X718730D02*
X716862Y844697D01*
X715303Y843138D01*
X714530Y841270D01*
X718730D01*
Y845471D01*
D02*
G37*
G36*
X661270D02*
Y841270D01*
X665471D01*
X664697Y843138D01*
X663138Y844697D01*
X661270Y845471D01*
D02*
G37*
G36*
X658730D02*
X656862Y844697D01*
X655303Y843138D01*
X654530Y841270D01*
X658730D01*
Y845471D01*
D02*
G37*
G36*
X1190720Y839230D02*
X1186520D01*
Y835029D01*
X1188388Y835803D01*
X1189946Y837362D01*
X1190720Y839230D01*
D02*
G37*
G36*
X1183980D02*
X1179779D01*
X1180553Y837362D01*
X1182112Y835803D01*
X1183980Y835029D01*
Y839230D01*
D02*
G37*
G36*
X1160720D02*
X1156520D01*
Y835029D01*
X1158388Y835803D01*
X1159946Y837362D01*
X1160720Y839230D01*
D02*
G37*
G36*
X1153980D02*
X1149779D01*
X1150553Y837362D01*
X1152112Y835803D01*
X1153980Y835029D01*
Y839230D01*
D02*
G37*
G36*
X1130720D02*
X1126520D01*
Y835029D01*
X1128388Y835803D01*
X1129946Y837362D01*
X1130720Y839230D01*
D02*
G37*
G36*
X1123980D02*
X1119779D01*
X1120553Y837362D01*
X1122112Y835803D01*
X1123980Y835029D01*
Y839230D01*
D02*
G37*
G36*
X1100720D02*
X1096520D01*
Y835029D01*
X1098388Y835803D01*
X1099946Y837362D01*
X1100720Y839230D01*
D02*
G37*
G36*
X1093980D02*
X1089779D01*
X1090553Y837362D01*
X1092112Y835803D01*
X1093980Y835029D01*
Y839230D01*
D02*
G37*
G36*
X1025471Y838730D02*
X1021270D01*
Y834530D01*
X1023138Y835303D01*
X1024697Y836862D01*
X1025471Y838730D01*
D02*
G37*
G36*
X1018730D02*
X1014530D01*
X1015303Y836862D01*
X1016862Y835303D01*
X1018730Y834530D01*
Y838730D01*
D02*
G37*
G36*
X965471D02*
X961270D01*
Y834530D01*
X963138Y835303D01*
X964697Y836862D01*
X965471Y838730D01*
D02*
G37*
G36*
X958730D02*
X954530D01*
X955303Y836862D01*
X956862Y835303D01*
X958730Y834530D01*
Y838730D01*
D02*
G37*
G36*
X725471D02*
X721270D01*
Y834530D01*
X723138Y835303D01*
X724697Y836862D01*
X725471Y838730D01*
D02*
G37*
G36*
X718730D02*
X714530D01*
X715303Y836862D01*
X716862Y835303D01*
X718730Y834530D01*
Y838730D01*
D02*
G37*
G36*
X665471D02*
X661270D01*
Y834530D01*
X663138Y835303D01*
X664697Y836862D01*
X665471Y838730D01*
D02*
G37*
G36*
X658730D02*
X654530D01*
X655303Y836862D01*
X656862Y835303D01*
X658730Y834530D01*
Y838730D01*
D02*
G37*
G36*
X1340645Y843500D02*
X1338855D01*
X1337201Y842815D01*
X1335935Y841549D01*
X1335250Y839895D01*
Y838105D01*
X1335935Y836451D01*
X1337201Y835185D01*
X1338855Y834500D01*
X1340645D01*
X1342299Y835185D01*
X1343565Y836451D01*
X1344250Y838105D01*
Y839895D01*
X1343565Y841549D01*
X1342299Y842815D01*
X1340645Y843500D01*
D02*
G37*
G36*
X1371368Y847390D02*
X1369132D01*
X1366973Y846811D01*
X1365037Y845694D01*
X1363456Y844113D01*
X1362339Y842177D01*
X1361760Y840018D01*
Y837782D01*
X1362339Y835623D01*
X1363456Y833687D01*
X1365037Y832106D01*
X1366973Y830989D01*
X1369132Y830410D01*
X1371368D01*
X1373527Y830989D01*
X1375463Y832106D01*
X1377044Y833687D01*
X1378161Y835623D01*
X1378740Y837782D01*
Y840018D01*
X1378161Y842177D01*
X1377044Y844113D01*
X1375463Y845694D01*
X1373527Y846811D01*
X1371368Y847390D01*
D02*
G37*
G36*
X853020Y826220D02*
Y822020D01*
X857220D01*
X856447Y823888D01*
X854888Y825447D01*
X853020Y826220D01*
D02*
G37*
G36*
X850480D02*
X848612Y825447D01*
X847053Y823888D01*
X846280Y822020D01*
X850480D01*
Y826220D01*
D02*
G37*
G36*
X857220Y819480D02*
X853020D01*
Y815280D01*
X854888Y816053D01*
X856447Y817612D01*
X857220Y819480D01*
D02*
G37*
G36*
X850480D02*
X846280D01*
X847053Y817612D01*
X848612Y816053D01*
X850480Y815280D01*
Y819480D01*
D02*
G37*
G36*
X1201520Y815970D02*
Y811770D01*
X1205720D01*
X1204946Y813638D01*
X1203388Y815196D01*
X1201520Y815970D01*
D02*
G37*
G36*
X1198980D02*
X1197112Y815196D01*
X1195553Y813638D01*
X1194779Y811770D01*
X1198980D01*
Y815970D01*
D02*
G37*
G36*
X1171520D02*
Y811770D01*
X1175720D01*
X1174946Y813638D01*
X1173388Y815196D01*
X1171520Y815970D01*
D02*
G37*
G36*
X1168980D02*
X1167112Y815196D01*
X1165553Y813638D01*
X1164779Y811770D01*
X1168980D01*
Y815970D01*
D02*
G37*
G36*
X1081520D02*
Y811770D01*
X1085720D01*
X1084946Y813638D01*
X1083388Y815196D01*
X1081520Y815970D01*
D02*
G37*
G36*
X1078980D02*
X1077112Y815196D01*
X1075553Y813638D01*
X1074779Y811770D01*
X1078980D01*
Y815970D01*
D02*
G37*
G36*
X1205720Y809230D02*
X1201520D01*
Y805029D01*
X1203388Y805803D01*
X1204946Y807362D01*
X1205720Y809230D01*
D02*
G37*
G36*
X1198980D02*
X1194779D01*
X1195553Y807362D01*
X1197112Y805803D01*
X1198980Y805029D01*
Y809230D01*
D02*
G37*
G36*
X1175720D02*
X1171520D01*
Y805029D01*
X1173388Y805803D01*
X1174946Y807362D01*
X1175720Y809230D01*
D02*
G37*
G36*
X1168980D02*
X1164779D01*
X1165553Y807362D01*
X1167112Y805803D01*
X1168980Y805029D01*
Y809230D01*
D02*
G37*
G36*
X1085720D02*
X1081520D01*
Y805029D01*
X1083388Y805803D01*
X1084946Y807362D01*
X1085720Y809230D01*
D02*
G37*
G36*
X1078980D02*
X1074779D01*
X1075553Y807362D01*
X1077112Y805803D01*
X1078980Y805029D01*
Y809230D01*
D02*
G37*
G36*
X1371368Y821990D02*
X1369132D01*
X1366973Y821411D01*
X1365037Y820294D01*
X1363456Y818713D01*
X1362339Y816777D01*
X1361760Y814618D01*
Y812382D01*
X1362339Y810223D01*
X1363456Y808287D01*
X1365037Y806706D01*
X1366973Y805589D01*
X1369132Y805010D01*
X1371368D01*
X1373527Y805589D01*
X1375463Y806706D01*
X1377044Y808287D01*
X1378161Y810223D01*
X1378740Y812382D01*
Y814618D01*
X1378161Y816777D01*
X1377044Y818713D01*
X1375463Y820294D01*
X1373527Y821411D01*
X1371368Y821990D01*
D02*
G37*
G36*
X988895Y811250D02*
X987105D01*
X985451Y810565D01*
X984185Y809299D01*
X983500Y807645D01*
Y805855D01*
X984185Y804201D01*
X985451Y802935D01*
X987105Y802250D01*
X988895D01*
X990549Y802935D01*
X991815Y804201D01*
X992500Y805855D01*
Y807645D01*
X991815Y809299D01*
X990549Y810565D01*
X988895Y811250D01*
D02*
G37*
G36*
X1110270Y805471D02*
Y801270D01*
X1114470D01*
X1113697Y803138D01*
X1112138Y804697D01*
X1110270Y805471D01*
D02*
G37*
G36*
X1107730D02*
X1105862Y804697D01*
X1104303Y803138D01*
X1103530Y801270D01*
X1107730D01*
Y805471D01*
D02*
G37*
G36*
X962770Y805470D02*
Y801270D01*
X966970D01*
X966197Y803138D01*
X964638Y804697D01*
X962770Y805470D01*
D02*
G37*
G36*
X960230D02*
X958362Y804697D01*
X956803Y803138D01*
X956030Y801270D01*
X960230D01*
Y805470D01*
D02*
G37*
G36*
X1114470Y798730D02*
X1110270D01*
Y794530D01*
X1112138Y795303D01*
X1113697Y796862D01*
X1114470Y798730D01*
D02*
G37*
G36*
X1107730D02*
X1103530D01*
X1104303Y796862D01*
X1105862Y795303D01*
X1107730Y794530D01*
Y798730D01*
D02*
G37*
G36*
X966970Y798730D02*
X962770D01*
Y794530D01*
X964638Y795303D01*
X966197Y796862D01*
X966970Y798730D01*
D02*
G37*
G36*
X960230D02*
X956030D01*
X956803Y796862D01*
X958362Y795303D01*
X960230Y794530D01*
Y798730D01*
D02*
G37*
G36*
X898770Y797470D02*
Y793270D01*
X902970D01*
X902197Y795138D01*
X900638Y796697D01*
X898770Y797470D01*
D02*
G37*
G36*
X896230D02*
X894362Y796697D01*
X892803Y795138D01*
X892030Y793270D01*
X896230D01*
Y797470D01*
D02*
G37*
G36*
X1371520Y797626D02*
Y789370D01*
X1379776D01*
X1379131Y791778D01*
X1377876Y793952D01*
X1376102Y795726D01*
X1373928Y796981D01*
X1371520Y797626D01*
D02*
G37*
G36*
X1368980D02*
X1366572Y796981D01*
X1364398Y795726D01*
X1362624Y793952D01*
X1361369Y791778D01*
X1360724Y789370D01*
X1368980D01*
Y797626D01*
D02*
G37*
G36*
X902970Y790730D02*
X898770D01*
Y786530D01*
X900638Y787303D01*
X902197Y788862D01*
X902970Y790730D01*
D02*
G37*
G36*
X896230D02*
X892030D01*
X892803Y788862D01*
X894362Y787303D01*
X896230Y786530D01*
Y790730D01*
D02*
G37*
G36*
X1336520Y785970D02*
Y781770D01*
X1340720D01*
X1339946Y783638D01*
X1338388Y785196D01*
X1336520Y785970D01*
D02*
G37*
G36*
X1333980D02*
X1332111Y785196D01*
X1330553Y783638D01*
X1329779Y781770D01*
X1333980D01*
Y785970D01*
D02*
G37*
G36*
X1306520D02*
Y781770D01*
X1310720D01*
X1309946Y783638D01*
X1308388Y785196D01*
X1306520Y785970D01*
D02*
G37*
G36*
X1303980D02*
X1302111Y785196D01*
X1300553Y783638D01*
X1299779Y781770D01*
X1303980D01*
Y785970D01*
D02*
G37*
G36*
X1036520D02*
Y781770D01*
X1040720D01*
X1039946Y783638D01*
X1038388Y785196D01*
X1036520Y785970D01*
D02*
G37*
G36*
X1033980D02*
X1032112Y785196D01*
X1030553Y783638D01*
X1029779Y781770D01*
X1033980D01*
Y785970D01*
D02*
G37*
G36*
X631270Y785471D02*
Y781270D01*
X635471D01*
X634697Y783138D01*
X633138Y784697D01*
X631270Y785471D01*
D02*
G37*
G36*
X628730D02*
X626862Y784697D01*
X625303Y783138D01*
X624530Y781270D01*
X628730D01*
Y785471D01*
D02*
G37*
G36*
X1368980Y786830D02*
X1360724D01*
X1361369Y784421D01*
X1362624Y782248D01*
X1364398Y780474D01*
X1366572Y779219D01*
X1368980Y778574D01*
Y786830D01*
D02*
G37*
G36*
X1379776D02*
X1371520D01*
Y778574D01*
X1373928Y779219D01*
X1376102Y780474D01*
X1377876Y782248D01*
X1379131Y784421D01*
X1379776Y786830D01*
D02*
G37*
G36*
X1109895Y786750D02*
X1108105D01*
X1106451Y786065D01*
X1105185Y784799D01*
X1104500Y783145D01*
Y781355D01*
X1105185Y779701D01*
X1106451Y778435D01*
X1108105Y777750D01*
X1109895D01*
X1111549Y778435D01*
X1112815Y779701D01*
X1113500Y781355D01*
Y783145D01*
X1112815Y784799D01*
X1111549Y786065D01*
X1109895Y786750D01*
D02*
G37*
G36*
X945395Y786750D02*
X943605D01*
X941951Y786065D01*
X940685Y784799D01*
X940000Y783145D01*
Y781355D01*
X940685Y779701D01*
X941951Y778435D01*
X943605Y777750D01*
X945395D01*
X947049Y778435D01*
X948315Y779701D01*
X949000Y781355D01*
Y783145D01*
X948315Y784799D01*
X947049Y786065D01*
X945395Y786750D01*
D02*
G37*
G36*
X1132520Y779470D02*
Y775270D01*
X1136720D01*
X1135947Y777138D01*
X1134388Y778697D01*
X1132520Y779470D01*
D02*
G37*
G36*
X1129980D02*
X1128112Y778697D01*
X1126553Y777138D01*
X1125780Y775270D01*
X1129980D01*
Y779470D01*
D02*
G37*
G36*
X1340720Y779230D02*
X1336520D01*
Y775029D01*
X1338388Y775803D01*
X1339946Y777362D01*
X1340720Y779230D01*
D02*
G37*
G36*
X1333980D02*
X1329779D01*
X1330553Y777362D01*
X1332111Y775803D01*
X1333980Y775029D01*
Y779230D01*
D02*
G37*
G36*
X1310720D02*
X1306520D01*
Y775029D01*
X1308388Y775803D01*
X1309946Y777362D01*
X1310720Y779230D01*
D02*
G37*
G36*
X1303980D02*
X1299779D01*
X1300553Y777362D01*
X1302111Y775803D01*
X1303980Y775029D01*
Y779230D01*
D02*
G37*
G36*
X1040720D02*
X1036520D01*
Y775029D01*
X1038388Y775803D01*
X1039946Y777362D01*
X1040720Y779230D01*
D02*
G37*
G36*
X1033980D02*
X1029779D01*
X1030553Y777362D01*
X1032112Y775803D01*
X1033980Y775029D01*
Y779230D01*
D02*
G37*
G36*
X635471Y778730D02*
X631270D01*
Y774530D01*
X633138Y775303D01*
X634697Y776862D01*
X635471Y778730D01*
D02*
G37*
G36*
X628730D02*
X624530D01*
X625303Y776862D01*
X626862Y775303D01*
X628730Y774530D01*
Y778730D01*
D02*
G37*
G36*
X1136720Y772730D02*
X1132520D01*
Y768530D01*
X1134388Y769303D01*
X1135947Y770862D01*
X1136720Y772730D01*
D02*
G37*
G36*
X1129980D02*
X1125780D01*
X1126553Y770862D01*
X1128112Y769303D01*
X1129980Y768530D01*
Y772730D01*
D02*
G37*
G36*
X808895Y777500D02*
X807105D01*
X805451Y776815D01*
X804185Y775549D01*
X803500Y773895D01*
Y772105D01*
X804185Y770451D01*
X805451Y769185D01*
X807105Y768500D01*
X808895D01*
X810549Y769185D01*
X811815Y770451D01*
X812500Y772105D01*
Y773895D01*
X811815Y775549D01*
X810549Y776815D01*
X808895Y777500D01*
D02*
G37*
G36*
X770895D02*
X769105D01*
X767451Y776815D01*
X766185Y775549D01*
X765500Y773895D01*
Y772105D01*
X766185Y770451D01*
X767451Y769185D01*
X769105Y768500D01*
X770895D01*
X772549Y769185D01*
X773815Y770451D01*
X774500Y772105D01*
Y773895D01*
X773815Y775549D01*
X772549Y776815D01*
X770895Y777500D01*
D02*
G37*
G36*
X856101Y790854D02*
X843401D01*
X842253Y790378D01*
X841778Y789230D01*
Y767640D01*
X842253Y766492D01*
X843401Y766016D01*
X856101D01*
X857249Y766492D01*
X857725Y767640D01*
Y789230D01*
X857249Y790378D01*
X856101Y790854D01*
D02*
G37*
G36*
X1278395Y772000D02*
X1276605D01*
X1274951Y771315D01*
X1273685Y770049D01*
X1273000Y768395D01*
Y766605D01*
X1273685Y764951D01*
X1274951Y763685D01*
X1276605Y763000D01*
X1278395D01*
X1280049Y763685D01*
X1281315Y764951D01*
X1282000Y766605D01*
Y768395D01*
X1281315Y770049D01*
X1280049Y771315D01*
X1278395Y772000D01*
D02*
G37*
G36*
X1371368Y771190D02*
X1369132D01*
X1366973Y770611D01*
X1365037Y769494D01*
X1363456Y767913D01*
X1362339Y765977D01*
X1361760Y763818D01*
Y761582D01*
X1362339Y759423D01*
X1363456Y757487D01*
X1365037Y755906D01*
X1366973Y754789D01*
X1369132Y754210D01*
X1371368D01*
X1373527Y754789D01*
X1375463Y755906D01*
X1377044Y757487D01*
X1378161Y759423D01*
X1378740Y761582D01*
Y763818D01*
X1378161Y765977D01*
X1377044Y767913D01*
X1375463Y769494D01*
X1373527Y770611D01*
X1371368Y771190D01*
D02*
G37*
G36*
X1051520Y755970D02*
Y751770D01*
X1055720D01*
X1054946Y753638D01*
X1053388Y755196D01*
X1051520Y755970D01*
D02*
G37*
G36*
X1048980D02*
X1047112Y755196D01*
X1045553Y753638D01*
X1044779Y751770D01*
X1048980D01*
Y755970D01*
D02*
G37*
G36*
X1021520D02*
Y751770D01*
X1025720D01*
X1024946Y753638D01*
X1023388Y755196D01*
X1021520Y755970D01*
D02*
G37*
G36*
X1018980D02*
X1017112Y755196D01*
X1015553Y753638D01*
X1014779Y751770D01*
X1018980D01*
Y755970D01*
D02*
G37*
G36*
X961270Y755470D02*
Y751270D01*
X965470D01*
X964696Y753138D01*
X963138Y754696D01*
X961270Y755470D01*
D02*
G37*
G36*
X958730D02*
X956862Y754696D01*
X955303Y753138D01*
X954529Y751270D01*
X958730D01*
Y755470D01*
D02*
G37*
G36*
X931270D02*
Y751270D01*
X935470D01*
X934696Y753138D01*
X933138Y754696D01*
X931270Y755470D01*
D02*
G37*
G36*
X928730D02*
X926862Y754696D01*
X925303Y753138D01*
X924529Y751270D01*
X928730D01*
Y755470D01*
D02*
G37*
G36*
X1055720Y749230D02*
X1051520D01*
Y745029D01*
X1053388Y745803D01*
X1054946Y747362D01*
X1055720Y749230D01*
D02*
G37*
G36*
X1048980D02*
X1044779D01*
X1045553Y747362D01*
X1047112Y745803D01*
X1048980Y745029D01*
Y749230D01*
D02*
G37*
G36*
X1025720D02*
X1021520D01*
Y745029D01*
X1023388Y745803D01*
X1024946Y747362D01*
X1025720Y749230D01*
D02*
G37*
G36*
X1018980D02*
X1014779D01*
X1015553Y747362D01*
X1017112Y745803D01*
X1018980Y745029D01*
Y749230D01*
D02*
G37*
G36*
X965470Y748730D02*
X961270D01*
Y744529D01*
X963138Y745303D01*
X964696Y746862D01*
X965470Y748730D01*
D02*
G37*
G36*
X958730D02*
X954529D01*
X955303Y746862D01*
X956862Y745303D01*
X958730Y744529D01*
Y748730D01*
D02*
G37*
G36*
X935470D02*
X931270D01*
Y744529D01*
X933138Y745303D01*
X934696Y746862D01*
X935470Y748730D01*
D02*
G37*
G36*
X928730D02*
X924529D01*
X925303Y746862D01*
X926862Y745303D01*
X928730Y744529D01*
Y748730D01*
D02*
G37*
G36*
X1286770Y747970D02*
Y743770D01*
X1290970D01*
X1290197Y745638D01*
X1288638Y747197D01*
X1286770Y747970D01*
D02*
G37*
G36*
X1284230D02*
X1282362Y747197D01*
X1280803Y745638D01*
X1280030Y743770D01*
X1284230D01*
Y747970D01*
D02*
G37*
G36*
X1290970Y741230D02*
X1286770D01*
Y737030D01*
X1288638Y737803D01*
X1290197Y739362D01*
X1290970Y741230D01*
D02*
G37*
G36*
X1284230D02*
X1280030D01*
X1280803Y739362D01*
X1282362Y737803D01*
X1284230Y737030D01*
Y741230D01*
D02*
G37*
G36*
X591250Y756500D02*
X568750D01*
Y734000D01*
X591250D01*
Y756500D01*
D02*
G37*
G36*
X1378740Y745790D02*
X1361760D01*
Y728810D01*
X1378740D01*
Y745790D01*
D02*
G37*
G36*
X1091645Y732000D02*
X1089855D01*
X1088201Y731315D01*
X1086935Y730049D01*
X1086250Y728395D01*
Y726605D01*
X1086935Y724951D01*
X1088201Y723685D01*
X1089855Y723000D01*
X1091645D01*
X1093299Y723685D01*
X1094565Y724951D01*
X1095250Y726605D01*
Y728395D01*
X1094565Y730049D01*
X1093299Y731315D01*
X1091645Y732000D01*
D02*
G37*
G36*
X1045082Y708720D02*
Y704520D01*
X1049282D01*
X1048508Y706388D01*
X1046950Y707947D01*
X1045082Y708720D01*
D02*
G37*
G36*
X1042542D02*
X1040674Y707947D01*
X1039115Y706388D01*
X1038341Y704520D01*
X1042542D01*
Y708720D01*
D02*
G37*
G36*
X1092520Y708720D02*
Y704520D01*
X1096720D01*
X1095947Y706388D01*
X1094388Y707947D01*
X1092520Y708720D01*
D02*
G37*
G36*
X1089980D02*
X1088112Y707947D01*
X1086553Y706388D01*
X1085780Y704520D01*
X1089980D01*
Y708720D01*
D02*
G37*
G36*
X851270Y702471D02*
Y698270D01*
X855470D01*
X854697Y700138D01*
X853138Y701697D01*
X851270Y702471D01*
D02*
G37*
G36*
X848730D02*
X846862Y701697D01*
X845303Y700138D01*
X844530Y698270D01*
X848730D01*
Y702471D01*
D02*
G37*
G36*
X1049282Y701980D02*
X1045082D01*
Y697780D01*
X1046950Y698553D01*
X1048508Y700112D01*
X1049282Y701980D01*
D02*
G37*
G36*
X1042542D02*
X1038341D01*
X1039115Y700112D01*
X1040674Y698553D01*
X1042542Y697780D01*
Y701980D01*
D02*
G37*
G36*
X1096720Y701980D02*
X1092520D01*
Y697780D01*
X1094388Y698553D01*
X1095947Y700112D01*
X1096720Y701980D01*
D02*
G37*
G36*
X1089980D02*
X1085780D01*
X1086553Y700112D01*
X1088112Y698553D01*
X1089980Y697780D01*
Y701980D01*
D02*
G37*
G36*
X1321520Y695970D02*
Y691770D01*
X1325720D01*
X1324946Y693638D01*
X1323388Y695196D01*
X1321520Y695970D01*
D02*
G37*
G36*
X1318980D02*
X1317111Y695196D01*
X1315553Y693638D01*
X1314779Y691770D01*
X1318980D01*
Y695970D01*
D02*
G37*
G36*
X1291520D02*
Y691770D01*
X1295720D01*
X1294946Y693638D01*
X1293388Y695196D01*
X1291520Y695970D01*
D02*
G37*
G36*
X1288980D02*
X1287111Y695196D01*
X1285553Y693638D01*
X1284779Y691770D01*
X1288980D01*
Y695970D01*
D02*
G37*
G36*
X855470Y695730D02*
X851270D01*
Y691530D01*
X853138Y692304D01*
X854697Y693862D01*
X855470Y695730D01*
D02*
G37*
G36*
X848730D02*
X844530D01*
X845303Y693862D01*
X846862Y692304D01*
X848730Y691530D01*
Y695730D01*
D02*
G37*
G36*
X961270Y695470D02*
Y691270D01*
X965470D01*
X964696Y693138D01*
X963138Y694696D01*
X961270Y695470D01*
D02*
G37*
G36*
X958730D02*
X956862Y694696D01*
X955303Y693138D01*
X954529Y691270D01*
X958730D01*
Y695470D01*
D02*
G37*
G36*
X931270D02*
Y691270D01*
X935470D01*
X934696Y693138D01*
X933138Y694696D01*
X931270Y695470D01*
D02*
G37*
G36*
X928730D02*
X926862Y694696D01*
X925303Y693138D01*
X924529Y691270D01*
X928730D01*
Y695470D01*
D02*
G37*
G36*
X1023895Y696750D02*
X1022105D01*
X1020451Y696065D01*
X1019185Y694799D01*
X1018500Y693145D01*
Y691355D01*
X1019185Y689701D01*
X1020451Y688435D01*
X1022105Y687750D01*
X1023895D01*
X1025549Y688435D01*
X1026815Y689701D01*
X1027500Y691355D01*
Y693145D01*
X1026815Y694799D01*
X1025549Y696065D01*
X1023895Y696750D01*
D02*
G37*
G36*
X1325720Y689230D02*
X1321520D01*
Y685029D01*
X1323388Y685803D01*
X1324946Y687362D01*
X1325720Y689230D01*
D02*
G37*
G36*
X1318980D02*
X1314779D01*
X1315553Y687362D01*
X1317111Y685803D01*
X1318980Y685029D01*
Y689230D01*
D02*
G37*
G36*
X1295720D02*
X1291520D01*
Y685029D01*
X1293388Y685803D01*
X1294946Y687362D01*
X1295720Y689230D01*
D02*
G37*
G36*
X1288980D02*
X1284779D01*
X1285553Y687362D01*
X1287111Y685803D01*
X1288980Y685029D01*
Y689230D01*
D02*
G37*
G36*
X965470Y688730D02*
X961270D01*
Y684529D01*
X963138Y685303D01*
X964696Y686862D01*
X965470Y688730D01*
D02*
G37*
G36*
X958730D02*
X954529D01*
X955303Y686862D01*
X956862Y685303D01*
X958730Y684529D01*
Y688730D01*
D02*
G37*
G36*
X935470D02*
X931270D01*
Y684529D01*
X933138Y685303D01*
X934696Y686862D01*
X935470Y688730D01*
D02*
G37*
G36*
X928730D02*
X924529D01*
X925303Y686862D01*
X926862Y685303D01*
X928730Y684529D01*
Y688730D01*
D02*
G37*
G36*
X581481Y706500D02*
X578519D01*
X575658Y705733D01*
X573092Y704252D01*
X570998Y702158D01*
X569517Y699592D01*
X568750Y696731D01*
Y693769D01*
X569517Y690908D01*
X570998Y688342D01*
X573092Y686248D01*
X575658Y684767D01*
X578519Y684000D01*
X581481D01*
X584342Y684767D01*
X586908Y686248D01*
X589002Y688342D01*
X590483Y690908D01*
X591250Y693769D01*
Y696731D01*
X590483Y699592D01*
X589002Y702158D01*
X586908Y704252D01*
X584342Y705733D01*
X581481Y706500D01*
D02*
G37*
G36*
X1045082Y685720D02*
Y681520D01*
X1049282D01*
X1048508Y683388D01*
X1046950Y684947D01*
X1045082Y685720D01*
D02*
G37*
G36*
X1042542D02*
X1040674Y684947D01*
X1039115Y683388D01*
X1038341Y681520D01*
X1042542D01*
Y685720D01*
D02*
G37*
G36*
X770895Y684500D02*
X769105D01*
X767451Y683815D01*
X766185Y682549D01*
X765500Y680895D01*
Y679105D01*
X766185Y677451D01*
X767451Y676185D01*
X769105Y675500D01*
X770895D01*
X772549Y676185D01*
X773815Y677451D01*
X774500Y679105D01*
Y680895D01*
X773815Y682549D01*
X772549Y683815D01*
X770895Y684500D01*
D02*
G37*
G36*
X1049282Y678980D02*
X1045082D01*
Y674780D01*
X1046950Y675553D01*
X1048508Y677112D01*
X1049282Y678980D01*
D02*
G37*
G36*
X1042542D02*
X1038341D01*
X1039115Y677112D01*
X1040674Y675553D01*
X1042542Y674780D01*
Y678980D01*
D02*
G37*
G36*
X1089395Y683750D02*
X1087605D01*
X1085951Y683065D01*
X1084685Y681799D01*
X1084000Y680145D01*
Y678355D01*
X1084685Y676701D01*
X1085951Y675435D01*
X1087605Y674750D01*
X1089395D01*
X1091049Y675435D01*
X1092315Y676701D01*
X1093000Y678355D01*
Y680145D01*
X1092315Y681799D01*
X1091049Y683065D01*
X1089395Y683750D01*
D02*
G37*
G36*
X808395Y672000D02*
X806605D01*
X804951Y671315D01*
X803685Y670049D01*
X803000Y668395D01*
Y666605D01*
X803685Y664951D01*
X804951Y663685D01*
X806605Y663000D01*
X808395D01*
X810049Y663685D01*
X811315Y664951D01*
X812000Y666605D01*
Y668395D01*
X811315Y670049D01*
X810049Y671315D01*
X808395Y672000D01*
D02*
G37*
G36*
X1276895Y669500D02*
X1275105D01*
X1273451Y668815D01*
X1272185Y667549D01*
X1271500Y665895D01*
Y664105D01*
X1272185Y662451D01*
X1273451Y661185D01*
X1275105Y660500D01*
X1276895D01*
X1278549Y661185D01*
X1279815Y662451D01*
X1280500Y664105D01*
Y665895D01*
X1279815Y667549D01*
X1278549Y668815D01*
X1276895Y669500D01*
D02*
G37*
G36*
X1089145D02*
X1087355D01*
X1085701Y668815D01*
X1084435Y667549D01*
X1083750Y665895D01*
Y664105D01*
X1084435Y662451D01*
X1085701Y661185D01*
X1087355Y660500D01*
X1089145D01*
X1090799Y661185D01*
X1092065Y662451D01*
X1092750Y664105D01*
Y665895D01*
X1092065Y667549D01*
X1090799Y668815D01*
X1089145Y669500D01*
D02*
G37*
G36*
X1045082Y662470D02*
Y658270D01*
X1049282D01*
X1048508Y660138D01*
X1046950Y661696D01*
X1045082Y662470D01*
D02*
G37*
G36*
X1042542D02*
X1040674Y661696D01*
X1039115Y660138D01*
X1038341Y658270D01*
X1042542D01*
Y662470D01*
D02*
G37*
G36*
X1089520Y657470D02*
Y653270D01*
X1093720D01*
X1092947Y655138D01*
X1091388Y656697D01*
X1089520Y657470D01*
D02*
G37*
G36*
X1086980D02*
X1085112Y656697D01*
X1083553Y655138D01*
X1082780Y653270D01*
X1086980D01*
Y657470D01*
D02*
G37*
G36*
X1049282Y655730D02*
X1045082D01*
Y651530D01*
X1046950Y652303D01*
X1048508Y653862D01*
X1049282Y655730D01*
D02*
G37*
G36*
X1042542D02*
X1038341D01*
X1039115Y653862D01*
X1040674Y652303D01*
X1042542Y651530D01*
Y655730D01*
D02*
G37*
G36*
X883270Y655720D02*
Y651520D01*
X887470D01*
X886697Y653388D01*
X885138Y654947D01*
X883270Y655720D01*
D02*
G37*
G36*
X880730D02*
X878862Y654947D01*
X877303Y653388D01*
X876530Y651520D01*
X880730D01*
Y655720D01*
D02*
G37*
G36*
X1276895Y659000D02*
X1275105D01*
X1273451Y658315D01*
X1272185Y657049D01*
X1271500Y655395D01*
Y653605D01*
X1272185Y651951D01*
X1273451Y650685D01*
X1275105Y650000D01*
X1276895D01*
X1278549Y650685D01*
X1279815Y651951D01*
X1280500Y653605D01*
Y655395D01*
X1279815Y657049D01*
X1278549Y658315D01*
X1276895Y659000D01*
D02*
G37*
G36*
X1093720Y650730D02*
X1089520D01*
Y646530D01*
X1091388Y647303D01*
X1092947Y648862D01*
X1093720Y650730D01*
D02*
G37*
G36*
X1086980D02*
X1082780D01*
X1083553Y648862D01*
X1085112Y647303D01*
X1086980Y646530D01*
Y650730D01*
D02*
G37*
G36*
X887470Y648980D02*
X883270D01*
Y644780D01*
X885138Y645553D01*
X886697Y647112D01*
X887470Y648980D01*
D02*
G37*
G36*
X880730D02*
X876530D01*
X877303Y647112D01*
X878862Y645553D01*
X880730Y644780D01*
Y648980D01*
D02*
G37*
G36*
X1371534Y660900D02*
X1368966D01*
X1366487Y660236D01*
X1364263Y658952D01*
X1362448Y657137D01*
X1361165Y654913D01*
X1360500Y652434D01*
Y649866D01*
X1361165Y647387D01*
X1362448Y645163D01*
X1364263Y643348D01*
X1366487Y642065D01*
X1368966Y641400D01*
X1371534D01*
X1374013Y642065D01*
X1376237Y643348D01*
X1378052Y645163D01*
X1379335Y647387D01*
X1380000Y649866D01*
Y652434D01*
X1379335Y654913D01*
X1378052Y657137D01*
X1376237Y658952D01*
X1374013Y660236D01*
X1371534Y660900D01*
D02*
G37*
G36*
X862520Y641970D02*
Y637770D01*
X866720D01*
X865947Y639638D01*
X864388Y641197D01*
X862520Y641970D01*
D02*
G37*
G36*
X859980D02*
X858112Y641197D01*
X856553Y639638D01*
X855780Y637770D01*
X859980D01*
Y641970D01*
D02*
G37*
G36*
X1276895Y645750D02*
X1275105D01*
X1273451Y645065D01*
X1272185Y643799D01*
X1271500Y642145D01*
Y640355D01*
X1272185Y638701D01*
X1273451Y637435D01*
X1275105Y636750D01*
X1276895D01*
X1278549Y637435D01*
X1279815Y638701D01*
X1280500Y640355D01*
Y642145D01*
X1279815Y643799D01*
X1278549Y645065D01*
X1276895Y645750D01*
D02*
G37*
G36*
X1045270Y638470D02*
Y634270D01*
X1049470D01*
X1048697Y636138D01*
X1047138Y637697D01*
X1045270Y638470D01*
D02*
G37*
G36*
X1042730D02*
X1040862Y637697D01*
X1039303Y636138D01*
X1038530Y634270D01*
X1042730D01*
Y638470D01*
D02*
G37*
G36*
X1327145Y643250D02*
X1325355D01*
X1323701Y642565D01*
X1322435Y641299D01*
X1321750Y639645D01*
Y637855D01*
X1322435Y636201D01*
X1323701Y634935D01*
X1325355Y634250D01*
X1327145D01*
X1328799Y634935D01*
X1330065Y636201D01*
X1330750Y637855D01*
Y639645D01*
X1330065Y641299D01*
X1328799Y642565D01*
X1327145Y643250D01*
D02*
G37*
G36*
X961270Y635470D02*
Y631270D01*
X965470D01*
X964696Y633138D01*
X963138Y634696D01*
X961270Y635470D01*
D02*
G37*
G36*
X958730D02*
X956862Y634696D01*
X955303Y633138D01*
X954529Y631270D01*
X958730D01*
Y635470D01*
D02*
G37*
G36*
X931270D02*
Y631270D01*
X935470D01*
X934696Y633138D01*
X933138Y634696D01*
X931270Y635470D01*
D02*
G37*
G36*
X928730D02*
X926862Y634696D01*
X925303Y633138D01*
X924529Y631270D01*
X928730D01*
Y635470D01*
D02*
G37*
G36*
X866720Y635230D02*
X862520D01*
Y631030D01*
X864388Y631803D01*
X865947Y633362D01*
X866720Y635230D01*
D02*
G37*
G36*
X859980D02*
X855780D01*
X856553Y633362D01*
X858112Y631803D01*
X859980Y631030D01*
Y635230D01*
D02*
G37*
G36*
X1049470Y631730D02*
X1045270D01*
Y627530D01*
X1047138Y628303D01*
X1048697Y629862D01*
X1049470Y631730D01*
D02*
G37*
G36*
X1042730D02*
X1038530D01*
X1039303Y629862D01*
X1040862Y628303D01*
X1042730Y627530D01*
Y631730D01*
D02*
G37*
G36*
X1276895Y634250D02*
X1275105D01*
X1273451Y633565D01*
X1272185Y632299D01*
X1271500Y630645D01*
Y628855D01*
X1272185Y627201D01*
X1273451Y625935D01*
X1275105Y625250D01*
X1276895D01*
X1278549Y625935D01*
X1279815Y627201D01*
X1280500Y628855D01*
Y630645D01*
X1279815Y632299D01*
X1278549Y633565D01*
X1276895Y634250D01*
D02*
G37*
G36*
X965470Y628730D02*
X961270D01*
Y624529D01*
X963138Y625303D01*
X964696Y626862D01*
X965470Y628730D01*
D02*
G37*
G36*
X958730D02*
X954529D01*
X955303Y626862D01*
X956862Y625303D01*
X958730Y624529D01*
Y628730D01*
D02*
G37*
G36*
X935470D02*
X931270D01*
Y624529D01*
X933138Y625303D01*
X934696Y626862D01*
X935470Y628730D01*
D02*
G37*
G36*
X928730D02*
X924529D01*
X925303Y626862D01*
X926862Y625303D01*
X928730Y624529D01*
Y628730D01*
D02*
G37*
G36*
X1087395Y633000D02*
X1085605D01*
X1083951Y632315D01*
X1082685Y631049D01*
X1082000Y629395D01*
Y627605D01*
X1082685Y625951D01*
X1083951Y624685D01*
X1085605Y624000D01*
X1087395D01*
X1089049Y624685D01*
X1090315Y625951D01*
X1091000Y627605D01*
Y629395D01*
X1090315Y631049D01*
X1089049Y632315D01*
X1087395Y633000D01*
D02*
G37*
G36*
X1371534Y635500D02*
X1368966D01*
X1366487Y634836D01*
X1364263Y633552D01*
X1362448Y631737D01*
X1361165Y629513D01*
X1360500Y627034D01*
Y624466D01*
X1361165Y621987D01*
X1362448Y619763D01*
X1364263Y617948D01*
X1366487Y616665D01*
X1368966Y616000D01*
X1371534D01*
X1374013Y616665D01*
X1376237Y617948D01*
X1378052Y619763D01*
X1379335Y621987D01*
X1380000Y624466D01*
Y627034D01*
X1379335Y629513D01*
X1378052Y631737D01*
X1376237Y633552D01*
X1374013Y634836D01*
X1371534Y635500D01*
D02*
G37*
G36*
X1087395Y617750D02*
X1085605D01*
X1083951Y617065D01*
X1082685Y615799D01*
X1082000Y614145D01*
Y612355D01*
X1082685Y610701D01*
X1083951Y609435D01*
X1085605Y608750D01*
X1087395D01*
X1089049Y609435D01*
X1090315Y610701D01*
X1091000Y612355D01*
Y614145D01*
X1090315Y615799D01*
X1089049Y617065D01*
X1087395Y617750D01*
D02*
G37*
G36*
X1330395Y615000D02*
X1328605D01*
X1326951Y614315D01*
X1325685Y613049D01*
X1325000Y611395D01*
Y609605D01*
X1325685Y607951D01*
X1326951Y606685D01*
X1328605Y606000D01*
X1330395D01*
X1332049Y606685D01*
X1333315Y607951D01*
X1334000Y609605D01*
Y611395D01*
X1333315Y613049D01*
X1332049Y614315D01*
X1330395Y615000D01*
D02*
G37*
G36*
X1371671Y611140D02*
X1371520D01*
Y601620D01*
X1381040D01*
Y601771D01*
X1380305Y604515D01*
X1378884Y606975D01*
X1376875Y608984D01*
X1374415Y610405D01*
X1371671Y611140D01*
D02*
G37*
G36*
X1368980D02*
X1368829D01*
X1366085Y610405D01*
X1363625Y608984D01*
X1361616Y606975D01*
X1360195Y604515D01*
X1359460Y601771D01*
Y601620D01*
X1368980D01*
Y611140D01*
D02*
G37*
G36*
X946270Y605470D02*
Y601270D01*
X950470D01*
X949696Y603138D01*
X948138Y604696D01*
X946270Y605470D01*
D02*
G37*
G36*
X943730D02*
X941862Y604696D01*
X940303Y603138D01*
X939529Y601270D01*
X943730D01*
Y605470D01*
D02*
G37*
G36*
X1228895Y597750D02*
X1227105D01*
X1225451Y597065D01*
X1224185Y595799D01*
X1223673Y594563D01*
X1222327D01*
X1221815Y595799D01*
X1220549Y597065D01*
X1218895Y597750D01*
X1217105D01*
X1215451Y597065D01*
X1214185Y595799D01*
X1213500Y594145D01*
Y592355D01*
X1214185Y590701D01*
X1215451Y589435D01*
X1217105Y588750D01*
X1218895D01*
X1220549Y589435D01*
X1221815Y590701D01*
X1222327Y591937D01*
X1223673D01*
X1224185Y590701D01*
X1225451Y589435D01*
X1227105Y588750D01*
X1228895D01*
X1230549Y589435D01*
X1231815Y590701D01*
X1232500Y592355D01*
Y594145D01*
X1231815Y595799D01*
X1230549Y597065D01*
X1228895Y597750D01*
D02*
G37*
G36*
X950470Y598730D02*
X946270D01*
Y594529D01*
X948138Y595303D01*
X949696Y596862D01*
X950470Y598730D01*
D02*
G37*
G36*
X943730D02*
X939529D01*
X940303Y596862D01*
X941862Y595303D01*
X943730Y594529D01*
Y598730D01*
D02*
G37*
G36*
X1111395Y603250D02*
X1109605D01*
X1107951Y602565D01*
X1106685Y601299D01*
X1106000Y599645D01*
Y597855D01*
X1106685Y596201D01*
X1107951Y594935D01*
X1109605Y594250D01*
X1111395D01*
X1113049Y594935D01*
X1114315Y596201D01*
X1115000Y597855D01*
Y599645D01*
X1114315Y601299D01*
X1113049Y602565D01*
X1111395Y603250D01*
D02*
G37*
G36*
X1099645Y602250D02*
X1097855D01*
X1096201Y601565D01*
X1094935Y600299D01*
X1094250Y598645D01*
Y596855D01*
X1094935Y595201D01*
X1096201Y593935D01*
X1097855Y593250D01*
X1099645D01*
X1101299Y593935D01*
X1102565Y595201D01*
X1103250Y596855D01*
Y598645D01*
X1102565Y600299D01*
X1101299Y601565D01*
X1099645Y602250D01*
D02*
G37*
G36*
X1159145Y594750D02*
X1157355D01*
X1155701Y594065D01*
X1154435Y592799D01*
X1154187Y592201D01*
X1152813D01*
X1152565Y592799D01*
X1151299Y594065D01*
X1149645Y594750D01*
X1147855D01*
X1146201Y594065D01*
X1144935Y592799D01*
X1144812Y592503D01*
X1143438D01*
X1143315Y592799D01*
X1142049Y594065D01*
X1140395Y594750D01*
X1138605D01*
X1136951Y594065D01*
X1135685Y592799D01*
X1135000Y591145D01*
Y589355D01*
X1135685Y587701D01*
X1136951Y586435D01*
X1138605Y585750D01*
X1140395D01*
X1142049Y586435D01*
X1143315Y587701D01*
X1143438Y587997D01*
X1144812D01*
X1144935Y587701D01*
X1146201Y586435D01*
X1147855Y585750D01*
X1149645D01*
X1151299Y586435D01*
X1152565Y587701D01*
X1152813Y588299D01*
X1154187D01*
X1154435Y587701D01*
X1155701Y586435D01*
X1157355Y585750D01*
X1159145D01*
X1160799Y586435D01*
X1162065Y587701D01*
X1162750Y589355D01*
Y591145D01*
X1162065Y592799D01*
X1160799Y594065D01*
X1159145Y594750D01*
D02*
G37*
G36*
X1123270Y595720D02*
Y591520D01*
X1127470D01*
X1126697Y593388D01*
X1125138Y594947D01*
X1123270Y595720D01*
D02*
G37*
G36*
X1120730D02*
X1118862Y594947D01*
X1117303Y593388D01*
X1116530Y591520D01*
X1120730D01*
Y595720D01*
D02*
G37*
G36*
X1381040Y599080D02*
X1371520D01*
Y589560D01*
X1371671D01*
X1374415Y590295D01*
X1376875Y591716D01*
X1378884Y593725D01*
X1380305Y596185D01*
X1381040Y598929D01*
Y599080D01*
D02*
G37*
G36*
X1368980D02*
X1359460D01*
Y598929D01*
X1360195Y596185D01*
X1361616Y593725D01*
X1363625Y591716D01*
X1366085Y590295D01*
X1368829Y589560D01*
X1368980D01*
Y599080D01*
D02*
G37*
G36*
X1127470Y588980D02*
X1123270D01*
Y584780D01*
X1125138Y585553D01*
X1126697Y587112D01*
X1127470Y588980D01*
D02*
G37*
G36*
X1120730D02*
X1116530D01*
X1117303Y587112D01*
X1118862Y585553D01*
X1120730Y584780D01*
Y588980D01*
D02*
G37*
G36*
X1097145Y586000D02*
X1095355D01*
X1093701Y585315D01*
X1092435Y584049D01*
X1091750Y582395D01*
Y580605D01*
X1092435Y578951D01*
X1093701Y577685D01*
X1095355Y577000D01*
X1097145D01*
X1098799Y577685D01*
X1100065Y578951D01*
X1100750Y580605D01*
Y582395D01*
X1100065Y584049D01*
X1098799Y585315D01*
X1097145Y586000D01*
D02*
G37*
G36*
X992895Y584500D02*
X991105D01*
X989451Y583815D01*
X988185Y582549D01*
X987500Y580895D01*
Y579105D01*
X988185Y577451D01*
X989451Y576185D01*
X991105Y575500D01*
X992895D01*
X994549Y576185D01*
X995815Y577451D01*
X996500Y579105D01*
Y580895D01*
X995815Y582549D01*
X994549Y583815D01*
X992895Y584500D01*
D02*
G37*
G36*
X961645Y584250D02*
X959855D01*
X958201Y583565D01*
X956935Y582299D01*
X956250Y580645D01*
Y578855D01*
X956935Y577201D01*
X958201Y575935D01*
X959855Y575250D01*
X961645D01*
X963299Y575935D01*
X964565Y577201D01*
X965250Y578855D01*
Y580645D01*
X964565Y582299D01*
X963299Y583565D01*
X961645Y584250D01*
D02*
G37*
G36*
X1345395Y579750D02*
X1343605D01*
X1341951Y579065D01*
X1340685Y577799D01*
X1340000Y576145D01*
Y574355D01*
X1340685Y572701D01*
X1341951Y571435D01*
X1343605Y570750D01*
X1345395D01*
X1347049Y571435D01*
X1348315Y572701D01*
X1349000Y574355D01*
Y576145D01*
X1348315Y577799D01*
X1347049Y579065D01*
X1345395Y579750D01*
D02*
G37*
G36*
X1380000Y584700D02*
X1360500D01*
Y565200D01*
X1380000D01*
Y584700D01*
D02*
G37*
G36*
X818395Y572000D02*
X816605D01*
X814951Y571315D01*
X813685Y570049D01*
X813000Y568395D01*
Y566605D01*
X813685Y564951D01*
X814951Y563685D01*
X816605Y563000D01*
X818395D01*
X820049Y563685D01*
X821315Y564951D01*
X822000Y566605D01*
Y568395D01*
X821315Y570049D01*
X820049Y571315D01*
X818395Y572000D01*
D02*
G37*
G36*
X788395D02*
X786605D01*
X784951Y571315D01*
X783685Y570049D01*
X783000Y568395D01*
Y566605D01*
X783685Y564951D01*
X784951Y563685D01*
X786605Y563000D01*
X788395D01*
X790049Y563685D01*
X791315Y564951D01*
X792000Y566605D01*
Y568395D01*
X791315Y570049D01*
X790049Y571315D01*
X788395Y572000D01*
D02*
G37*
G36*
X901770Y565220D02*
Y561020D01*
X905970D01*
X905197Y562888D01*
X903638Y564447D01*
X901770Y565220D01*
D02*
G37*
G36*
X899230D02*
X897362Y564447D01*
X895803Y562888D01*
X895030Y561020D01*
X899230D01*
Y565220D01*
D02*
G37*
G36*
X959020Y564970D02*
Y560770D01*
X963220D01*
X962447Y562638D01*
X960888Y564197D01*
X959020Y564970D01*
D02*
G37*
G36*
X956480D02*
X954612Y564197D01*
X953053Y562638D01*
X952280Y560770D01*
X956480D01*
Y564970D01*
D02*
G37*
G36*
X1132270Y564220D02*
Y560020D01*
X1136470D01*
X1135697Y561888D01*
X1134138Y563447D01*
X1132270Y564220D01*
D02*
G37*
G36*
X1129730D02*
X1127862Y563447D01*
X1126303Y561888D01*
X1125530Y560020D01*
X1129730D01*
Y564220D01*
D02*
G37*
G36*
X859600Y583354D02*
X846900D01*
X845752Y582878D01*
X845276Y581730D01*
Y560140D01*
X845752Y558992D01*
X846900Y558516D01*
X859600D01*
X860748Y558992D01*
X861224Y560140D01*
Y581730D01*
X860748Y582878D01*
X859600Y583354D01*
D02*
G37*
G36*
X1239770Y560720D02*
Y556520D01*
X1243970D01*
X1243197Y558388D01*
X1241638Y559947D01*
X1239770Y560720D01*
D02*
G37*
G36*
X1237230D02*
X1235362Y559947D01*
X1233803Y558388D01*
X1233030Y556520D01*
X1237230D01*
Y560720D01*
D02*
G37*
G36*
X905970Y558480D02*
X901770D01*
Y554280D01*
X903638Y555053D01*
X905197Y556612D01*
X905970Y558480D01*
D02*
G37*
G36*
X899230D02*
X895030D01*
X895803Y556612D01*
X897362Y555053D01*
X899230Y554280D01*
Y558480D01*
D02*
G37*
G36*
X963220Y558230D02*
X959020D01*
Y554030D01*
X960888Y554803D01*
X962447Y556362D01*
X963220Y558230D01*
D02*
G37*
G36*
X956480D02*
X952280D01*
X953053Y556362D01*
X954612Y554803D01*
X956480Y554030D01*
Y558230D01*
D02*
G37*
G36*
X1136470Y557480D02*
X1132270D01*
Y553280D01*
X1134138Y554053D01*
X1135697Y555612D01*
X1136470Y557480D01*
D02*
G37*
G36*
X1129730D02*
X1125530D01*
X1126303Y555612D01*
X1127862Y554053D01*
X1129730Y553280D01*
Y557480D01*
D02*
G37*
G36*
X1260395Y562000D02*
X1258605D01*
X1256951Y561315D01*
X1255685Y560049D01*
X1255000Y558395D01*
Y556605D01*
X1255685Y554951D01*
X1256951Y553685D01*
X1258605Y553000D01*
X1260395D01*
X1262049Y553685D01*
X1263315Y554951D01*
X1264000Y556605D01*
Y558395D01*
X1263315Y560049D01*
X1262049Y561315D01*
X1260395Y562000D01*
D02*
G37*
G36*
X1243970Y553980D02*
X1239770D01*
Y549780D01*
X1241638Y550553D01*
X1243197Y552112D01*
X1243970Y553980D01*
D02*
G37*
G36*
X1237230D02*
X1233030D01*
X1233803Y552112D01*
X1235362Y550553D01*
X1237230Y549780D01*
Y553980D01*
D02*
G37*
G36*
X1036520Y545970D02*
Y541770D01*
X1040720D01*
X1039946Y543638D01*
X1038388Y545196D01*
X1036520Y545970D01*
D02*
G37*
G36*
X1033980D02*
X1032112Y545196D01*
X1030553Y543638D01*
X1029779Y541770D01*
X1033980D01*
Y545970D01*
D02*
G37*
G36*
X1006520D02*
Y541770D01*
X1010720D01*
X1009946Y543638D01*
X1008388Y545196D01*
X1006520Y545970D01*
D02*
G37*
G36*
X1003980D02*
X1002112Y545196D01*
X1000553Y543638D01*
X999779Y541770D01*
X1003980D01*
Y545970D01*
D02*
G37*
G36*
X1040720Y539230D02*
X1036520D01*
Y535029D01*
X1038388Y535803D01*
X1039946Y537362D01*
X1040720Y539230D01*
D02*
G37*
G36*
X1033980D02*
X1029779D01*
X1030553Y537362D01*
X1032112Y535803D01*
X1033980Y535029D01*
Y539230D01*
D02*
G37*
G36*
X1010720D02*
X1006520D01*
Y535029D01*
X1008388Y535803D01*
X1009946Y537362D01*
X1010720Y539230D01*
D02*
G37*
G36*
X1003980D02*
X999779D01*
X1000553Y537362D01*
X1002112Y535803D01*
X1003980Y535029D01*
Y539230D01*
D02*
G37*
G36*
X1199270Y527220D02*
Y523020D01*
X1203470D01*
X1202697Y524888D01*
X1201138Y526447D01*
X1199270Y527220D01*
D02*
G37*
G36*
X1196730D02*
X1194862Y526447D01*
X1193303Y524888D01*
X1192530Y523020D01*
X1196730D01*
Y527220D01*
D02*
G37*
G36*
X1098145Y531750D02*
X1096355D01*
X1094701Y531065D01*
X1093435Y529799D01*
X1092750Y528145D01*
Y526355D01*
X1093435Y524701D01*
X1094701Y523435D01*
X1096355Y522750D01*
X1098145D01*
X1099799Y523435D01*
X1101065Y524701D01*
X1101750Y526355D01*
Y528145D01*
X1101065Y529799D01*
X1099799Y531065D01*
X1098145Y531750D01*
D02*
G37*
G36*
X1203470Y520480D02*
X1199270D01*
Y516280D01*
X1201138Y517053D01*
X1202697Y518612D01*
X1203470Y520480D01*
D02*
G37*
G36*
X1196730D02*
X1192530D01*
X1193303Y518612D01*
X1194862Y517053D01*
X1196730Y516280D01*
Y520480D01*
D02*
G37*
G36*
X1141520Y515970D02*
Y511770D01*
X1145720D01*
X1144946Y513638D01*
X1143388Y515196D01*
X1141520Y515970D01*
D02*
G37*
G36*
X1138980D02*
X1137112Y515196D01*
X1135553Y513638D01*
X1134779Y511770D01*
X1138980D01*
Y515970D01*
D02*
G37*
G36*
X1111520D02*
Y511770D01*
X1115720D01*
X1114946Y513638D01*
X1113388Y515196D01*
X1111520Y515970D01*
D02*
G37*
G36*
X1108980D02*
X1107112Y515196D01*
X1105553Y513638D01*
X1104779Y511770D01*
X1108980D01*
Y515970D01*
D02*
G37*
G36*
X1081520D02*
Y511770D01*
X1085720D01*
X1084946Y513638D01*
X1083388Y515196D01*
X1081520Y515970D01*
D02*
G37*
G36*
X1078980D02*
X1077112Y515196D01*
X1075553Y513638D01*
X1074779Y511770D01*
X1078980D01*
Y515970D01*
D02*
G37*
G36*
X1051520D02*
Y511770D01*
X1055720D01*
X1054946Y513638D01*
X1053388Y515196D01*
X1051520Y515970D01*
D02*
G37*
G36*
X1048980D02*
X1047112Y515196D01*
X1045553Y513638D01*
X1044779Y511770D01*
X1048980D01*
Y515970D01*
D02*
G37*
G36*
X1021520D02*
Y511770D01*
X1025720D01*
X1024946Y513638D01*
X1023388Y515196D01*
X1021520Y515970D01*
D02*
G37*
G36*
X1018980D02*
X1017112Y515196D01*
X1015553Y513638D01*
X1014779Y511770D01*
X1018980D01*
Y515970D01*
D02*
G37*
G36*
X991520D02*
Y511770D01*
X995720D01*
X994946Y513638D01*
X993388Y515196D01*
X991520Y515970D01*
D02*
G37*
G36*
X988980D02*
X987112Y515196D01*
X985553Y513638D01*
X984779Y511770D01*
X988980D01*
Y515970D01*
D02*
G37*
G36*
X961270Y515470D02*
Y511270D01*
X965470D01*
X964696Y513138D01*
X963138Y514696D01*
X961270Y515470D01*
D02*
G37*
G36*
X958730D02*
X956862Y514696D01*
X955303Y513138D01*
X954529Y511270D01*
X958730D01*
Y515470D01*
D02*
G37*
G36*
X931270D02*
Y511270D01*
X935470D01*
X934696Y513138D01*
X933138Y514696D01*
X931270Y515470D01*
D02*
G37*
G36*
X928730D02*
X926862Y514696D01*
X925303Y513138D01*
X924529Y511270D01*
X928730D01*
Y515470D01*
D02*
G37*
G36*
X1145720Y509230D02*
X1141520D01*
Y505029D01*
X1143388Y505803D01*
X1144946Y507362D01*
X1145720Y509230D01*
D02*
G37*
G36*
X1138980D02*
X1134779D01*
X1135553Y507362D01*
X1137112Y505803D01*
X1138980Y505029D01*
Y509230D01*
D02*
G37*
G36*
X1115720D02*
X1111520D01*
Y505029D01*
X1113388Y505803D01*
X1114946Y507362D01*
X1115720Y509230D01*
D02*
G37*
G36*
X1108980D02*
X1104779D01*
X1105553Y507362D01*
X1107112Y505803D01*
X1108980Y505029D01*
Y509230D01*
D02*
G37*
G36*
X1085720D02*
X1081520D01*
Y505029D01*
X1083388Y505803D01*
X1084946Y507362D01*
X1085720Y509230D01*
D02*
G37*
G36*
X1078980D02*
X1074779D01*
X1075553Y507362D01*
X1077112Y505803D01*
X1078980Y505029D01*
Y509230D01*
D02*
G37*
G36*
X1055720D02*
X1051520D01*
Y505029D01*
X1053388Y505803D01*
X1054946Y507362D01*
X1055720Y509230D01*
D02*
G37*
G36*
X1048980D02*
X1044779D01*
X1045553Y507362D01*
X1047112Y505803D01*
X1048980Y505029D01*
Y509230D01*
D02*
G37*
G36*
X1025720D02*
X1021520D01*
Y505029D01*
X1023388Y505803D01*
X1024946Y507362D01*
X1025720Y509230D01*
D02*
G37*
G36*
X1018980D02*
X1014779D01*
X1015553Y507362D01*
X1017112Y505803D01*
X1018980Y505029D01*
Y509230D01*
D02*
G37*
G36*
X995720D02*
X991520D01*
Y505029D01*
X993388Y505803D01*
X994946Y507362D01*
X995720Y509230D01*
D02*
G37*
G36*
X988980D02*
X984779D01*
X985553Y507362D01*
X987112Y505803D01*
X988980Y505029D01*
Y509230D01*
D02*
G37*
G36*
X965470Y508730D02*
X961270D01*
Y504529D01*
X963138Y505303D01*
X964696Y506862D01*
X965470Y508730D01*
D02*
G37*
G36*
X958730D02*
X954529D01*
X955303Y506862D01*
X956862Y505303D01*
X958730Y504529D01*
Y508730D01*
D02*
G37*
G36*
X935470D02*
X931270D01*
Y504529D01*
X933138Y505303D01*
X934696Y506862D01*
X935470Y508730D01*
D02*
G37*
G36*
X928730D02*
X924529D01*
X925303Y506862D01*
X926862Y505303D01*
X928730Y504529D01*
Y508730D01*
D02*
G37*
G36*
X850270Y500970D02*
Y496770D01*
X854470D01*
X853697Y498638D01*
X852138Y500197D01*
X850270Y500970D01*
D02*
G37*
G36*
X847730D02*
X845862Y500197D01*
X844303Y498638D01*
X843530Y496770D01*
X847730D01*
Y500970D01*
D02*
G37*
G36*
X854470Y494230D02*
X850270D01*
Y490030D01*
X852138Y490803D01*
X853697Y492362D01*
X854470Y494230D01*
D02*
G37*
G36*
X847730D02*
X843530D01*
X844303Y492362D01*
X845862Y490803D01*
X847730Y490030D01*
Y494230D01*
D02*
G37*
G36*
X1366145Y496000D02*
X1364355D01*
X1362701Y495315D01*
X1361435Y494049D01*
X1360750Y492395D01*
Y490605D01*
X1361435Y488951D01*
X1362701Y487685D01*
X1364355Y487000D01*
X1366145D01*
X1367799Y487685D01*
X1369065Y488951D01*
X1369750Y490605D01*
Y492395D01*
X1369065Y494049D01*
X1367799Y495315D01*
X1366145Y496000D01*
D02*
G37*
G36*
X1340895D02*
X1339105D01*
X1337451Y495315D01*
X1336185Y494049D01*
X1335500Y492395D01*
Y490605D01*
X1336185Y488951D01*
X1337451Y487685D01*
X1339105Y487000D01*
X1340895D01*
X1342549Y487685D01*
X1343815Y488951D01*
X1344500Y490605D01*
Y492395D01*
X1343815Y494049D01*
X1342549Y495315D01*
X1340895Y496000D01*
D02*
G37*
G36*
X1315395D02*
X1313605D01*
X1311951Y495315D01*
X1310685Y494049D01*
X1310000Y492395D01*
Y490605D01*
X1310685Y488951D01*
X1311951Y487685D01*
X1313605Y487000D01*
X1315395D01*
X1317049Y487685D01*
X1318315Y488951D01*
X1319000Y490605D01*
Y492395D01*
X1318315Y494049D01*
X1317049Y495315D01*
X1315395Y496000D01*
D02*
G37*
G36*
X1289645D02*
X1287855D01*
X1286201Y495315D01*
X1284935Y494049D01*
X1284250Y492395D01*
Y490605D01*
X1284935Y488951D01*
X1286201Y487685D01*
X1287855Y487000D01*
X1289645D01*
X1291299Y487685D01*
X1292565Y488951D01*
X1293250Y490605D01*
Y492395D01*
X1292565Y494049D01*
X1291299Y495315D01*
X1289645Y496000D01*
D02*
G37*
G36*
X1263895D02*
X1262105D01*
X1260451Y495315D01*
X1259185Y494049D01*
X1258500Y492395D01*
Y490605D01*
X1259185Y488951D01*
X1260451Y487685D01*
X1262105Y487000D01*
X1263895D01*
X1265549Y487685D01*
X1266815Y488951D01*
X1267500Y490605D01*
Y492395D01*
X1266815Y494049D01*
X1265549Y495315D01*
X1263895Y496000D01*
D02*
G37*
G36*
X1239645D02*
X1237855D01*
X1236201Y495315D01*
X1234935Y494049D01*
X1234250Y492395D01*
Y490605D01*
X1234935Y488951D01*
X1236201Y487685D01*
X1237855Y487000D01*
X1239645D01*
X1241299Y487685D01*
X1242565Y488951D01*
X1243250Y490605D01*
Y492395D01*
X1242565Y494049D01*
X1241299Y495315D01*
X1239645Y496000D01*
D02*
G37*
G36*
X1213395D02*
X1211605D01*
X1209951Y495315D01*
X1208685Y494049D01*
X1208000Y492395D01*
Y490605D01*
X1208685Y488951D01*
X1209951Y487685D01*
X1211605Y487000D01*
X1213395D01*
X1215049Y487685D01*
X1216315Y488951D01*
X1217000Y490605D01*
Y492395D01*
X1216315Y494049D01*
X1215049Y495315D01*
X1213395Y496000D01*
D02*
G37*
G36*
X1189395D02*
X1187605D01*
X1185951Y495315D01*
X1184685Y494049D01*
X1184000Y492395D01*
Y490605D01*
X1184685Y488951D01*
X1185951Y487685D01*
X1187605Y487000D01*
X1189395D01*
X1191049Y487685D01*
X1192315Y488951D01*
X1193000Y490605D01*
Y492395D01*
X1192315Y494049D01*
X1191049Y495315D01*
X1189395Y496000D01*
D02*
G37*
G36*
X1162395D02*
X1160605D01*
X1158951Y495315D01*
X1157685Y494049D01*
X1157000Y492395D01*
Y490605D01*
X1157685Y488951D01*
X1158951Y487685D01*
X1160605Y487000D01*
X1162395D01*
X1164049Y487685D01*
X1165315Y488951D01*
X1166000Y490605D01*
Y492395D01*
X1165315Y494049D01*
X1164049Y495315D01*
X1162395Y496000D01*
D02*
G37*
G36*
X1126520Y485970D02*
Y481770D01*
X1130720D01*
X1129946Y483638D01*
X1128388Y485196D01*
X1126520Y485970D01*
D02*
G37*
G36*
X1123980D02*
X1122112Y485196D01*
X1120553Y483638D01*
X1119779Y481770D01*
X1123980D01*
Y485970D01*
D02*
G37*
G36*
X1096520D02*
Y481770D01*
X1100720D01*
X1099946Y483638D01*
X1098388Y485196D01*
X1096520Y485970D01*
D02*
G37*
G36*
X1093980D02*
X1092112Y485196D01*
X1090553Y483638D01*
X1089779Y481770D01*
X1093980D01*
Y485970D01*
D02*
G37*
G36*
X1066520D02*
Y481770D01*
X1070720D01*
X1069946Y483638D01*
X1068388Y485196D01*
X1066520Y485970D01*
D02*
G37*
G36*
X1063980D02*
X1062112Y485196D01*
X1060553Y483638D01*
X1059779Y481770D01*
X1063980D01*
Y485970D01*
D02*
G37*
G36*
X1036520D02*
Y481770D01*
X1040720D01*
X1039946Y483638D01*
X1038388Y485196D01*
X1036520Y485970D01*
D02*
G37*
G36*
X1033980D02*
X1032112Y485196D01*
X1030553Y483638D01*
X1029779Y481770D01*
X1033980D01*
Y485970D01*
D02*
G37*
G36*
X1006520D02*
Y481770D01*
X1010720D01*
X1009946Y483638D01*
X1008388Y485196D01*
X1006520Y485970D01*
D02*
G37*
G36*
X1003980D02*
X1002112Y485196D01*
X1000553Y483638D01*
X999779Y481770D01*
X1003980D01*
Y485970D01*
D02*
G37*
G36*
X946270Y485470D02*
Y481270D01*
X950470D01*
X949696Y483138D01*
X948138Y484696D01*
X946270Y485470D01*
D02*
G37*
G36*
X943730D02*
X941862Y484696D01*
X940303Y483138D01*
X939529Y481270D01*
X943730D01*
Y485470D01*
D02*
G37*
G36*
X1130720Y479230D02*
X1126520D01*
Y475029D01*
X1128388Y475803D01*
X1129946Y477362D01*
X1130720Y479230D01*
D02*
G37*
G36*
X1123980D02*
X1119779D01*
X1120553Y477362D01*
X1122112Y475803D01*
X1123980Y475029D01*
Y479230D01*
D02*
G37*
G36*
X1100720D02*
X1096520D01*
Y475029D01*
X1098388Y475803D01*
X1099946Y477362D01*
X1100720Y479230D01*
D02*
G37*
G36*
X1093980D02*
X1089779D01*
X1090553Y477362D01*
X1092112Y475803D01*
X1093980Y475029D01*
Y479230D01*
D02*
G37*
G36*
X1070720D02*
X1066520D01*
Y475029D01*
X1068388Y475803D01*
X1069946Y477362D01*
X1070720Y479230D01*
D02*
G37*
G36*
X1063980D02*
X1059779D01*
X1060553Y477362D01*
X1062112Y475803D01*
X1063980Y475029D01*
Y479230D01*
D02*
G37*
G36*
X1040720D02*
X1036520D01*
Y475029D01*
X1038388Y475803D01*
X1039946Y477362D01*
X1040720Y479230D01*
D02*
G37*
G36*
X1033980D02*
X1029779D01*
X1030553Y477362D01*
X1032112Y475803D01*
X1033980Y475029D01*
Y479230D01*
D02*
G37*
G36*
X1010720D02*
X1006520D01*
Y475029D01*
X1008388Y475803D01*
X1009946Y477362D01*
X1010720Y479230D01*
D02*
G37*
G36*
X1003980D02*
X999779D01*
X1000553Y477362D01*
X1002112Y475803D01*
X1003980Y475029D01*
Y479230D01*
D02*
G37*
G36*
X950470Y478730D02*
X946270D01*
Y474529D01*
X948138Y475303D01*
X949696Y476862D01*
X950470Y478730D01*
D02*
G37*
G36*
X943730D02*
X939529D01*
X940303Y476862D01*
X941862Y475303D01*
X943730Y474529D01*
Y478730D01*
D02*
G37*
G36*
X1374775Y471750D02*
X1355275D01*
Y452250D01*
X1374775D01*
Y471750D01*
D02*
G37*
G36*
X1340909D02*
X1338341D01*
X1335862Y471086D01*
X1333638Y469802D01*
X1331823Y467987D01*
X1330540Y465763D01*
X1329875Y463284D01*
Y460716D01*
X1330540Y458237D01*
X1331823Y456013D01*
X1333638Y454198D01*
X1335862Y452915D01*
X1338341Y452250D01*
X1340909D01*
X1343388Y452915D01*
X1345612Y454198D01*
X1347427Y456013D01*
X1348710Y458237D01*
X1349375Y460716D01*
Y463284D01*
X1348710Y465763D01*
X1347427Y467987D01*
X1345612Y469802D01*
X1343388Y471086D01*
X1340909Y471750D01*
D02*
G37*
G36*
X1315509D02*
X1312941D01*
X1310462Y471086D01*
X1308238Y469802D01*
X1306423Y467987D01*
X1305139Y465763D01*
X1304475Y463284D01*
Y460716D01*
X1305139Y458237D01*
X1306423Y456013D01*
X1308238Y454198D01*
X1310462Y452915D01*
X1312941Y452250D01*
X1315509D01*
X1317988Y452915D01*
X1320212Y454198D01*
X1322027Y456013D01*
X1323311Y458237D01*
X1323975Y460716D01*
Y463284D01*
X1323311Y465763D01*
X1322027Y467987D01*
X1320212Y469802D01*
X1317988Y471086D01*
X1315509Y471750D01*
D02*
G37*
G36*
X1290109D02*
X1287541D01*
X1285062Y471086D01*
X1282838Y469802D01*
X1281023Y467987D01*
X1279740Y465763D01*
X1279075Y463284D01*
Y460716D01*
X1279740Y458237D01*
X1281023Y456013D01*
X1282838Y454198D01*
X1285062Y452915D01*
X1287541Y452250D01*
X1290109D01*
X1292588Y452915D01*
X1294812Y454198D01*
X1296627Y456013D01*
X1297910Y458237D01*
X1298575Y460716D01*
Y463284D01*
X1297910Y465763D01*
X1296627Y467987D01*
X1294812Y469802D01*
X1292588Y471086D01*
X1290109Y471750D01*
D02*
G37*
G36*
X1264709D02*
X1262141D01*
X1259662Y471086D01*
X1257438Y469802D01*
X1255623Y467987D01*
X1254340Y465763D01*
X1253675Y463284D01*
Y460716D01*
X1254340Y458237D01*
X1255623Y456013D01*
X1257438Y454198D01*
X1259662Y452915D01*
X1262141Y452250D01*
X1264709D01*
X1267188Y452915D01*
X1269412Y454198D01*
X1271227Y456013D01*
X1272511Y458237D01*
X1273175Y460716D01*
Y463284D01*
X1272511Y465763D01*
X1271227Y467987D01*
X1269412Y469802D01*
X1267188Y471086D01*
X1264709Y471750D01*
D02*
G37*
G36*
X1239309D02*
X1236741D01*
X1234262Y471086D01*
X1232038Y469802D01*
X1230223Y467987D01*
X1228940Y465763D01*
X1228275Y463284D01*
Y460716D01*
X1228940Y458237D01*
X1230223Y456013D01*
X1232038Y454198D01*
X1234262Y452915D01*
X1236741Y452250D01*
X1239309D01*
X1241788Y452915D01*
X1244012Y454198D01*
X1245827Y456013D01*
X1247111Y458237D01*
X1247775Y460716D01*
Y463284D01*
X1247111Y465763D01*
X1245827Y467987D01*
X1244012Y469802D01*
X1241788Y471086D01*
X1239309Y471750D01*
D02*
G37*
G36*
X1213909D02*
X1211341D01*
X1208862Y471086D01*
X1206638Y469802D01*
X1204823Y467987D01*
X1203540Y465763D01*
X1202875Y463284D01*
Y460716D01*
X1203540Y458237D01*
X1204823Y456013D01*
X1206638Y454198D01*
X1208862Y452915D01*
X1211341Y452250D01*
X1213909D01*
X1216388Y452915D01*
X1218612Y454198D01*
X1220427Y456013D01*
X1221711Y458237D01*
X1222375Y460716D01*
Y463284D01*
X1221711Y465763D01*
X1220427Y467987D01*
X1218612Y469802D01*
X1216388Y471086D01*
X1213909Y471750D01*
D02*
G37*
G36*
X1188509D02*
X1185941D01*
X1183462Y471086D01*
X1181238Y469802D01*
X1179423Y467987D01*
X1178139Y465763D01*
X1177475Y463284D01*
Y460716D01*
X1178139Y458237D01*
X1179423Y456013D01*
X1181238Y454198D01*
X1183462Y452915D01*
X1185941Y452250D01*
X1188509D01*
X1190988Y452915D01*
X1193212Y454198D01*
X1195027Y456013D01*
X1196311Y458237D01*
X1196975Y460716D01*
Y463284D01*
X1196311Y465763D01*
X1195027Y467987D01*
X1193212Y469802D01*
X1190988Y471086D01*
X1188509Y471750D01*
D02*
G37*
G36*
X1163109D02*
X1160541D01*
X1158062Y471086D01*
X1155838Y469802D01*
X1154023Y467987D01*
X1152739Y465763D01*
X1152075Y463284D01*
Y460716D01*
X1152739Y458237D01*
X1154023Y456013D01*
X1155838Y454198D01*
X1158062Y452915D01*
X1160541Y452250D01*
X1163109D01*
X1165588Y452915D01*
X1167812Y454198D01*
X1169627Y456013D01*
X1170910Y458237D01*
X1171575Y460716D01*
Y463284D01*
X1170910Y465763D01*
X1169627Y467987D01*
X1167812Y469802D01*
X1165588Y471086D01*
X1163109Y471750D01*
D02*
G37*
G36*
X1111520Y455970D02*
Y451770D01*
X1115720D01*
X1114946Y453638D01*
X1113388Y455196D01*
X1111520Y455970D01*
D02*
G37*
G36*
X1108980D02*
X1107112Y455196D01*
X1105553Y453638D01*
X1104779Y451770D01*
X1108980D01*
Y455970D01*
D02*
G37*
G36*
X1081520D02*
Y451770D01*
X1085720D01*
X1084946Y453638D01*
X1083388Y455196D01*
X1081520Y455970D01*
D02*
G37*
G36*
X1078980D02*
X1077112Y455196D01*
X1075553Y453638D01*
X1074779Y451770D01*
X1078980D01*
Y455970D01*
D02*
G37*
G36*
X1051520D02*
Y451770D01*
X1055720D01*
X1054946Y453638D01*
X1053388Y455196D01*
X1051520Y455970D01*
D02*
G37*
G36*
X1048980D02*
X1047112Y455196D01*
X1045553Y453638D01*
X1044779Y451770D01*
X1048980D01*
Y455970D01*
D02*
G37*
G36*
X1021520D02*
Y451770D01*
X1025720D01*
X1024946Y453638D01*
X1023388Y455196D01*
X1021520Y455970D01*
D02*
G37*
G36*
X1018980D02*
X1017112Y455196D01*
X1015553Y453638D01*
X1014779Y451770D01*
X1018980D01*
Y455970D01*
D02*
G37*
G36*
X991520D02*
Y451770D01*
X995720D01*
X994946Y453638D01*
X993388Y455196D01*
X991520Y455970D01*
D02*
G37*
G36*
X988980D02*
X987112Y455196D01*
X985553Y453638D01*
X984779Y451770D01*
X988980D01*
Y455970D01*
D02*
G37*
G36*
X961270Y455470D02*
Y451270D01*
X965470D01*
X964696Y453138D01*
X963138Y454696D01*
X961270Y455470D01*
D02*
G37*
G36*
X958730D02*
X956862Y454696D01*
X955303Y453138D01*
X954529Y451270D01*
X958730D01*
Y455470D01*
D02*
G37*
G36*
X931270D02*
Y451270D01*
X935470D01*
X934696Y453138D01*
X933138Y454696D01*
X931270Y455470D01*
D02*
G37*
G36*
X928730D02*
X926862Y454696D01*
X925303Y453138D01*
X924529Y451270D01*
X928730D01*
Y455470D01*
D02*
G37*
G36*
X1115720Y449230D02*
X1111520D01*
Y445029D01*
X1113388Y445803D01*
X1114946Y447362D01*
X1115720Y449230D01*
D02*
G37*
G36*
X1108980D02*
X1104779D01*
X1105553Y447362D01*
X1107112Y445803D01*
X1108980Y445029D01*
Y449230D01*
D02*
G37*
G36*
X1085720D02*
X1081520D01*
Y445029D01*
X1083388Y445803D01*
X1084946Y447362D01*
X1085720Y449230D01*
D02*
G37*
G36*
X1078980D02*
X1074779D01*
X1075553Y447362D01*
X1077112Y445803D01*
X1078980Y445029D01*
Y449230D01*
D02*
G37*
G36*
X1055720D02*
X1051520D01*
Y445029D01*
X1053388Y445803D01*
X1054946Y447362D01*
X1055720Y449230D01*
D02*
G37*
G36*
X1048980D02*
X1044779D01*
X1045553Y447362D01*
X1047112Y445803D01*
X1048980Y445029D01*
Y449230D01*
D02*
G37*
G36*
X1025720D02*
X1021520D01*
Y445029D01*
X1023388Y445803D01*
X1024946Y447362D01*
X1025720Y449230D01*
D02*
G37*
G36*
X1018980D02*
X1014779D01*
X1015553Y447362D01*
X1017112Y445803D01*
X1018980Y445029D01*
Y449230D01*
D02*
G37*
G36*
X995720D02*
X991520D01*
Y445029D01*
X993388Y445803D01*
X994946Y447362D01*
X995720Y449230D01*
D02*
G37*
G36*
X988980D02*
X984779D01*
X985553Y447362D01*
X987112Y445803D01*
X988980Y445029D01*
Y449230D01*
D02*
G37*
G36*
X965470Y448730D02*
X961270D01*
Y444529D01*
X963138Y445303D01*
X964696Y446862D01*
X965470Y448730D01*
D02*
G37*
G36*
X958730D02*
X954529D01*
X955303Y446862D01*
X956862Y445303D01*
X958730Y444529D01*
Y448730D01*
D02*
G37*
G36*
X935470D02*
X931270D01*
Y444529D01*
X933138Y445303D01*
X934696Y446862D01*
X935470Y448730D01*
D02*
G37*
G36*
X928730D02*
X924529D01*
X925303Y446862D01*
X926862Y445303D01*
X928730Y444529D01*
Y448730D01*
D02*
G37*
%LPD*%
D118*
X580000Y1030000D02*
D03*
Y695250D02*
D03*
D119*
Y1080000D02*
D03*
Y745250D02*
D03*
D120*
X1238025Y462000D02*
D03*
X1288825D02*
D03*
X1161825D02*
D03*
X1187225D02*
D03*
X1212625D02*
D03*
X1263425D02*
D03*
X1339625D02*
D03*
X1314225D02*
D03*
X1299300Y879500D02*
D03*
X1273900D02*
D03*
X1248500D02*
D03*
X1370250Y651150D02*
D03*
Y625750D02*
D03*
Y600350D02*
D03*
D121*
X1365025Y462000D02*
D03*
X1223100Y879500D02*
D03*
D122*
X1370250Y737300D02*
D03*
D123*
Y762700D02*
D03*
Y788100D02*
D03*
Y813500D02*
D03*
Y838900D02*
D03*
D124*
Y574950D02*
D03*
D125*
X1158250Y590250D02*
D03*
X1148750D02*
D03*
X1086500Y628500D02*
D03*
X1228000Y593250D02*
D03*
X1276000Y665000D02*
D03*
Y641250D02*
D03*
X1080250Y450500D02*
D03*
X1320250Y690500D02*
D03*
X1035250Y780500D02*
D03*
X1020250Y510500D02*
D03*
X1080250D02*
D03*
X1095250Y480500D02*
D03*
Y840500D02*
D03*
X1005250Y540500D02*
D03*
X990250Y510500D02*
D03*
X1350250Y870500D02*
D03*
X1125250Y840500D02*
D03*
X1020250Y450500D02*
D03*
X1050250Y750500D02*
D03*
Y450500D02*
D03*
X1335250Y780500D02*
D03*
X1065250Y480500D02*
D03*
X1020250Y750500D02*
D03*
X1080250Y810500D02*
D03*
X1170250D02*
D03*
X1185250Y840500D02*
D03*
X1200250Y810500D02*
D03*
X1110250Y450500D02*
D03*
X1305250Y780500D02*
D03*
X1170250Y870500D02*
D03*
X1140250Y510500D02*
D03*
X1290250Y690500D02*
D03*
X1155250Y840500D02*
D03*
X1035250Y480500D02*
D03*
X1050250Y510500D02*
D03*
X1125250Y480500D02*
D03*
X990250Y450500D02*
D03*
X1005250Y480500D02*
D03*
X1035250Y540500D02*
D03*
X1110250Y510500D02*
D03*
X990000Y1020000D02*
D03*
X780000Y960000D02*
D03*
X660000Y840000D02*
D03*
X840000Y960000D02*
D03*
X630000Y780000D02*
D03*
X840000Y1080000D02*
D03*
X900000Y960000D02*
D03*
X1020000D02*
D03*
X960000Y840000D02*
D03*
X720000D02*
D03*
X1020000D02*
D03*
X960000Y750000D02*
D03*
Y690000D02*
D03*
Y630000D02*
D03*
Y510000D02*
D03*
Y450000D02*
D03*
X930000Y750000D02*
D03*
Y690000D02*
D03*
Y630000D02*
D03*
X945000Y600000D02*
D03*
X930000Y510000D02*
D03*
X945000Y480000D02*
D03*
X930000Y450000D02*
D03*
X605568Y1037250D02*
D03*
Y1029500D02*
D03*
X618704Y1021750D02*
D03*
Y1029500D02*
D03*
Y1037250D02*
D03*
X612136Y1021750D02*
D03*
Y1029500D02*
D03*
Y1037250D02*
D03*
X605568Y1021750D02*
D03*
X599000D02*
D03*
Y1029500D02*
D03*
Y1037250D02*
D03*
X1223750Y849750D02*
D03*
X961500Y800000D02*
D03*
X882000Y650250D02*
D03*
X771636Y508875D02*
D03*
Y502000D02*
D03*
Y515750D02*
D03*
X764750Y501750D02*
D03*
Y515750D02*
D03*
Y508750D02*
D03*
X771636Y719000D02*
D03*
Y725875D02*
D03*
Y732750D02*
D03*
X764750Y718750D02*
D03*
Y725750D02*
D03*
Y732750D02*
D03*
X880000Y875500D02*
D03*
X897500Y792000D02*
D03*
X957750Y559500D02*
D03*
X900500Y559750D02*
D03*
X1285500Y742500D02*
D03*
X1131000Y558750D02*
D03*
X1122000Y590250D02*
D03*
X1110500Y598750D02*
D03*
X1098750Y597750D02*
D03*
X1088250Y652000D02*
D03*
Y665000D02*
D03*
X1088500Y679250D02*
D03*
X1086500Y613250D02*
D03*
X1091250Y703250D02*
D03*
X1131250Y774000D02*
D03*
X1109000Y800000D02*
D03*
X1329500Y610500D02*
D03*
X1238500Y555250D02*
D03*
X1198000Y521750D02*
D03*
X1044000Y633000D02*
D03*
X1043812Y657000D02*
D03*
Y680250D02*
D03*
Y703250D02*
D03*
X1173500Y1099750D02*
D03*
X1080000Y891000D02*
D03*
X947500Y871000D02*
D03*
X988200Y891000D02*
D03*
X1119000Y939000D02*
D03*
X1188750Y1000000D02*
D03*
X1063500Y959250D02*
D03*
X999250Y1071500D02*
D03*
X1043250Y1078500D02*
D03*
X850000Y697000D02*
D03*
X849000Y495500D02*
D03*
X861250Y636500D02*
D03*
X851750Y820750D02*
D03*
X914750Y1114250D02*
D03*
X920750D02*
D03*
X642250Y922750D02*
D03*
Y916750D02*
D03*
X645750Y1074250D02*
D03*
X638750Y1040000D02*
D03*
Y1046000D02*
D03*
X737500Y991750D02*
D03*
X807500Y667500D02*
D03*
X1276000Y654500D02*
D03*
X787500Y567500D02*
D03*
X770000Y773000D02*
D03*
Y680000D02*
D03*
X1276000Y629750D02*
D03*
X1259500Y557500D02*
D03*
X1218000Y593250D02*
D03*
X1139500Y590250D02*
D03*
X1096250Y581500D02*
D03*
X1023000Y692250D02*
D03*
X1090750Y727500D02*
D03*
X1109000Y782250D02*
D03*
X1344500Y575250D02*
D03*
X1339750Y839000D02*
D03*
X1277500Y767500D02*
D03*
X1326250Y638750D02*
D03*
X1161500Y491500D02*
D03*
X1188500D02*
D03*
X1212500D02*
D03*
X1238750D02*
D03*
X1263000D02*
D03*
X1288750D02*
D03*
X1314500D02*
D03*
X1340000D02*
D03*
X1365250D02*
D03*
X988000Y806750D02*
D03*
X944500Y782250D02*
D03*
X960750Y579750D02*
D03*
X1097250Y527250D02*
D03*
X992000Y580000D02*
D03*
X808000Y773000D02*
D03*
X817500Y567500D02*
D03*
M02*
