G04*
G04 #@! TF.GenerationSoftware,Altium Limited,Altium Designer,24.2.2 (26)*
G04*
G04 Layer_Physical_Order=1*
G04 Layer_Color=255*
%FSLAX44Y44*%
%MOMM*%
G71*
G04*
G04 #@! TF.SameCoordinates,F3FA609E-1BF8-4CEC-B42F-6BA8E99BA353*
G04*
G04*
G04 #@! TF.FilePolarity,Positive*
G04*
G01*
G75*
%ADD10C,0.6000*%
%ADD13C,0.2540*%
%ADD19R,0.3200X1.2000*%
%ADD20R,1.2000X0.3200*%
%ADD21R,1.0000X1.0000*%
%ADD22R,1.2500X1.5000*%
%ADD23R,2.8300X0.9700*%
%ADD24R,0.9700X2.8300*%
G04:AMPARAMS|DCode=25|XSize=1.55mm|YSize=1mm|CornerRadius=0.125mm|HoleSize=0mm|Usage=FLASHONLY|Rotation=270.000|XOffset=0mm|YOffset=0mm|HoleType=Round|Shape=RoundedRectangle|*
%AMROUNDEDRECTD25*
21,1,1.5500,0.7500,0,0,270.0*
21,1,1.3000,1.0000,0,0,270.0*
1,1,0.2500,-0.3750,-0.6500*
1,1,0.2500,-0.3750,0.6500*
1,1,0.2500,0.3750,0.6500*
1,1,0.2500,0.3750,-0.6500*
%
%ADD25ROUNDEDRECTD25*%
%ADD26R,0.8000X0.8000*%
%ADD27R,0.5600X0.6000*%
%ADD28R,0.6000X0.5600*%
G04:AMPARAMS|DCode=29|XSize=1.97mm|YSize=0.6mm|CornerRadius=0.075mm|HoleSize=0mm|Usage=FLASHONLY|Rotation=180.000|XOffset=0mm|YOffset=0mm|HoleType=Round|Shape=RoundedRectangle|*
%AMROUNDEDRECTD29*
21,1,1.9700,0.4500,0,0,180.0*
21,1,1.8200,0.6000,0,0,180.0*
1,1,0.1500,-0.9100,0.2250*
1,1,0.1500,0.9100,0.2250*
1,1,0.1500,0.9100,-0.2250*
1,1,0.1500,-0.9100,-0.2250*
%
%ADD29ROUNDEDRECTD29*%
%ADD30R,2.7200X1.3000*%
%ADD31R,1.0000X0.9700*%
G04:AMPARAMS|DCode=32|XSize=1.23mm|YSize=0.6mm|CornerRadius=0.15mm|HoleSize=0mm|Usage=FLASHONLY|Rotation=270.000|XOffset=0mm|YOffset=0mm|HoleType=Round|Shape=RoundedRectangle|*
%AMROUNDEDRECTD32*
21,1,1.2300,0.3000,0,0,270.0*
21,1,0.9300,0.6000,0,0,270.0*
1,1,0.3000,-0.1500,-0.4650*
1,1,0.3000,-0.1500,0.4650*
1,1,0.3000,0.1500,0.4650*
1,1,0.3000,0.1500,-0.4650*
%
%ADD32ROUNDEDRECTD32*%
%ADD33R,2.2800X2.2800*%
%ADD34R,0.9500X0.9500*%
%ADD35R,0.9500X0.9500*%
%ADD36R,1.3500X1.0000*%
%ADD37R,1.0000X1.3500*%
%ADD38R,1.6000X2.8000*%
%ADD39R,0.8500X1.0000*%
G04:AMPARAMS|DCode=40|XSize=2.33mm|YSize=1.55mm|CornerRadius=0.1938mm|HoleSize=0mm|Usage=FLASHONLY|Rotation=270.000|XOffset=0mm|YOffset=0mm|HoleType=Round|Shape=RoundedRectangle|*
%AMROUNDEDRECTD40*
21,1,2.3300,1.1625,0,0,270.0*
21,1,1.9425,1.5500,0,0,270.0*
1,1,0.3875,-0.5813,-0.9712*
1,1,0.3875,-0.5813,0.9712*
1,1,0.3875,0.5813,0.9712*
1,1,0.3875,0.5813,-0.9712*
%
%ADD40ROUNDEDRECTD40*%
G04:AMPARAMS|DCode=41|XSize=1.37mm|YSize=2.72mm|CornerRadius=0.1713mm|HoleSize=0mm|Usage=FLASHONLY|Rotation=180.000|XOffset=0mm|YOffset=0mm|HoleType=Round|Shape=RoundedRectangle|*
%AMROUNDEDRECTD41*
21,1,1.3700,2.3775,0,0,180.0*
21,1,1.0275,2.7200,0,0,180.0*
1,1,0.3425,-0.5138,1.1888*
1,1,0.3425,0.5138,1.1888*
1,1,0.3425,0.5138,-1.1888*
1,1,0.3425,-0.5138,-1.1888*
%
%ADD41ROUNDEDRECTD41*%
G04:AMPARAMS|DCode=42|XSize=1.05mm|YSize=1.38mm|CornerRadius=0.1313mm|HoleSize=0mm|Usage=FLASHONLY|Rotation=180.000|XOffset=0mm|YOffset=0mm|HoleType=Round|Shape=RoundedRectangle|*
%AMROUNDEDRECTD42*
21,1,1.0500,1.1175,0,0,180.0*
21,1,0.7875,1.3800,0,0,180.0*
1,1,0.2625,-0.3938,0.5587*
1,1,0.2625,0.3938,0.5587*
1,1,0.2625,0.3938,-0.5587*
1,1,0.2625,-0.3938,-0.5587*
%
%ADD42ROUNDEDRECTD42*%
G04:AMPARAMS|DCode=43|XSize=1.05mm|YSize=1.38mm|CornerRadius=0.1313mm|HoleSize=0mm|Usage=FLASHONLY|Rotation=90.000|XOffset=0mm|YOffset=0mm|HoleType=Round|Shape=RoundedRectangle|*
%AMROUNDEDRECTD43*
21,1,1.0500,1.1175,0,0,90.0*
21,1,0.7875,1.3800,0,0,90.0*
1,1,0.2625,0.5587,0.3938*
1,1,0.2625,0.5587,-0.3938*
1,1,0.2625,-0.5587,-0.3938*
1,1,0.2625,-0.5587,0.3938*
%
%ADD43ROUNDEDRECTD43*%
%ADD44R,2.0000X4.1000*%
%ADD45R,4.1000X2.0000*%
G04:AMPARAMS|DCode=46|XSize=0.54mm|YSize=0.6mm|CornerRadius=0.0675mm|HoleSize=0mm|Usage=FLASHONLY|Rotation=0.000|XOffset=0mm|YOffset=0mm|HoleType=Round|Shape=RoundedRectangle|*
%AMROUNDEDRECTD46*
21,1,0.5400,0.4650,0,0,0.0*
21,1,0.4050,0.6000,0,0,0.0*
1,1,0.1350,0.2025,-0.2325*
1,1,0.1350,-0.2025,-0.2325*
1,1,0.1350,-0.2025,0.2325*
1,1,0.1350,0.2025,0.2325*
%
%ADD46ROUNDEDRECTD46*%
G04:AMPARAMS|DCode=47|XSize=0.54mm|YSize=0.6mm|CornerRadius=0.0675mm|HoleSize=0mm|Usage=FLASHONLY|Rotation=90.000|XOffset=0mm|YOffset=0mm|HoleType=Round|Shape=RoundedRectangle|*
%AMROUNDEDRECTD47*
21,1,0.5400,0.4650,0,0,90.0*
21,1,0.4050,0.6000,0,0,90.0*
1,1,0.1350,0.2325,0.2025*
1,1,0.1350,0.2325,-0.2025*
1,1,0.1350,-0.2325,-0.2025*
1,1,0.1350,-0.2325,0.2025*
%
%ADD47ROUNDEDRECTD47*%
G04:AMPARAMS|DCode=48|XSize=0.94mm|YSize=1.02mm|CornerRadius=0.1175mm|HoleSize=0mm|Usage=FLASHONLY|Rotation=0.000|XOffset=0mm|YOffset=0mm|HoleType=Round|Shape=RoundedRectangle|*
%AMROUNDEDRECTD48*
21,1,0.9400,0.7850,0,0,0.0*
21,1,0.7050,1.0200,0,0,0.0*
1,1,0.2350,0.3525,-0.3925*
1,1,0.2350,-0.3525,-0.3925*
1,1,0.2350,-0.3525,0.3925*
1,1,0.2350,0.3525,0.3925*
%
%ADD48ROUNDEDRECTD48*%
G04:AMPARAMS|DCode=49|XSize=0.87mm|YSize=0.93mm|CornerRadius=0.1088mm|HoleSize=0mm|Usage=FLASHONLY|Rotation=0.000|XOffset=0mm|YOffset=0mm|HoleType=Round|Shape=RoundedRectangle|*
%AMROUNDEDRECTD49*
21,1,0.8700,0.7125,0,0,0.0*
21,1,0.6525,0.9300,0,0,0.0*
1,1,0.2175,0.3263,-0.3563*
1,1,0.2175,-0.3263,-0.3563*
1,1,0.2175,-0.3263,0.3563*
1,1,0.2175,0.3263,0.3563*
%
%ADD49ROUNDEDRECTD49*%
G04:AMPARAMS|DCode=50|XSize=0.64mm|YSize=0.72mm|CornerRadius=0.08mm|HoleSize=0mm|Usage=FLASHONLY|Rotation=0.000|XOffset=0mm|YOffset=0mm|HoleType=Round|Shape=RoundedRectangle|*
%AMROUNDEDRECTD50*
21,1,0.6400,0.5600,0,0,0.0*
21,1,0.4800,0.7200,0,0,0.0*
1,1,0.1600,0.2400,-0.2800*
1,1,0.1600,-0.2400,-0.2800*
1,1,0.1600,-0.2400,0.2800*
1,1,0.1600,0.2400,0.2800*
%
%ADD50ROUNDEDRECTD50*%
G04:AMPARAMS|DCode=51|XSize=0.56mm|YSize=0.63mm|CornerRadius=0.07mm|HoleSize=0mm|Usage=FLASHONLY|Rotation=180.000|XOffset=0mm|YOffset=0mm|HoleType=Round|Shape=RoundedRectangle|*
%AMROUNDEDRECTD51*
21,1,0.5600,0.4900,0,0,180.0*
21,1,0.4200,0.6300,0,0,180.0*
1,1,0.1400,-0.2100,0.2450*
1,1,0.1400,0.2100,0.2450*
1,1,0.1400,0.2100,-0.2450*
1,1,0.1400,-0.2100,-0.2450*
%
%ADD51ROUNDEDRECTD51*%
G04:AMPARAMS|DCode=52|XSize=0.56mm|YSize=0.63mm|CornerRadius=0.07mm|HoleSize=0mm|Usage=FLASHONLY|Rotation=90.000|XOffset=0mm|YOffset=0mm|HoleType=Round|Shape=RoundedRectangle|*
%AMROUNDEDRECTD52*
21,1,0.5600,0.4900,0,0,90.0*
21,1,0.4200,0.6300,0,0,90.0*
1,1,0.1400,0.2450,0.2100*
1,1,0.1400,0.2450,-0.2100*
1,1,0.1400,-0.2450,-0.2100*
1,1,0.1400,-0.2450,0.2100*
%
%ADD52ROUNDEDRECTD52*%
G04:AMPARAMS|DCode=53|XSize=1.2mm|YSize=1.82mm|CornerRadius=0.15mm|HoleSize=0mm|Usage=FLASHONLY|Rotation=180.000|XOffset=0mm|YOffset=0mm|HoleType=Round|Shape=RoundedRectangle|*
%AMROUNDEDRECTD53*
21,1,1.2000,1.5200,0,0,180.0*
21,1,0.9000,1.8200,0,0,180.0*
1,1,0.3000,-0.4500,0.7600*
1,1,0.3000,0.4500,0.7600*
1,1,0.3000,0.4500,-0.7600*
1,1,0.3000,-0.4500,-0.7600*
%
%ADD53ROUNDEDRECTD53*%
G04:AMPARAMS|DCode=54|XSize=1.2mm|YSize=1.82mm|CornerRadius=0.15mm|HoleSize=0mm|Usage=FLASHONLY|Rotation=270.000|XOffset=0mm|YOffset=0mm|HoleType=Round|Shape=RoundedRectangle|*
%AMROUNDEDRECTD54*
21,1,1.2000,1.5200,0,0,270.0*
21,1,0.9000,1.8200,0,0,270.0*
1,1,0.3000,-0.7600,-0.4500*
1,1,0.3000,-0.7600,0.4500*
1,1,0.3000,0.7600,0.4500*
1,1,0.3000,0.7600,-0.4500*
%
%ADD54ROUNDEDRECTD54*%
%ADD103R,6.1000X5.6300*%
%ADD104R,5.6300X6.1000*%
%ADD105C,0.3000*%
%ADD106C,0.5000*%
%ADD107C,2.0000*%
%ADD108C,1.0000*%
%ADD109C,0.1524*%
%ADD110R,4.9750X2.3000*%
%ADD111R,7.0000X2.2000*%
%ADD112R,1.5000X2.6000*%
%ADD113R,2.6000X1.3750*%
%ADD114R,2.6000X1.2500*%
%ADD115R,5.9250X3.5250*%
%ADD116R,3.3750X1.7750*%
%ADD117R,2.0250X5.9858*%
%ADD118C,1.9500*%
%ADD119R,1.9500X1.9500*%
%ADD120C,1.6500*%
%ADD121R,1.6500X1.6500*%
%ADD122R,1.3980X1.3980*%
%ADD123C,1.3980*%
%ADD124R,1.6500X1.6500*%
%ADD125C,0.6000*%
G36*
X1175006Y1103825D02*
X1175054Y1103245D01*
X1175096Y1102987D01*
X1175150Y1102750D01*
X1175216Y1102536D01*
X1175294Y1102342D01*
X1175384Y1102171D01*
X1175486Y1102021D01*
X1175600Y1101892D01*
X1171400D01*
X1171514Y1102021D01*
X1171616Y1102171D01*
X1171706Y1102342D01*
X1171784Y1102536D01*
X1171850Y1102750D01*
X1171904Y1102987D01*
X1171946Y1103245D01*
X1171976Y1103524D01*
X1172000Y1104148D01*
X1175000D01*
X1175006Y1103825D01*
D02*
G37*
G36*
X1128530Y1105482D02*
X1128568Y1104920D01*
X1128593Y1104734D01*
X1128621Y1104613D01*
X1128653Y1104555D01*
X1128689Y1104561D01*
X1130621Y1102250D01*
X1130218Y1101817D01*
X1129858Y1101366D01*
X1129539Y1100898D01*
X1129264Y1100412D01*
X1129030Y1099909D01*
X1128839Y1099388D01*
X1128691Y1098850D01*
X1128585Y1098294D01*
X1128521Y1097720D01*
X1128500Y1097129D01*
X1125500Y1100750D01*
X1128500Y1107371D01*
X1128530Y1105482D01*
D02*
G37*
G36*
X1171358Y1097985D02*
X1175151Y1097245D01*
X1175013Y1097138D01*
X1174890Y1097006D01*
X1174781Y1096851D01*
X1174687Y1096672D01*
X1174607Y1096469D01*
X1174542Y1096242D01*
X1174491Y1095992D01*
X1174455Y1095717D01*
X1174433Y1095419D01*
X1174426Y1095097D01*
X1171426Y1095782D01*
X1171422Y1096109D01*
X1171362Y1096956D01*
X1171327Y1097194D01*
X1171231Y1097603D01*
X1171172Y1097774D01*
X1171153Y1097816D01*
X1171079Y1097866D01*
X1170908Y1097956D01*
X1170714Y1098034D01*
X1170500Y1098100D01*
X1170263Y1098154D01*
X1170005Y1098196D01*
X1169726Y1098226D01*
X1169102Y1098250D01*
Y1101250D01*
X1169425Y1101256D01*
X1170005Y1101304D01*
X1170263Y1101346D01*
X1170500Y1101400D01*
X1170714Y1101466D01*
X1170908Y1101544D01*
X1171079Y1101634D01*
X1171229Y1101736D01*
X1171358Y1101850D01*
Y1097985D01*
D02*
G37*
G36*
X648021Y1076236D02*
X648171Y1076134D01*
X648342Y1076044D01*
X648536Y1075966D01*
X648750Y1075900D01*
X648987Y1075846D01*
X649245Y1075804D01*
X649524Y1075774D01*
X650148Y1075750D01*
Y1072750D01*
X649825Y1072744D01*
X649245Y1072696D01*
X648987Y1072654D01*
X648750Y1072600D01*
X648536Y1072534D01*
X648342Y1072456D01*
X648171Y1072366D01*
X648021Y1072264D01*
X647892Y1072150D01*
Y1076350D01*
X648021Y1076236D01*
D02*
G37*
G36*
X1132750Y1069625D02*
X1129750Y1065125D01*
X1129723Y1065695D01*
X1129640Y1066205D01*
X1129502Y1066655D01*
X1129310Y1067045D01*
X1129125Y1067292D01*
X1128940Y1067045D01*
X1128747Y1066655D01*
X1128610Y1066205D01*
X1128528Y1065695D01*
X1128500Y1065125D01*
X1125500Y1069625D01*
X1128500Y1074125D01*
X1128528Y1073555D01*
X1128610Y1073045D01*
X1128747Y1072595D01*
X1128940Y1072205D01*
X1129125Y1071958D01*
X1129310Y1072205D01*
X1129502Y1072595D01*
X1129640Y1073045D01*
X1129723Y1073555D01*
X1129750Y1074125D01*
X1132750Y1069625D01*
D02*
G37*
G36*
X1005260Y1075389D02*
X1002432Y1072255D01*
X1002352Y1072065D01*
X1002294Y1071880D01*
X1002260Y1071701D01*
X1002250Y1071530D01*
X1002002Y1071778D01*
X1001750Y1071498D01*
X999248Y1074000D01*
X999356Y1074035D01*
X999526Y1074140D01*
X999591Y1074189D01*
X999280Y1074500D01*
X999451Y1074510D01*
X999630Y1074544D01*
X999815Y1074602D01*
X1000006Y1074683D01*
X1000205Y1074788D01*
X1000410Y1074917D01*
X1000576Y1075037D01*
X1003139Y1077510D01*
X1005260Y1075389D01*
D02*
G37*
G36*
X740217Y1072718D02*
X739804Y1071737D01*
X739440Y1070460D01*
X739124Y1068887D01*
X738857Y1067019D01*
X738468Y1062398D01*
X738250Y1053250D01*
X728250D01*
X728226Y1056595D01*
X727376Y1068887D01*
X727060Y1070460D01*
X726696Y1071737D01*
X726283Y1072718D01*
X725822Y1073405D01*
X740678D01*
X740217Y1072718D01*
D02*
G37*
G36*
X1089532Y1032632D02*
X1088899Y1033215D01*
X1088333Y1033632D01*
X1087833Y1033882D01*
X1087400Y1033965D01*
X1087033Y1033881D01*
X1086733Y1033631D01*
X1086500Y1033215D01*
X1086333Y1032631D01*
X1086233Y1031881D01*
X1086200Y1030965D01*
X1081200Y1034500D01*
X1081150Y1035450D01*
X1081000Y1036300D01*
X1080750Y1037050D01*
X1080400Y1037700D01*
X1079950Y1038250D01*
X1079400Y1038700D01*
X1078750Y1039050D01*
X1078000Y1039300D01*
X1077150Y1039450D01*
X1076200Y1039500D01*
X1083700Y1042000D01*
X1089532Y1032632D01*
D02*
G37*
G36*
X739006Y995825D02*
X739054Y995245D01*
X739096Y994987D01*
X739150Y994750D01*
X739216Y994536D01*
X739294Y994342D01*
X739384Y994171D01*
X739486Y994021D01*
X739600Y993892D01*
X735400D01*
X735514Y994021D01*
X735616Y994171D01*
X735706Y994342D01*
X735784Y994536D01*
X735850Y994750D01*
X735904Y994987D01*
X735946Y995245D01*
X735976Y995524D01*
X736000Y996148D01*
X739000D01*
X739006Y995825D01*
D02*
G37*
G36*
X923074Y973692D02*
X923285Y973215D01*
X923633Y972633D01*
X924118Y971945D01*
X925499Y970252D01*
X927426Y968137D01*
X929901Y965600D01*
X926379Y962079D01*
X926448Y961982D01*
X925792Y962623D01*
X924689Y963612D01*
X924241Y963960D01*
X923862Y964211D01*
X923552Y964364D01*
X923310Y964419D01*
X923138Y964377D01*
X923034Y964238D01*
X923000Y964000D01*
X918045Y968938D01*
X917902Y968966D01*
X917959Y969024D01*
X913000Y973965D01*
X918000D01*
X920026Y971091D01*
X922999Y974063D01*
X923074Y973692D01*
D02*
G37*
G36*
X812900Y957150D02*
X816135Y951758D01*
X822817Y958439D01*
X823006Y957465D01*
X823325Y956442D01*
X823775Y955372D01*
X824356Y954253D01*
X825068Y953087D01*
X825910Y951873D01*
X827986Y949300D01*
X829221Y947942D01*
X830585Y946535D01*
X823514Y939464D01*
X823505Y939474D01*
X822055Y940707D01*
X820527Y941583D01*
X818923Y942101D01*
X817243Y942260D01*
X815487Y942059D01*
X813656Y941501D01*
X811748Y940583D01*
X809765Y939307D01*
X807706Y937673D01*
X805571Y935679D01*
X791429Y949821D01*
X793608Y952190D01*
X795558Y954709D01*
X797279Y957377D01*
X798770Y960196D01*
X800032Y963164D01*
X801065Y966282D01*
X801868Y969549D01*
X802441Y972966D01*
X802785Y976533D01*
X802900Y980250D01*
X812900Y957150D01*
D02*
G37*
G36*
X1119545Y936050D02*
X1119402Y936014D01*
X1119249Y935956D01*
X1119086Y935878D01*
X1118913Y935777D01*
X1118729Y935656D01*
X1118332Y935349D01*
X1118119Y935163D01*
X1117661Y934728D01*
X1115055Y936364D01*
X1115277Y936597D01*
X1115641Y937043D01*
X1115783Y937256D01*
X1115897Y937463D01*
X1115984Y937663D01*
X1116044Y937856D01*
X1116077Y938043D01*
X1116083Y938223D01*
X1116061Y938397D01*
X1119545Y936050D01*
D02*
G37*
G36*
X1076780Y894525D02*
X1076870Y894100D01*
X1077020Y893725D01*
X1077230Y893400D01*
X1077500Y893125D01*
X1077725Y892971D01*
X1077802Y893042D01*
Y892919D01*
X1077830Y892900D01*
X1078220Y892725D01*
X1078670Y892600D01*
X1079180Y892525D01*
X1079750Y892500D01*
Y889500D01*
X1079180Y889475D01*
X1078670Y889400D01*
X1078220Y889275D01*
X1077830Y889100D01*
X1077802Y889081D01*
Y888958D01*
X1077725Y889028D01*
X1077500Y888875D01*
X1077230Y888600D01*
X1077020Y888275D01*
X1076870Y887900D01*
X1076780Y887475D01*
X1076750Y887000D01*
X1073750Y891000D01*
X1076750Y895000D01*
X1076780Y894525D01*
D02*
G37*
G36*
X994250Y891000D02*
X991250Y886500D01*
X991220Y887070D01*
X991130Y887580D01*
X990980Y888030D01*
X990770Y888420D01*
X990500Y888750D01*
X990170Y889020D01*
X989780Y889230D01*
X989330Y889380D01*
X988820Y889470D01*
X988250Y889500D01*
Y892500D01*
X988820Y892530D01*
X989330Y892620D01*
X989780Y892770D01*
X990170Y892980D01*
X990500Y893250D01*
X990770Y893580D01*
X990980Y893970D01*
X991130Y894420D01*
X991220Y894930D01*
X991250Y895500D01*
X994250Y891000D01*
D02*
G37*
G36*
X881506Y879575D02*
X881554Y878995D01*
X881596Y878737D01*
X881650Y878500D01*
X881716Y878286D01*
X881794Y878092D01*
X881884Y877921D01*
X881986Y877771D01*
X882100Y877643D01*
X877900Y877642D01*
X878014Y877771D01*
X878116Y877921D01*
X878206Y878092D01*
X878284Y878286D01*
X878350Y878500D01*
X878404Y878737D01*
X878446Y878995D01*
X878476Y879274D01*
X878500Y879898D01*
X881500Y879898D01*
X881506Y879575D01*
D02*
G37*
G36*
X1301243Y877408D02*
X1301197Y877213D01*
X1301157Y876924D01*
X1301092Y876065D01*
X1301025Y872275D01*
X1298025D01*
X1297756Y877508D01*
X1301294D01*
X1301243Y877408D01*
D02*
G37*
G36*
X882081Y873317D02*
X881985Y873165D01*
X881901Y872991D01*
X881828Y872797D01*
X881766Y872581D01*
X881716Y872343D01*
X881676Y872084D01*
X881631Y871502D01*
X881626Y871179D01*
X878626Y871033D01*
X878619Y871356D01*
X878569Y871935D01*
X878524Y872191D01*
X878467Y872426D01*
X878397Y872639D01*
X878315Y872830D01*
X878220Y872999D01*
X878112Y873146D01*
X877992Y873271D01*
X882188Y873447D01*
X882081Y873317D01*
D02*
G37*
G36*
X949647Y873118D02*
X949800Y873025D01*
X949974Y872943D01*
X950169Y872872D01*
X950385Y872812D01*
X950623Y872763D01*
X950883Y872724D01*
X951465Y872681D01*
X951789Y872675D01*
X951992Y869675D01*
X951669Y869669D01*
X951091Y869617D01*
X950835Y869572D01*
X950601Y869513D01*
X950389Y869442D01*
X950199Y869358D01*
X950031Y869261D01*
X949885Y869151D01*
X949761Y869029D01*
X949516Y873221D01*
X949647Y873118D01*
D02*
G37*
G36*
X1301294Y849242D02*
X1297756D01*
X1297807Y849342D01*
X1297853Y849537D01*
X1297893Y849826D01*
X1297958Y850685D01*
X1298025Y854475D01*
X1301025D01*
X1301294Y849242D01*
D02*
G37*
G36*
X1116800Y856050D02*
X1116950Y855200D01*
X1117200Y854450D01*
X1117550Y853800D01*
X1118000Y853250D01*
X1118550Y852800D01*
X1119200Y852450D01*
X1119950Y852200D01*
X1120800Y852050D01*
X1121750Y852000D01*
X1114250Y847000D01*
X1106750Y852000D01*
X1107700Y852050D01*
X1108550Y852200D01*
X1109300Y852450D01*
X1109950Y852800D01*
X1110500Y853250D01*
X1110950Y853800D01*
X1111300Y854450D01*
X1111550Y855200D01*
X1111700Y856050D01*
X1111750Y857000D01*
X1116750D01*
X1116800Y856050D01*
D02*
G37*
G36*
X1082535Y847000D02*
X1081550Y846965D01*
X1080594Y846859D01*
X1079667Y846682D01*
X1078770Y846434D01*
X1077902Y846116D01*
X1077063Y845727D01*
X1076253Y845268D01*
X1075473Y844737D01*
X1074722Y844136D01*
X1074000Y843465D01*
X1066929D01*
X1067563Y844136D01*
X1068050Y844737D01*
X1068391Y845268D01*
X1068586Y845727D01*
X1068634Y846116D01*
X1068536Y846434D01*
X1068291Y846682D01*
X1067900Y846859D01*
X1067363Y846965D01*
X1066679Y847000D01*
X1076500Y852000D01*
X1082535Y847000D01*
D02*
G37*
G36*
X1342054Y840947D02*
X1342203Y840843D01*
X1342374Y840751D01*
X1342566Y840671D01*
X1342780Y840603D01*
X1343016Y840548D01*
X1343274Y840505D01*
X1343553Y840474D01*
X1344176Y840450D01*
X1344118Y837450D01*
X1343796Y837444D01*
X1343214Y837397D01*
X1342956Y837356D01*
X1342719Y837304D01*
X1342504Y837239D01*
X1342310Y837163D01*
X1342137Y837075D01*
X1341987Y836976D01*
X1341857Y836865D01*
X1341927Y841064D01*
X1342054Y840947D01*
D02*
G37*
G36*
X989506Y810825D02*
X989554Y810245D01*
X989596Y809987D01*
X989650Y809750D01*
X989716Y809536D01*
X989794Y809342D01*
X989884Y809171D01*
X989986Y809021D01*
X990100Y808892D01*
X986062D01*
X985658Y804875D01*
X985539Y805003D01*
X985397Y805118D01*
X985232Y805219D01*
X985045Y805307D01*
X984836Y805381D01*
X984604Y805442D01*
X984349Y805489D01*
X984072Y805523D01*
X983773Y805543D01*
X983450Y805550D01*
X983800Y808550D01*
X984124Y808555D01*
X984708Y808595D01*
X984968Y808631D01*
X985207Y808676D01*
X985424Y808731D01*
X985620Y808797D01*
X985794Y808872D01*
X985947Y808958D01*
X985979Y808981D01*
X986014Y809021D01*
X986116Y809171D01*
X986206Y809342D01*
X986284Y809536D01*
X986350Y809750D01*
X986404Y809987D01*
X986446Y810245D01*
X986476Y810524D01*
X986500Y811148D01*
X989500D01*
X989506Y810825D01*
D02*
G37*
G36*
X1111331Y801916D02*
X1111479Y801810D01*
X1111649Y801716D01*
X1111840Y801635D01*
X1112054Y801566D01*
X1112289Y801510D01*
X1112546Y801466D01*
X1112825Y801435D01*
X1113448Y801410D01*
X1113344Y798410D01*
X1113021Y798404D01*
X1112439Y798359D01*
X1112180Y798318D01*
X1111943Y798267D01*
X1111727Y798204D01*
X1111533Y798129D01*
X1111360Y798043D01*
X1111208Y797946D01*
X1111078Y797837D01*
X1111205Y802035D01*
X1111331Y801916D01*
D02*
G37*
G36*
X900486Y792402D02*
X900544Y792249D01*
X900622Y792086D01*
X900723Y791913D01*
X900844Y791729D01*
X901151Y791332D01*
X901337Y791119D01*
X901772Y790661D01*
X900136Y788055D01*
X899903Y788277D01*
X899457Y788642D01*
X899243Y788783D01*
X899037Y788897D01*
X898837Y788984D01*
X898644Y789044D01*
X898457Y789077D01*
X898277Y789083D01*
X898103Y789061D01*
X900450Y792544D01*
X900486Y792402D01*
D02*
G37*
G36*
X946001Y786648D02*
X946007Y786325D01*
X946055Y785744D01*
X946096Y785486D01*
X946151Y785250D01*
X946217Y785035D01*
X946294Y784842D01*
X946385Y784670D01*
X946486Y784520D01*
X946600Y784392D01*
X942400Y784393D01*
X942514Y784521D01*
X942617Y784671D01*
X942707Y784843D01*
X942785Y785036D01*
X942850Y785251D01*
X942905Y785487D01*
X942947Y785745D01*
X942977Y786025D01*
X943001Y786648D01*
X946001Y786648D01*
D02*
G37*
G36*
X1112966Y784845D02*
X1112743Y784612D01*
X1112378Y784166D01*
X1112236Y783952D01*
X1112121Y783746D01*
X1112032Y783545D01*
X1111971Y783352D01*
X1111936Y783165D01*
X1111928Y782984D01*
X1111947Y782810D01*
X1108499Y785208D01*
X1108645Y785243D01*
X1108801Y785299D01*
X1108967Y785376D01*
X1109143Y785475D01*
X1109328Y785596D01*
X1109522Y785738D01*
X1109941Y786086D01*
X1110399Y786520D01*
X1112966Y784845D01*
D02*
G37*
G36*
X1110986Y779979D02*
X1110884Y779829D01*
X1110794Y779658D01*
X1110716Y779464D01*
X1110650Y779250D01*
X1110596Y779013D01*
X1110554Y778755D01*
X1110524Y778476D01*
X1110500Y777852D01*
X1107500D01*
X1107494Y778175D01*
X1107446Y778755D01*
X1107404Y779013D01*
X1107350Y779250D01*
X1107284Y779464D01*
X1107206Y779658D01*
X1107116Y779829D01*
X1107014Y779979D01*
X1106900Y780108D01*
X1111100D01*
X1110986Y779979D01*
D02*
G37*
G36*
X799041Y789154D02*
X800384Y788355D01*
X801973Y787651D01*
X803809Y787040D01*
X805891Y786524D01*
X808220Y786101D01*
X810796Y785773D01*
X816686Y785397D01*
X820001Y785350D01*
Y780350D01*
X816686Y780303D01*
X808220Y779599D01*
X805891Y779176D01*
X803809Y778660D01*
X801973Y778049D01*
X800384Y777345D01*
X799041Y776546D01*
X797944Y775654D01*
Y790046D01*
X799041Y789154D01*
D02*
G37*
G36*
X809827Y775396D02*
X809976Y775328D01*
X810147Y775269D01*
X810341Y775217D01*
X810556Y775173D01*
X811054Y775110D01*
X811336Y775090D01*
X811968Y775074D01*
X812654Y772074D01*
X812331Y772067D01*
X811758Y772009D01*
X811508Y771958D01*
X811281Y771893D01*
X811078Y771813D01*
X810899Y771719D01*
X810744Y771610D01*
X810612Y771487D01*
X810505Y771349D01*
X809701Y775471D01*
X809827Y775396D01*
D02*
G37*
G36*
X767858Y770900D02*
X767729Y771014D01*
X767579Y771116D01*
X767408Y771206D01*
X767214Y771284D01*
X767000Y771350D01*
X766763Y771404D01*
X766505Y771446D01*
X766226Y771476D01*
X765602Y771500D01*
Y774500D01*
X765925Y774506D01*
X766505Y774554D01*
X766763Y774596D01*
X767000Y774650D01*
X767214Y774716D01*
X767408Y774794D01*
X767579Y774884D01*
X767729Y774986D01*
X767858Y775100D01*
Y770900D01*
D02*
G37*
G36*
X1131154Y771002D02*
X1130982Y770995D01*
X1130802Y770964D01*
X1130616Y770909D01*
X1130424Y770830D01*
X1130224Y770727D01*
X1130018Y770600D01*
X1129806Y770449D01*
X1129587Y770273D01*
X1129128Y769850D01*
X1127061Y772025D01*
X1127285Y772257D01*
X1127663Y772701D01*
X1127817Y772913D01*
X1127948Y773117D01*
X1128055Y773315D01*
X1128139Y773505D01*
X1128199Y773689D01*
X1128237Y773866D01*
X1128250Y774035D01*
X1131154Y771002D01*
D02*
G37*
G36*
X1279360Y765146D02*
X1279230Y765027D01*
X1279115Y764886D01*
X1279013Y764722D01*
X1278925Y764536D01*
X1278850Y764326D01*
X1278789Y764095D01*
X1278741Y763840D01*
X1278707Y763564D01*
X1278687Y763264D01*
X1278680Y762942D01*
X1275680Y763315D01*
X1275675Y763640D01*
X1275635Y764224D01*
X1275601Y764484D01*
X1275501Y764940D01*
X1275437Y765135D01*
X1275362Y765310D01*
X1275278Y765462D01*
X1275183Y765594D01*
X1279360Y765146D01*
D02*
G37*
G36*
X1287006Y746575D02*
X1287054Y745995D01*
X1287096Y745737D01*
X1287150Y745500D01*
X1287216Y745286D01*
X1287294Y745092D01*
X1287384Y744921D01*
X1287486Y744771D01*
X1287600Y744642D01*
X1283400D01*
X1283514Y744771D01*
X1283616Y744921D01*
X1283706Y745092D01*
X1283784Y745286D01*
X1283850Y745500D01*
X1283904Y745737D01*
X1283946Y745995D01*
X1283976Y746274D01*
X1284000Y746898D01*
X1287000D01*
X1287006Y746575D01*
D02*
G37*
G36*
X1283358Y740400D02*
X1283229Y740514D01*
X1283079Y740616D01*
X1282908Y740706D01*
X1282714Y740784D01*
X1282500Y740850D01*
X1282263Y740904D01*
X1282005Y740946D01*
X1281726Y740976D01*
X1281102Y741000D01*
Y744000D01*
X1281425Y744006D01*
X1282005Y744054D01*
X1282263Y744096D01*
X1282500Y744150D01*
X1282714Y744216D01*
X1282908Y744294D01*
X1283079Y744384D01*
X1283229Y744486D01*
X1283358Y744600D01*
Y740400D01*
D02*
G37*
G36*
X1287498Y740239D02*
X1287396Y740089D01*
X1287307Y739917D01*
X1287229Y739724D01*
X1287164Y739509D01*
X1287110Y739272D01*
X1287069Y739014D01*
X1287039Y738735D01*
X1287015Y738111D01*
X1284015Y738093D01*
X1284009Y738416D01*
X1283961Y738997D01*
X1283918Y739254D01*
X1283864Y739491D01*
X1283797Y739705D01*
X1283719Y739898D01*
X1283628Y740069D01*
X1283526Y740219D01*
X1283411Y740347D01*
X1287611Y740368D01*
X1287498Y740239D01*
D02*
G37*
G36*
X799117Y746231D02*
X800437Y745453D01*
X802026Y744767D01*
X803884Y744172D01*
X806011Y743669D01*
X808407Y743257D01*
X814007Y742708D01*
X817210Y742571D01*
X820683Y742525D01*
Y737525D01*
X817210Y737479D01*
X808407Y736793D01*
X806011Y736381D01*
X803884Y735878D01*
X802026Y735283D01*
X800437Y734597D01*
X799117Y733819D01*
X798067Y732950D01*
Y747101D01*
X799117Y746231D01*
D02*
G37*
G36*
X1063200Y730917D02*
X1063127Y730980D01*
X1063053Y731037D01*
X1062977Y731087D01*
X1062900Y731130D01*
X1062821Y731167D01*
X1062740Y731197D01*
X1062657Y731220D01*
X1062573Y731237D01*
X1062487Y731247D01*
X1062400Y731250D01*
Y734250D01*
X1062487Y734253D01*
X1062573Y734263D01*
X1062657Y734280D01*
X1062740Y734303D01*
X1062821Y734333D01*
X1062900Y734370D01*
X1062977Y734413D01*
X1063053Y734463D01*
X1063127Y734520D01*
X1063200Y734583D01*
Y730917D01*
D02*
G37*
G36*
X1089863Y725358D02*
X1092850D01*
X1092736Y725229D01*
X1092634Y725079D01*
X1092544Y724908D01*
X1092466Y724714D01*
X1092400Y724500D01*
X1092346Y724263D01*
X1092304Y724005D01*
X1092274Y723726D01*
X1092250Y723102D01*
X1089250D01*
X1089244Y723425D01*
X1089213Y723797D01*
X1089159Y723754D01*
X1088701Y723329D01*
X1086579Y725451D01*
X1086803Y725683D01*
X1087180Y726128D01*
X1087333Y726340D01*
X1087462Y726545D01*
X1087567Y726744D01*
X1087648Y726935D01*
X1087706Y727120D01*
X1087740Y727299D01*
X1087750Y727470D01*
X1089863Y725358D01*
D02*
G37*
G36*
X1046032Y705292D02*
X1046183Y705194D01*
X1046356Y705107D01*
X1046550Y705032D01*
X1046765Y704969D01*
X1047003Y704917D01*
X1047261Y704876D01*
X1047541Y704847D01*
X1048166Y704824D01*
X1048251Y701824D01*
X1047929Y701818D01*
X1047349Y701768D01*
X1047092Y701725D01*
X1046856Y701669D01*
X1046643Y701601D01*
X1046451Y701520D01*
X1046280Y701427D01*
X1046132Y701321D01*
X1046005Y701204D01*
X1045902Y705402D01*
X1046032Y705292D01*
D02*
G37*
G36*
X1094236Y703652D02*
X1094294Y703499D01*
X1094372Y703336D01*
X1094473Y703163D01*
X1094594Y702979D01*
X1094901Y702582D01*
X1095087Y702369D01*
X1095522Y701911D01*
X1093886Y699305D01*
X1093653Y699527D01*
X1093207Y699892D01*
X1092993Y700033D01*
X1092787Y700147D01*
X1092587Y700234D01*
X1092394Y700294D01*
X1092207Y700327D01*
X1092027Y700333D01*
X1091853Y700311D01*
X1094200Y703795D01*
X1094236Y703652D01*
D02*
G37*
G36*
X1024381Y696394D02*
X1024432Y695815D01*
X1024476Y695558D01*
X1024533Y695323D01*
X1024603Y695111D01*
X1024686Y694920D01*
X1024781Y694751D01*
X1024888Y694603D01*
X1025009Y694478D01*
X1020813Y694303D01*
X1020919Y694434D01*
X1021015Y694585D01*
X1021099Y694759D01*
X1021172Y694954D01*
X1021234Y695170D01*
X1021285Y695407D01*
X1021324Y695666D01*
X1021369Y696248D01*
X1021375Y696572D01*
X1024375Y696716D01*
X1024381Y696394D01*
D02*
G37*
G36*
X1046083Y682236D02*
X1046233Y682134D01*
X1046404Y682044D01*
X1046597Y681966D01*
X1046812Y681900D01*
X1047048Y681846D01*
X1047307Y681804D01*
X1047586Y681774D01*
X1048210Y681750D01*
Y678750D01*
X1047887Y678744D01*
X1047307Y678696D01*
X1047048Y678654D01*
X1046812Y678600D01*
X1046597Y678534D01*
X1046404Y678456D01*
X1046233Y678366D01*
X1046083Y678264D01*
X1045954Y678150D01*
Y682350D01*
X1046083Y682236D01*
D02*
G37*
G36*
X1090666Y681349D02*
X1090818Y681255D01*
X1090991Y681172D01*
X1091186Y681100D01*
X1091403Y681039D01*
X1091641Y680989D01*
X1091900Y680950D01*
X1092482Y680906D01*
X1092805Y680900D01*
X1092979Y677900D01*
X1092657Y677894D01*
X1092078Y677842D01*
X1091822Y677798D01*
X1091587Y677740D01*
X1091375Y677670D01*
X1091184Y677586D01*
X1091016Y677490D01*
X1090869Y677381D01*
X1090745Y677260D01*
X1090535Y681454D01*
X1090666Y681349D01*
D02*
G37*
G36*
X1086799Y676779D02*
X1086673Y676854D01*
X1086524Y676922D01*
X1086353Y676981D01*
X1086159Y677033D01*
X1085944Y677077D01*
X1085446Y677140D01*
X1085164Y677160D01*
X1084532Y677176D01*
X1083847Y680176D01*
X1084169Y680183D01*
X1084742Y680241D01*
X1084992Y680292D01*
X1085219Y680357D01*
X1085422Y680437D01*
X1085601Y680531D01*
X1085756Y680640D01*
X1085888Y680763D01*
X1085995Y680901D01*
X1086799Y676779D01*
D02*
G37*
G36*
X1086108Y662900D02*
X1085979Y663014D01*
X1085829Y663116D01*
X1085658Y663206D01*
X1085464Y663284D01*
X1085250Y663350D01*
X1085013Y663404D01*
X1084755Y663446D01*
X1084476Y663476D01*
X1083852Y663500D01*
Y666500D01*
X1084175Y666506D01*
X1084755Y666554D01*
X1085013Y666596D01*
X1085250Y666650D01*
X1085464Y666716D01*
X1085658Y666794D01*
X1085829Y666884D01*
X1085979Y666986D01*
X1086108Y667100D01*
Y662900D01*
D02*
G37*
G36*
X1076500Y658250D02*
Y656750D01*
X1072879Y659750D01*
X1073470Y659771D01*
X1074044Y659835D01*
X1074600Y659941D01*
X1075138Y660089D01*
X1075659Y660280D01*
X1076162Y660514D01*
X1076648Y660789D01*
X1077116Y661108D01*
X1077567Y661468D01*
X1078000Y661871D01*
X1076500Y658250D01*
D02*
G37*
G36*
X1046385Y658578D02*
X1046520Y658457D01*
X1046678Y658350D01*
X1046859Y658257D01*
X1047064Y658178D01*
X1047292Y658114D01*
X1047544Y658064D01*
X1047819Y658029D01*
X1048118Y658007D01*
X1048440Y658000D01*
X1047848Y655000D01*
X1047522Y654996D01*
X1046676Y654932D01*
X1046437Y654893D01*
X1046221Y654846D01*
X1046026Y654790D01*
X1045854Y654726D01*
X1045703Y654654D01*
X1045574Y654572D01*
X1046274Y658714D01*
X1046385Y658578D01*
D02*
G37*
G36*
X881970Y647250D02*
X881799Y647240D01*
X881620Y647206D01*
X881435Y647148D01*
X881244Y647067D01*
X881045Y646962D01*
X880840Y646833D01*
X880628Y646680D01*
X880409Y646504D01*
X879951Y646079D01*
X877829Y648201D01*
X878053Y648433D01*
X878430Y648878D01*
X878583Y649090D01*
X878712Y649295D01*
X878817Y649494D01*
X878898Y649685D01*
X878956Y649870D01*
X878990Y650049D01*
X879000Y650220D01*
X881970Y647250D01*
D02*
G37*
G36*
X1327756Y642825D02*
X1327804Y642245D01*
X1327846Y641987D01*
X1327900Y641750D01*
X1327966Y641536D01*
X1328044Y641342D01*
X1328134Y641171D01*
X1328236Y641021D01*
X1328350Y640892D01*
X1324150D01*
X1324264Y641021D01*
X1324366Y641171D01*
X1324456Y641342D01*
X1324534Y641536D01*
X1324600Y641750D01*
X1324654Y641987D01*
X1324696Y642245D01*
X1324726Y642524D01*
X1324750Y643148D01*
X1327750D01*
X1327756Y642825D01*
D02*
G37*
G36*
X1081530Y643430D02*
X1081620Y642920D01*
X1081770Y642470D01*
X1081980Y642080D01*
X1082250Y641750D01*
X1082580Y641480D01*
X1082970Y641270D01*
X1083420Y641120D01*
X1083930Y641030D01*
X1084500Y641000D01*
Y638000D01*
X1083930Y637970D01*
X1083420Y637880D01*
X1082970Y637730D01*
X1082580Y637520D01*
X1082250Y637250D01*
X1081980Y636920D01*
X1081770Y636530D01*
X1081620Y636080D01*
X1081530Y635570D01*
X1081500Y635000D01*
X1078500Y639500D01*
X1081500Y644000D01*
X1081530Y643430D01*
D02*
G37*
G36*
X1042183Y636947D02*
X1042628Y636570D01*
X1042840Y636417D01*
X1043045Y636288D01*
X1043244Y636183D01*
X1043435Y636102D01*
X1043620Y636044D01*
X1043799Y636010D01*
X1043970Y636000D01*
X1041000Y633030D01*
X1040990Y633201D01*
X1040956Y633380D01*
X1040898Y633565D01*
X1040817Y633756D01*
X1040712Y633955D01*
X1040583Y634160D01*
X1040430Y634372D01*
X1040254Y634591D01*
X1039829Y635049D01*
X1041951Y637171D01*
X1042183Y636947D01*
D02*
G37*
G36*
X1046271Y634986D02*
X1046421Y634884D01*
X1046592Y634794D01*
X1046786Y634716D01*
X1047000Y634650D01*
X1047237Y634596D01*
X1047495Y634554D01*
X1047774Y634524D01*
X1048398Y634500D01*
Y631500D01*
X1048075Y631494D01*
X1047495Y631446D01*
X1047237Y631404D01*
X1047000Y631350D01*
X1046786Y631284D01*
X1046592Y631206D01*
X1046421Y631116D01*
X1046271Y631014D01*
X1046142Y630900D01*
Y635100D01*
X1046271Y634986D01*
D02*
G37*
G36*
X1090671Y630549D02*
X1090447Y630317D01*
X1090070Y629872D01*
X1089917Y629660D01*
X1089788Y629455D01*
X1089683Y629256D01*
X1089602Y629065D01*
X1089544Y628880D01*
X1089510Y628701D01*
X1089500Y628530D01*
X1086530Y631500D01*
X1086701Y631510D01*
X1086880Y631544D01*
X1087065Y631602D01*
X1087256Y631683D01*
X1087455Y631788D01*
X1087660Y631917D01*
X1087872Y632070D01*
X1088091Y632246D01*
X1088549Y632671D01*
X1090671Y630549D01*
D02*
G37*
G36*
X1090770Y614649D02*
X1090542Y614415D01*
X1089988Y613773D01*
X1089846Y613578D01*
X1089725Y613393D01*
X1089626Y613217D01*
X1089549Y613051D01*
X1089493Y612896D01*
X1089458Y612749D01*
X1087060Y616197D01*
X1087234Y616178D01*
X1087414Y616186D01*
X1087602Y616221D01*
X1087795Y616282D01*
X1087996Y616371D01*
X1088202Y616486D01*
X1088416Y616628D01*
X1088635Y616797D01*
X1088862Y616993D01*
X1089095Y617216D01*
X1090770Y614649D01*
D02*
G37*
G36*
X1328404Y614531D02*
X1329568Y613512D01*
X1329617Y613498D01*
X1326678Y611518D01*
X1326692Y611598D01*
X1326680Y611694D01*
X1326644Y611804D01*
X1326583Y611930D01*
X1326496Y612071D01*
X1326385Y612226D01*
X1326249Y612397D01*
X1325901Y612785D01*
X1325689Y613001D01*
X1328161Y614772D01*
X1328404Y614531D01*
D02*
G37*
G36*
X1114670Y600799D02*
X1114447Y600567D01*
X1114070Y600122D01*
X1113917Y599910D01*
X1113788Y599705D01*
X1113683Y599506D01*
X1113602Y599315D01*
X1113544Y599130D01*
X1113510Y598951D01*
X1113500Y598780D01*
X1110530Y601750D01*
X1110701Y601760D01*
X1110880Y601794D01*
X1111065Y601852D01*
X1111256Y601933D01*
X1111455Y602038D01*
X1111660Y602167D01*
X1111872Y602320D01*
X1112091Y602496D01*
X1112549Y602921D01*
X1114670Y600799D01*
D02*
G37*
G36*
X1124074Y594218D02*
X1124078Y593891D01*
X1124138Y593044D01*
X1124173Y592806D01*
X1124269Y592397D01*
X1124328Y592226D01*
X1124396Y592077D01*
X1124471Y591951D01*
X1120349Y592755D01*
X1120487Y592862D01*
X1120610Y592994D01*
X1120719Y593149D01*
X1120813Y593328D01*
X1120893Y593531D01*
X1120958Y593758D01*
X1121009Y594008D01*
X1121045Y594283D01*
X1121067Y594581D01*
X1121074Y594903D01*
X1124074Y594218D01*
D02*
G37*
G36*
X1138395Y594294D02*
X1139036Y593737D01*
X1139229Y593594D01*
X1139586Y593372D01*
X1139749Y593294D01*
X1139902Y593236D01*
X1140045Y593200D01*
X1136561Y590853D01*
X1136583Y591027D01*
X1136577Y591207D01*
X1136544Y591394D01*
X1136484Y591587D01*
X1136397Y591787D01*
X1136283Y591993D01*
X1136142Y592207D01*
X1135973Y592426D01*
X1135777Y592653D01*
X1135555Y592886D01*
X1138161Y594522D01*
X1138395Y594294D01*
D02*
G37*
G36*
X993506Y584075D02*
X993554Y583495D01*
X993596Y583237D01*
X993650Y583000D01*
X993716Y582786D01*
X993794Y582593D01*
X993884Y582421D01*
X993986Y582271D01*
X994100Y582142D01*
X989900D01*
X990014Y582271D01*
X990116Y582421D01*
X990206Y582593D01*
X990284Y582786D01*
X990350Y583000D01*
X990404Y583237D01*
X990446Y583495D01*
X990476Y583774D01*
X990500Y584398D01*
X993500D01*
X993506Y584075D01*
D02*
G37*
G36*
X1094433Y585447D02*
X1094878Y585070D01*
X1095090Y584917D01*
X1095295Y584788D01*
X1095494Y584683D01*
X1095685Y584602D01*
X1095870Y584544D01*
X1096049Y584510D01*
X1096220Y584500D01*
X1093250Y581530D01*
X1093240Y581701D01*
X1093206Y581880D01*
X1093148Y582065D01*
X1093067Y582256D01*
X1092962Y582455D01*
X1092833Y582660D01*
X1092680Y582872D01*
X1092504Y583091D01*
X1092079Y583549D01*
X1094201Y585671D01*
X1094433Y585447D01*
D02*
G37*
G36*
X1098521Y583486D02*
X1098671Y583384D01*
X1098842Y583294D01*
X1099036Y583216D01*
X1099250Y583150D01*
X1099487Y583096D01*
X1099745Y583054D01*
X1100024Y583024D01*
X1100648Y583000D01*
Y580000D01*
X1100325Y579994D01*
X1099745Y579946D01*
X1099487Y579904D01*
X1099250Y579850D01*
X1099036Y579784D01*
X1098842Y579706D01*
X1098671Y579616D01*
X1098521Y579514D01*
X1098392Y579400D01*
Y583600D01*
X1098521Y583486D01*
D02*
G37*
G36*
X990002Y577762D02*
X989871Y577864D01*
X989718Y577956D01*
X989544Y578036D01*
X989349Y578106D01*
X989132Y578166D01*
X988894Y578214D01*
X988635Y578252D01*
X988052Y578295D01*
X987728Y578300D01*
X987496Y581300D01*
X987819Y581306D01*
X988397Y581359D01*
X988652Y581404D01*
X988886Y581463D01*
X989098Y581535D01*
X989287Y581620D01*
X989454Y581718D01*
X989599Y581828D01*
X989722Y581953D01*
X990002Y577762D01*
D02*
G37*
G36*
X958608Y577650D02*
X958479Y577764D01*
X958329Y577866D01*
X958158Y577956D01*
X957964Y578034D01*
X957750Y578100D01*
X957513Y578154D01*
X957255Y578196D01*
X956976Y578226D01*
X956352Y578250D01*
X956352Y581250D01*
X956675Y581256D01*
X957255Y581304D01*
X957513Y581346D01*
X957750Y581400D01*
X957964Y581466D01*
X958158Y581544D01*
X958329Y581634D01*
X958479Y581736D01*
X958608Y581850D01*
X958608Y577650D01*
D02*
G37*
G36*
X1243000Y569165D02*
X1242430Y569135D01*
X1241920Y569045D01*
X1241470Y568895D01*
X1241080Y568685D01*
X1240750Y568415D01*
X1240480Y568085D01*
X1240270Y567695D01*
X1240120Y567245D01*
X1240030Y566735D01*
X1240000Y566165D01*
X1237000D01*
X1236970Y566735D01*
X1236880Y567245D01*
X1236730Y567695D01*
X1236520Y568085D01*
X1236250Y568415D01*
X1235920Y568685D01*
X1235530Y568895D01*
X1235080Y569045D01*
X1234570Y569135D01*
X1234000Y569165D01*
X1238500Y572165D01*
X1243000Y569165D01*
D02*
G37*
G36*
X1132506Y562825D02*
X1132554Y562245D01*
X1132596Y561987D01*
X1132650Y561750D01*
X1132716Y561536D01*
X1132794Y561342D01*
X1132884Y561171D01*
X1132986Y561021D01*
X1133100Y560892D01*
X1128900Y560892D01*
X1129014Y561021D01*
X1129116Y561171D01*
X1129206Y561342D01*
X1129284Y561536D01*
X1129350Y561750D01*
X1129404Y561987D01*
X1129446Y562245D01*
X1129476Y562524D01*
X1129500Y563148D01*
X1132500Y563148D01*
X1132506Y562825D01*
D02*
G37*
G36*
X1261006Y561575D02*
X1261054Y560995D01*
X1261096Y560737D01*
X1261150Y560500D01*
X1261216Y560286D01*
X1261294Y560093D01*
X1261384Y559921D01*
X1261486Y559771D01*
X1261600Y559642D01*
X1257400D01*
X1257514Y559771D01*
X1257616Y559921D01*
X1257706Y560093D01*
X1257784Y560286D01*
X1257850Y560500D01*
X1257904Y560737D01*
X1257946Y560995D01*
X1257976Y561274D01*
X1258000Y561898D01*
X1261000D01*
X1261006Y561575D01*
D02*
G37*
G36*
X1240000Y559648D02*
X1240006Y559325D01*
X1240054Y558745D01*
X1240096Y558487D01*
X1240150Y558250D01*
X1240216Y558036D01*
X1240294Y557842D01*
X1240384Y557671D01*
X1240486Y557521D01*
X1240600Y557392D01*
X1236400Y557393D01*
X1236514Y557521D01*
X1236616Y557671D01*
X1236706Y557842D01*
X1236784Y558036D01*
X1236850Y558250D01*
X1236904Y558487D01*
X1236946Y558745D01*
X1236976Y559024D01*
X1237000Y559648D01*
X1240000Y559648D01*
D02*
G37*
G36*
X960362Y561013D02*
X960494Y560890D01*
X960649Y560781D01*
X960828Y560687D01*
X961031Y560607D01*
X961258Y560542D01*
X961508Y560491D01*
X961783Y560455D01*
X962081Y560433D01*
X962403Y560426D01*
X961718Y557426D01*
X961391Y557422D01*
X960544Y557362D01*
X960306Y557327D01*
X959897Y557231D01*
X959726Y557172D01*
X959577Y557104D01*
X959451Y557029D01*
X960255Y561151D01*
X960362Y561013D01*
D02*
G37*
G36*
X903486Y560152D02*
X903544Y559999D01*
X903623Y559836D01*
X903723Y559663D01*
X903844Y559479D01*
X904151Y559082D01*
X904337Y558869D01*
X904772Y558411D01*
X903136Y555805D01*
X902903Y556027D01*
X902457Y556391D01*
X902243Y556533D01*
X902037Y556647D01*
X901837Y556734D01*
X901644Y556794D01*
X901457Y556827D01*
X901277Y556833D01*
X901103Y556811D01*
X903450Y560295D01*
X903486Y560152D01*
D02*
G37*
G36*
X1099521Y529236D02*
X1099671Y529134D01*
X1099843Y529044D01*
X1100036Y528966D01*
X1100250Y528900D01*
X1100487Y528846D01*
X1100745Y528804D01*
X1101024Y528774D01*
X1101648Y528750D01*
Y525750D01*
X1101325Y525744D01*
X1100745Y525696D01*
X1100487Y525654D01*
X1100250Y525600D01*
X1100036Y525534D01*
X1099843Y525456D01*
X1099671Y525366D01*
X1099521Y525264D01*
X1099392Y525150D01*
Y529350D01*
X1099521Y529236D01*
D02*
G37*
G36*
X1200184Y523831D02*
X1200336Y523735D01*
X1200509Y523651D01*
X1200704Y523577D01*
X1200920Y523516D01*
X1201157Y523465D01*
X1201416Y523426D01*
X1201999Y523381D01*
X1202322Y523375D01*
X1202466Y520375D01*
X1202144Y520369D01*
X1201565Y520318D01*
X1201308Y520274D01*
X1201073Y520216D01*
X1200861Y520147D01*
X1200670Y520064D01*
X1200500Y519969D01*
X1200353Y519861D01*
X1200228Y519741D01*
X1200053Y523937D01*
X1200184Y523831D01*
D02*
G37*
G36*
X1195858Y519650D02*
X1195729Y519764D01*
X1195579Y519866D01*
X1195407Y519956D01*
X1195214Y520034D01*
X1195000Y520100D01*
X1194763Y520154D01*
X1194505Y520196D01*
X1194226Y520226D01*
X1193602Y520250D01*
Y523250D01*
X1193925Y523256D01*
X1194505Y523304D01*
X1194763Y523346D01*
X1195000Y523400D01*
X1195214Y523466D01*
X1195407Y523544D01*
X1195579Y523634D01*
X1195729Y523736D01*
X1195858Y523850D01*
Y519650D01*
D02*
G37*
G36*
X1367236Y489229D02*
X1367134Y489079D01*
X1367044Y488908D01*
X1366966Y488714D01*
X1366900Y488500D01*
X1366846Y488263D01*
X1366804Y488005D01*
X1366774Y487726D01*
X1366750Y487102D01*
X1363750D01*
X1363744Y487425D01*
X1363696Y488005D01*
X1363654Y488263D01*
X1363600Y488500D01*
X1363534Y488714D01*
X1363456Y488908D01*
X1363366Y489079D01*
X1363264Y489229D01*
X1363150Y489358D01*
X1367350D01*
X1367236Y489229D01*
D02*
G37*
G36*
X1290765Y489255D02*
X1290665Y489104D01*
X1290576Y488932D01*
X1290500Y488738D01*
X1290435Y488523D01*
X1290382Y488286D01*
X1290341Y488028D01*
X1290311Y487748D01*
X1290287Y487124D01*
X1287287Y487081D01*
X1287281Y487403D01*
X1287233Y487984D01*
X1287190Y488241D01*
X1287135Y488477D01*
X1287068Y488691D01*
X1286988Y488884D01*
X1286897Y489055D01*
X1286793Y489204D01*
X1286677Y489332D01*
X1290877Y489384D01*
X1290765Y489255D01*
D02*
G37*
G36*
X1214534Y489272D02*
X1214435Y489121D01*
X1214348Y488949D01*
X1214272Y488754D01*
X1214208Y488539D01*
X1214156Y488302D01*
X1214115Y488043D01*
X1214086Y487763D01*
X1214062Y487139D01*
X1211062Y487067D01*
X1211056Y487389D01*
X1211007Y487969D01*
X1210964Y488227D01*
X1210908Y488462D01*
X1210840Y488676D01*
X1210760Y488868D01*
X1210667Y489039D01*
X1210562Y489187D01*
X1210445Y489314D01*
X1214644Y489402D01*
X1214534Y489272D01*
D02*
G37*
G36*
X1316500Y489264D02*
X1316378Y489139D01*
X1316270Y488992D01*
X1316175Y488823D01*
X1316092Y488632D01*
X1316022Y488420D01*
X1315964Y488185D01*
X1315920Y487929D01*
X1315888Y487650D01*
X1315862Y487027D01*
X1312863Y487186D01*
X1312857Y487510D01*
X1312812Y488092D01*
X1312773Y488351D01*
X1312723Y488589D01*
X1312661Y488805D01*
X1312589Y489000D01*
X1312505Y489173D01*
X1312410Y489325D01*
X1312304Y489456D01*
X1316500Y489264D01*
D02*
G37*
G36*
X1163608Y489343D02*
X1163515Y489191D01*
X1163432Y489017D01*
X1163361Y488822D01*
X1163300Y488606D01*
X1163251Y488368D01*
X1163212Y488109D01*
X1163168Y487526D01*
X1163163Y487203D01*
X1160163Y487015D01*
X1160156Y487337D01*
X1160105Y487916D01*
X1160060Y488172D01*
X1160002Y488406D01*
X1159931Y488618D01*
X1159847Y488809D01*
X1159751Y488977D01*
X1159641Y489123D01*
X1159519Y489247D01*
X1163713Y489474D01*
X1163608Y489343D01*
D02*
G37*
G36*
X1341962Y489230D02*
X1341839Y489107D01*
X1341728Y488962D01*
X1341631Y488794D01*
X1341546Y488605D01*
X1341475Y488393D01*
X1341416Y488159D01*
X1341371Y487903D01*
X1341339Y487625D01*
X1341313Y487002D01*
X1338313Y487220D01*
X1338307Y487543D01*
X1338264Y488126D01*
X1338226Y488385D01*
X1338177Y488623D01*
X1338117Y488840D01*
X1338047Y489035D01*
X1337965Y489209D01*
X1337873Y489362D01*
X1337770Y489493D01*
X1341962Y489230D01*
D02*
G37*
G36*
X1265145Y489380D02*
X1265054Y489228D01*
X1264974Y489054D01*
X1264905Y488858D01*
X1264846Y488641D01*
X1264798Y488403D01*
X1264761Y488144D01*
X1264718Y487560D01*
X1264713Y487237D01*
X1261712Y486990D01*
X1261706Y487313D01*
X1261654Y487891D01*
X1261608Y488146D01*
X1261549Y488380D01*
X1261477Y488591D01*
X1261391Y488780D01*
X1261293Y488947D01*
X1261182Y489092D01*
X1261057Y489214D01*
X1265247Y489512D01*
X1265145Y489380D01*
D02*
G37*
G36*
X1240576Y489119D02*
X1240445Y489003D01*
X1240328Y488863D01*
X1240225Y488700D01*
X1240135Y488515D01*
X1240060Y488307D01*
X1239998Y488076D01*
X1239949Y487822D01*
X1239915Y487546D01*
X1239894Y487246D01*
X1239887Y486924D01*
X1236888Y487348D01*
X1236883Y487673D01*
X1236811Y488518D01*
X1236767Y488756D01*
X1236714Y488974D01*
X1236652Y489169D01*
X1236580Y489343D01*
X1236498Y489496D01*
X1236406Y489627D01*
X1240576Y489119D01*
D02*
G37*
G36*
X1190151Y488995D02*
X1190014Y488888D01*
X1189890Y488756D01*
X1189781Y488601D01*
X1189687Y488422D01*
X1189607Y488219D01*
X1189542Y487992D01*
X1189491Y487742D01*
X1189455Y487467D01*
X1189433Y487169D01*
X1189426Y486847D01*
X1186426Y487532D01*
X1186422Y487859D01*
X1186362Y488706D01*
X1186327Y488944D01*
X1186231Y489353D01*
X1186172Y489524D01*
X1186104Y489673D01*
X1186029Y489799D01*
X1190151Y488995D01*
D02*
G37*
G36*
X409250Y81393D02*
X409009D01*
Y81514D01*
Y81635D01*
X409130D01*
Y81755D01*
X409250D01*
Y81393D01*
D02*
G37*
G36*
X407320Y79343D02*
X407079D01*
Y79463D01*
X407320D01*
Y79343D01*
D02*
G37*
G36*
X404666Y78257D02*
X404546D01*
Y78378D01*
X404666D01*
Y78257D01*
D02*
G37*
G36*
X404305Y77654D02*
X403943D01*
Y77775D01*
X404305D01*
Y77654D01*
D02*
G37*
G36*
X406838Y77051D02*
X406958D01*
Y76930D01*
X407079D01*
Y76689D01*
X406958D01*
Y76327D01*
X406717D01*
Y76448D01*
Y76810D01*
X406596D01*
Y77172D01*
X406838D01*
Y77051D01*
D02*
G37*
G36*
X405752Y75603D02*
X405873D01*
Y75362D01*
X405631D01*
Y75724D01*
X405752D01*
Y75603D01*
D02*
G37*
G36*
X391156Y69210D02*
X391036D01*
Y68969D01*
X390794D01*
Y69090D01*
X390915D01*
Y69331D01*
X391156D01*
Y69210D01*
D02*
G37*
G36*
X390674Y68728D02*
X390553D01*
Y68848D01*
X390674D01*
Y68728D01*
D02*
G37*
G36*
X392121Y68125D02*
X392001D01*
Y68004D01*
X391759D01*
Y68125D01*
X391639D01*
Y68366D01*
X391518D01*
Y68486D01*
X392121D01*
Y68125D01*
D02*
G37*
G36*
X393931Y68004D02*
Y67883D01*
X393810D01*
Y68125D01*
X393931D01*
Y68004D01*
D02*
G37*
G36*
X392725Y66918D02*
X392363D01*
Y67039D01*
X392725D01*
Y66918D01*
D02*
G37*
G36*
X392121D02*
X391880D01*
Y67039D01*
X391759D01*
Y67160D01*
X391880D01*
Y67401D01*
X392121D01*
Y66918D01*
D02*
G37*
G36*
X393690Y65471D02*
X393569D01*
Y65592D01*
X393690D01*
Y65471D01*
D02*
G37*
G36*
X390674D02*
X390553D01*
Y65592D01*
Y65712D01*
X390674D01*
Y65471D01*
D02*
G37*
G36*
X388141Y64626D02*
X388020D01*
Y64506D01*
X387900D01*
Y64385D01*
X387658D01*
Y64506D01*
X387779D01*
Y64747D01*
X388020D01*
Y64988D01*
X388141D01*
Y64626D01*
D02*
G37*
G36*
X384643Y60284D02*
X384281D01*
Y60405D01*
X384039D01*
Y60646D01*
X384643D01*
Y60284D01*
D02*
G37*
G36*
X387900Y56183D02*
X387779D01*
Y56062D01*
X387658D01*
Y56183D01*
X387417D01*
Y56062D01*
X387296D01*
Y56183D01*
X387176D01*
Y56303D01*
X387900D01*
Y56183D01*
D02*
G37*
G36*
X387658Y54011D02*
X387779D01*
Y53167D01*
X387658D01*
Y53408D01*
X387538D01*
Y53288D01*
X387055D01*
Y53408D01*
Y53529D01*
Y53650D01*
X386935D01*
Y54011D01*
X387055D01*
Y54132D01*
X387658D01*
Y54011D01*
D02*
G37*
D10*
X858000Y913750D02*
X858375Y914125D01*
X879625D01*
X880000Y914500D01*
D13*
X530000Y407460D02*
Y420000D01*
X1400500Y407460D02*
Y418000D01*
X530000Y410000D02*
X922843D01*
X999529D02*
X1400500D01*
X530000D02*
X545240Y404920D01*
X530000Y410000D02*
X545240Y415080D01*
X1385260D02*
X1400500Y410000D01*
X1385260Y404920D02*
X1400500Y410000D01*
X1440000Y1132540D02*
X1445080Y1117300D01*
X1434920D02*
X1440000Y1132540D01*
X1434920Y447780D02*
X1440000Y432540D01*
X1445080Y447780D01*
X1440000Y818089D02*
Y1132540D01*
Y432540D02*
Y738864D01*
X1437460Y1132540D02*
X1450000D01*
X1440000Y430000D02*
Y435080D01*
D19*
X1121000Y762000D02*
D03*
X1126000D02*
D03*
X1131000D02*
D03*
X1136000D02*
D03*
X1141000D02*
D03*
X1146000D02*
D03*
X1151000D02*
D03*
X1156000D02*
D03*
X1161000D02*
D03*
X1166000D02*
D03*
X1171000D02*
D03*
X1176000D02*
D03*
X1181000D02*
D03*
X1186000D02*
D03*
X1191000D02*
D03*
X1196000D02*
D03*
X1201000D02*
D03*
X1206000D02*
D03*
X1211000D02*
D03*
X1216000D02*
D03*
X1221000D02*
D03*
X1226000D02*
D03*
X1231000D02*
D03*
X1236000D02*
D03*
X1241000D02*
D03*
Y607000D02*
D03*
X1236000D02*
D03*
X1231000D02*
D03*
X1226000D02*
D03*
X1221000D02*
D03*
X1216000D02*
D03*
X1211000D02*
D03*
X1206000D02*
D03*
X1201000D02*
D03*
X1196000D02*
D03*
X1191000D02*
D03*
X1186000D02*
D03*
X1181000D02*
D03*
X1176000D02*
D03*
X1171000D02*
D03*
X1166000D02*
D03*
X1161000D02*
D03*
X1156000D02*
D03*
X1151000D02*
D03*
X1146000D02*
D03*
X1141000D02*
D03*
X1136000D02*
D03*
X1131000D02*
D03*
X1126000D02*
D03*
X1121000D02*
D03*
D20*
X1258500Y744500D02*
D03*
Y739500D02*
D03*
Y734500D02*
D03*
Y729500D02*
D03*
Y724500D02*
D03*
Y719500D02*
D03*
Y714500D02*
D03*
Y709500D02*
D03*
Y704500D02*
D03*
Y699500D02*
D03*
Y694500D02*
D03*
Y689500D02*
D03*
Y684500D02*
D03*
Y679500D02*
D03*
Y674500D02*
D03*
Y669500D02*
D03*
Y664500D02*
D03*
Y659500D02*
D03*
Y654500D02*
D03*
Y649500D02*
D03*
Y644500D02*
D03*
Y639500D02*
D03*
Y634500D02*
D03*
Y629500D02*
D03*
Y624500D02*
D03*
X1103500D02*
D03*
Y629500D02*
D03*
Y634500D02*
D03*
Y639500D02*
D03*
Y644500D02*
D03*
Y649500D02*
D03*
Y654500D02*
D03*
Y659500D02*
D03*
Y664500D02*
D03*
Y669500D02*
D03*
Y674500D02*
D03*
Y679500D02*
D03*
Y684500D02*
D03*
Y689500D02*
D03*
Y694500D02*
D03*
Y699500D02*
D03*
Y704500D02*
D03*
Y709500D02*
D03*
Y714500D02*
D03*
Y719500D02*
D03*
Y724500D02*
D03*
Y729500D02*
D03*
Y734500D02*
D03*
Y739500D02*
D03*
Y744500D02*
D03*
D21*
X849751Y797000D02*
D03*
Y760500D02*
D03*
X853250Y553000D02*
D03*
Y589500D02*
D03*
D22*
X684500Y1102000D02*
D03*
X664000D02*
D03*
D23*
X743400Y773850D02*
D03*
Y819650D02*
D03*
Y566850D02*
D03*
Y612650D02*
D03*
Y463350D02*
D03*
Y509150D02*
D03*
Y680350D02*
D03*
Y726150D02*
D03*
D24*
X767100Y1013600D02*
D03*
X812900D02*
D03*
D25*
X1005250Y644972D02*
D03*
X975278Y710250D02*
D03*
X1005250D02*
D03*
X975278Y645226D02*
D03*
D26*
X880000Y898000D02*
D03*
Y914500D02*
D03*
X1185000Y521750D02*
D03*
Y538250D02*
D03*
X1211250Y522000D02*
D03*
Y538500D02*
D03*
D27*
X1148450Y1050500D02*
D03*
X1139750D02*
D03*
X1026750Y1084750D02*
D03*
X1018050D02*
D03*
X1139650Y1076250D02*
D03*
X1148350D02*
D03*
X1139650Y1103500D02*
D03*
X1148350D02*
D03*
X976200Y885350D02*
D03*
X967500D02*
D03*
X877401Y734500D02*
D03*
X886101D02*
D03*
X878051Y528000D02*
D03*
X886751D02*
D03*
X877401Y752750D02*
D03*
X886101D02*
D03*
X886850Y544000D02*
D03*
X878150D02*
D03*
X827851Y684000D02*
D03*
X819151D02*
D03*
X817646Y481750D02*
D03*
X826346D02*
D03*
X1026850Y1070250D02*
D03*
X1018150D02*
D03*
D28*
X1138750Y799850D02*
D03*
Y791150D02*
D03*
X1022750Y713750D02*
D03*
Y705050D02*
D03*
X820001Y782850D02*
D03*
Y774150D02*
D03*
X829751Y575850D02*
D03*
Y567150D02*
D03*
X917501Y858350D02*
D03*
Y849650D02*
D03*
X914501Y621650D02*
D03*
Y630350D02*
D03*
X927251Y798150D02*
D03*
Y806850D02*
D03*
X944501Y798400D02*
D03*
Y807100D02*
D03*
X951085Y571050D02*
D03*
Y579750D02*
D03*
X931668Y579850D02*
D03*
Y571150D02*
D03*
X908251Y798900D02*
D03*
Y807600D02*
D03*
X912251Y579850D02*
D03*
Y571150D02*
D03*
X974500Y570900D02*
D03*
Y579600D02*
D03*
Y798650D02*
D03*
Y807350D02*
D03*
X737500Y1013850D02*
D03*
Y1005150D02*
D03*
D29*
X1007000Y871950D02*
D03*
Y884650D02*
D03*
Y897350D02*
D03*
Y910050D02*
D03*
X1056500D02*
D03*
Y897350D02*
D03*
Y884650D02*
D03*
Y871950D02*
D03*
X1110950Y1053200D02*
D03*
Y1065900D02*
D03*
Y1078600D02*
D03*
Y1091300D02*
D03*
X1061550D02*
D03*
Y1078600D02*
D03*
Y1065900D02*
D03*
Y1053200D02*
D03*
D30*
X1101250Y1008850D02*
D03*
Y980650D02*
D03*
D31*
X1064900Y732750D02*
D03*
X1079600D02*
D03*
D32*
X889751Y832900D02*
D03*
X880251Y854100D02*
D03*
X899251D02*
D03*
X886001Y608400D02*
D03*
X876501Y629600D02*
D03*
X895501D02*
D03*
X922751Y534150D02*
D03*
X913251Y555350D02*
D03*
X932251D02*
D03*
X917251Y761550D02*
D03*
X907751Y782750D02*
D03*
X926751D02*
D03*
X978751Y533650D02*
D03*
X969251Y554850D02*
D03*
X988251D02*
D03*
X973251Y760900D02*
D03*
X963751Y782100D02*
D03*
X982751D02*
D03*
D33*
X655850Y1043000D02*
D03*
X699090D02*
D03*
D34*
X858000Y899250D02*
D03*
Y913750D02*
D03*
X1211000Y577250D02*
D03*
Y562750D02*
D03*
X1185000Y577250D02*
D03*
Y562750D02*
D03*
X1273500Y832750D02*
D03*
Y847250D02*
D03*
X1299750Y832750D02*
D03*
Y847250D02*
D03*
D35*
X1323500Y625250D02*
D03*
X1338000D02*
D03*
X1323500Y651000D02*
D03*
X1338000D02*
D03*
D36*
X881750Y776750D02*
D03*
Y794496D02*
D03*
X883250Y583000D02*
D03*
Y565254D02*
D03*
D37*
X821501Y663500D02*
D03*
X839247D02*
D03*
X837746Y462500D02*
D03*
X820000D02*
D03*
D38*
X1114250Y915250D02*
D03*
Y872250D02*
D03*
D39*
X870401Y513000D02*
D03*
X890001D02*
D03*
X880201Y492000D02*
D03*
X870401Y718750D02*
D03*
X890001D02*
D03*
X880201Y697750D02*
D03*
D40*
X1063500Y1023600D02*
D03*
Y980900D02*
D03*
D41*
X1167960Y1019750D02*
D03*
X1139540D02*
D03*
X1167960Y979750D02*
D03*
X1139540D02*
D03*
D42*
X840381Y820750D02*
D03*
X822621D02*
D03*
X832630Y608250D02*
D03*
X814870D02*
D03*
D43*
X849001Y509120D02*
D03*
Y526880D02*
D03*
X850001Y727880D02*
D03*
Y710120D02*
D03*
D44*
X918000Y1001500D02*
D03*
Y1088500D02*
D03*
D45*
X754750Y920000D02*
D03*
X667750D02*
D03*
D46*
X1062680Y646214D02*
D03*
X1071320D02*
D03*
X1062680Y657929D02*
D03*
X1071320D02*
D03*
X1062430Y704786D02*
D03*
X1071070D02*
D03*
X1062680Y693072D02*
D03*
X1071320D02*
D03*
X1285500Y755000D02*
D03*
X1276860D02*
D03*
X1062680Y669643D02*
D03*
X1071320D02*
D03*
X1071070Y634500D02*
D03*
X1062430D02*
D03*
X1071320Y681357D02*
D03*
X1062680D02*
D03*
D47*
X1131000Y572860D02*
D03*
Y581500D02*
D03*
X1246000Y570680D02*
D03*
Y579320D02*
D03*
X1126500Y799820D02*
D03*
Y791180D02*
D03*
D48*
X1029000Y1053250D02*
D03*
X1013200D02*
D03*
D49*
X1141550Y1063250D02*
D03*
X1157150D02*
D03*
X1141400Y1116500D02*
D03*
X1157000D02*
D03*
X1111050Y1032250D02*
D03*
X1095450D02*
D03*
X662200Y1074250D02*
D03*
X677800D02*
D03*
X1156800Y1090500D02*
D03*
X1141200D02*
D03*
X959450Y871350D02*
D03*
X975050D02*
D03*
D50*
X1071640Y717000D02*
D03*
X1062860D02*
D03*
D51*
X1285530Y731250D02*
D03*
X1276830D02*
D03*
D52*
X1231000Y570650D02*
D03*
Y579350D02*
D03*
D53*
X852601Y848250D02*
D03*
X823401D02*
D03*
X844600Y636251D02*
D03*
X815400D02*
D03*
D54*
X825751Y740600D02*
D03*
Y711400D02*
D03*
X825751Y509900D02*
D03*
Y539100D02*
D03*
D103*
X676900Y796750D02*
D03*
Y589750D02*
D03*
Y486250D02*
D03*
Y703250D02*
D03*
D104*
X790000Y1080100D02*
D03*
D105*
X1151100Y597400D02*
X1158250Y590250D01*
X1182000Y598000D02*
X1188842D01*
X1151100Y597400D02*
Y606900D01*
X1151500Y572000D02*
X1156000D01*
X1188842Y598000D02*
X1190900Y600057D01*
X1146500Y567000D02*
X1151500Y572000D01*
X1156000D02*
X1182000Y598000D01*
X1225900Y606900D02*
X1226000Y607000D01*
X1225900Y600057D02*
Y606900D01*
X1219667Y593824D02*
X1225900Y600057D01*
X1218574Y593824D02*
X1219667D01*
X1218000Y593250D02*
X1218574Y593824D01*
X1192307Y579807D02*
X1205900Y593400D01*
X1187557Y579807D02*
X1192307D01*
X1185000Y577250D02*
X1187557Y579807D01*
X1205900Y606900D02*
X1206000Y607000D01*
X1205900Y593400D02*
Y606900D01*
X1141100Y597900D02*
X1148750Y590250D01*
X1146500Y531500D02*
Y567000D01*
X1190900Y600057D02*
Y606900D01*
X1211000Y577250D02*
X1211000Y577250D01*
Y607000D01*
X1211100Y606900D01*
X1238388Y462363D02*
Y491138D01*
X1212500Y491500D02*
X1212562Y491437D01*
Y462062D02*
Y491437D01*
Y462062D02*
X1212625Y462000D01*
X1275750Y629500D02*
X1276000Y629750D01*
X1258500Y629500D02*
X1275750D01*
X1258500Y664500D02*
X1275500D01*
X1275900Y664900D01*
X1265443Y639600D02*
X1275426Y649583D01*
Y653926D01*
X1258600Y639600D02*
X1265443D01*
X1258500Y639500D02*
X1258600Y639600D01*
X1269350Y634600D02*
X1276000Y641250D01*
X1275426Y653926D02*
X1276000Y654500D01*
X1258600Y634600D02*
X1269350D01*
X1258500Y634500D02*
X1258600Y634600D01*
X1228000Y593250D02*
Y594062D01*
X1230900Y596962D02*
Y606900D01*
X1228000Y594062D02*
X1230900Y596962D01*
Y606900D02*
X1231000Y607000D01*
X1151000D02*
X1151100Y606900D01*
X1141100Y597900D02*
Y606900D01*
X1141000Y607000D02*
X1141100Y606900D01*
X1099000Y624400D02*
X1099100Y624500D01*
X1099000Y598000D02*
Y624400D01*
X1098750Y597750D02*
X1099000Y598000D01*
X1099100Y624500D02*
X1103500D01*
X1086500Y628500D02*
X1092500Y634500D01*
X1094500Y620500D02*
Y627343D01*
X1092500Y634500D02*
X1103500D01*
X1097621Y629100D02*
X1097921Y629400D01*
X1103400D01*
X1096257Y629100D02*
X1097621D01*
X1094500Y627343D02*
X1096257Y629100D01*
X1087855Y613281D02*
X1087886Y613250D01*
X1087855Y613855D02*
X1094500Y620500D01*
X1087855Y613281D02*
Y613855D01*
X1271743Y823000D02*
X1273500Y824757D01*
X1248750Y823000D02*
X1271743D01*
X1273500Y824757D02*
Y832750D01*
X1226000Y800250D02*
X1248750Y823000D01*
X1252750Y817250D02*
X1298493D01*
X1231000Y795500D02*
X1252750Y817250D01*
X1257500Y812500D02*
X1369250D01*
X1241000Y796000D02*
X1257500Y812500D01*
X1300250Y819007D02*
Y832250D01*
X1298493Y817250D02*
X1300250Y819007D01*
X1299750Y832750D02*
X1300250Y832250D01*
X1273500Y847250D02*
X1273900Y847650D01*
Y879500D01*
X1299525Y847475D02*
Y879275D01*
X1048000Y732750D02*
X1062400D01*
X1064900D01*
X974500Y579800D02*
X991800D01*
X953000Y758509D02*
Y803960D01*
X944501Y807100D02*
X944884Y806717D01*
X950244D01*
X953000Y803960D01*
X944376Y806975D02*
X944501Y807100D01*
X963751Y782100D02*
Y797749D01*
X961500Y800000D02*
X963751Y797749D01*
X987700Y807050D02*
X988000Y806750D01*
X974800Y807050D02*
X987700D01*
X974500Y807350D02*
X974800Y807050D01*
X975100Y799250D02*
X980250D01*
X974500Y798650D02*
X975100Y799250D01*
X982751Y782100D02*
Y796749D01*
X980250Y799250D02*
X982751Y796749D01*
X876501Y629600D02*
Y644751D01*
X882000Y650250D01*
X848750Y495250D02*
X849000Y495500D01*
X848750Y485750D02*
Y495250D01*
X826346Y481750D02*
X844750D01*
X848750Y485750D01*
X827851Y684000D02*
X846821D01*
X849809Y686988D02*
Y696809D01*
X846821Y684000D02*
X849809Y686988D01*
X880000Y875500D02*
Y898000D01*
Y875500D02*
X880000Y875500D01*
X880000Y898000D02*
X880000Y898000D01*
X880126Y854226D02*
Y875374D01*
Y854226D02*
X880251Y854100D01*
X880000Y875500D02*
X880126Y875374D01*
X897500Y792000D02*
X898312D01*
X906251Y787400D02*
X907751Y785900D01*
X898312Y792000D02*
X902912Y787400D01*
X906251D01*
X907751Y782750D02*
Y785900D01*
X908001Y798650D02*
X908251Y798900D01*
X908001Y783000D02*
Y798650D01*
X907751Y782750D02*
X908001Y783000D01*
X969251Y554850D02*
Y557426D01*
X967751Y558926D02*
X969251Y557426D01*
X958324Y558926D02*
X967751D01*
X957750Y559500D02*
X958324Y558926D01*
X901312Y559750D02*
X905712Y555350D01*
X900500Y559750D02*
X901312D01*
X905712Y555350D02*
X913251D01*
X912251Y571150D02*
X912751Y570650D01*
Y555850D02*
Y570650D01*
Y555850D02*
X913251Y555350D01*
X1005250Y644972D02*
X1032028D01*
X1044000Y633000D01*
X1270250Y742500D02*
X1285500D01*
X1258500Y739500D02*
X1267250D01*
X1270250Y742500D01*
X1285500D02*
Y755000D01*
X1285515Y731265D02*
Y742485D01*
X1285500Y742500D02*
X1285515Y742485D01*
Y731265D02*
X1285530Y731250D01*
X1267214Y734400D02*
X1270364Y731250D01*
X1258600Y734400D02*
X1267214D01*
X1270364Y731250D02*
X1276830D01*
X1258500Y734500D02*
X1258600Y734400D01*
X1265850Y729400D02*
X1275250Y720000D01*
X1258600Y729400D02*
X1265850D01*
X1275250Y720000D02*
X1297500D01*
X1277180Y767180D02*
X1277500Y767500D01*
X1276860Y755000D02*
X1277180Y755320D01*
Y767180D01*
X1261000Y755000D02*
X1276860D01*
X1258500Y744500D02*
Y752500D01*
X1261000Y755000D01*
X1258500Y729500D02*
X1258600Y729400D01*
X1131000Y558750D02*
X1131000Y558750D01*
X1131000Y558750D02*
Y572860D01*
X1122574Y596731D02*
X1125900Y600057D01*
X1122000Y590250D02*
X1122574Y590824D01*
Y596731D01*
X1125900Y600057D02*
Y606900D01*
X1126000Y607000D01*
X1190900Y606900D02*
X1191000Y607000D01*
X1110500Y598750D02*
X1114250Y602500D01*
X1088562Y652000D02*
X1091062Y649500D01*
X1087750Y652000D02*
X1088562D01*
X1091062Y649500D02*
X1103500D01*
X1076500Y658250D02*
X1078243D01*
X1080000Y656493D01*
Y646000D02*
Y656493D01*
X1103400Y654600D02*
X1103500Y654500D01*
X1093791Y657367D02*
X1096557Y654600D01*
X1103400D01*
X1093791Y657367D02*
Y661959D01*
X1083250Y665000D02*
X1088250D01*
X1076500Y658250D02*
X1083250Y665000D01*
X1071320Y658250D02*
X1076500D01*
X1091324Y664426D02*
X1093791Y661959D01*
X1080000Y639500D02*
Y646000D01*
X1071320Y669750D02*
Y669943D01*
X1072520Y671143D02*
X1073717D01*
X1081250Y678676D02*
X1087926D01*
X1071320Y669943D02*
X1072520Y671143D01*
X1073717D02*
X1081250Y678676D01*
X1087926D02*
X1088650Y679400D01*
X1103400D01*
X1103500Y679500D01*
X1080000Y597750D02*
Y639500D01*
X1103500D01*
X1080000Y646000D02*
X1081500Y644500D01*
X1080000Y597750D02*
X1096250Y581500D01*
X1081500Y644500D02*
X1103500D01*
X1081353Y696750D02*
X1083603Y694500D01*
X1090750Y722147D02*
Y727500D01*
X1083603Y694500D02*
X1103500D01*
X1081353Y712750D02*
X1090750Y722147D01*
X1081353Y696750D02*
Y712750D01*
X1090750Y719750D02*
Y722147D01*
X1103400Y699600D02*
X1103500Y699500D01*
X1095712Y699600D02*
X1103400D01*
X1092062Y703250D02*
X1095712Y699600D01*
X1091250Y703250D02*
X1092062D01*
X1090750Y719750D02*
X1091000Y719500D01*
X1103500D01*
X1071320Y646214D02*
Y657929D01*
X1071195Y634625D02*
Y646089D01*
X1071320Y646214D01*
X1071070Y634500D02*
X1071195Y634625D01*
X1082950Y729400D02*
X1088038D01*
X1079600Y732750D02*
X1082950Y729400D01*
X1071640Y717000D02*
X1080250D01*
X1090750Y727500D01*
X1071355Y716715D02*
X1071640Y717000D01*
X1071070Y704786D02*
X1071355Y705071D01*
Y716715D01*
X1071195Y693196D02*
Y704661D01*
Y693196D02*
X1071320Y693072D01*
X1071070Y704786D02*
X1071195Y704661D01*
X1071320Y681357D02*
Y693072D01*
X1109000Y782250D02*
Y783000D01*
Y772750D02*
Y782250D01*
X1126100Y762100D02*
Y768943D01*
X1131157Y774000D02*
X1131250D01*
X1126100Y768943D02*
X1131157Y774000D01*
X1109090Y799910D02*
X1126410D01*
X1126500Y799820D01*
X1109000Y800000D02*
X1109090Y799910D01*
X1126515Y799835D02*
X1138735D01*
X1126500Y799820D02*
X1126515Y799835D01*
X1138735D02*
X1138750Y799850D01*
X1121000Y762000D02*
Y766400D01*
X1120900Y766500D02*
X1121000Y766400D01*
X1115250Y766500D02*
X1120900D01*
X1109000Y772750D02*
X1115250Y766500D01*
X1126000Y762000D02*
X1126100Y762100D01*
X1314362Y462137D02*
Y492863D01*
X1326750Y614062D02*
Y622000D01*
X1323000Y624750D02*
X1324000D01*
X1329500Y610500D02*
Y611312D01*
X1324000Y624750D02*
X1326750Y622000D01*
Y614062D02*
X1329500Y611312D01*
X1238500Y570665D02*
X1245985D01*
X1231015D02*
X1238500D01*
Y555250D02*
Y570665D01*
X1238500Y555250D02*
X1238500Y555250D01*
X1245985Y570665D02*
X1246000Y570680D01*
X1231000Y570650D02*
X1231015Y570665D01*
X1198000Y521750D02*
X1198125Y521875D01*
X1211125D02*
X1211250Y522000D01*
X1198125Y521875D02*
X1211125D01*
X1185000Y521750D02*
X1198000D01*
X1185000D02*
X1185125Y521875D01*
X1044000Y633000D02*
X1061230D01*
X1062430Y634200D01*
Y634500D01*
X1044312Y656500D02*
X1061480D01*
X1043812Y657000D02*
X1044312Y656500D01*
X1062680Y657700D02*
Y657929D01*
X1061480Y656500D02*
X1062680Y657700D01*
Y657929D02*
Y669643D01*
X1045198Y703324D02*
X1061230D01*
X1044624Y702750D02*
X1045198Y703324D01*
X1043812Y702750D02*
X1044624D01*
X1061230Y703324D02*
X1062430Y704524D01*
Y704786D01*
X1062288Y716429D02*
X1062860Y717000D01*
X1062288Y704927D02*
Y716429D01*
X1117750Y938188D02*
Y939000D01*
X1107250Y915250D02*
X1113750Y921750D01*
X1062629Y681050D02*
Y691950D01*
X1062555Y646125D02*
X1062680Y646250D01*
X1062555Y634500D02*
Y646125D01*
X1061929Y680250D02*
X1062680Y681000D01*
X1043812Y680250D02*
X1061929D01*
X1169243Y1090500D02*
X1172926Y1094183D01*
X1156800Y1090500D02*
X1169243D01*
X1172926Y1094183D02*
Y1099176D01*
X1173500Y1099750D02*
Y1111500D01*
X1168500Y1116500D02*
X1173500Y1111500D01*
X1157000Y1116500D02*
X1168500D01*
X1152100Y1099750D02*
X1173500D01*
X1172926Y1099176D02*
X1173500Y1099750D01*
X1149650Y1102000D02*
X1149850D01*
X1148350Y1103300D02*
Y1103500D01*
Y1103300D02*
X1149650Y1102000D01*
X1149850D02*
X1152100Y1099750D01*
X1056500Y897350D02*
X1072900D01*
X1056500Y884650D02*
X1072900D01*
Y897350D02*
X1075250Y895000D01*
Y891000D02*
Y895000D01*
Y887000D02*
Y891000D01*
X1080000D01*
X1072900Y884650D02*
X1075250Y887000D01*
X947675Y871175D02*
X959275D01*
X947500Y871000D02*
X947675Y871175D01*
X959275D02*
X959450Y871350D01*
X976200Y885350D02*
Y898200D01*
X988050Y910050D01*
X988200Y891000D02*
X992750D01*
Y895593D01*
Y886407D02*
Y891000D01*
Y895593D02*
X994507Y897350D01*
X1007000D01*
X994507Y884650D02*
X1007000D01*
X992750Y886407D02*
X994507Y884650D01*
X1115000Y934188D02*
X1119000Y938188D01*
X1115000Y921750D02*
Y934188D01*
X1127000Y1069625D02*
Y1089843D01*
X1131250Y1065007D02*
Y1069625D01*
Y1074243D01*
X1127000Y1069625D02*
X1131250D01*
X1127000Y1055250D02*
Y1069625D01*
Y1055250D02*
X1131750Y1050500D01*
X1126700Y1089543D02*
X1127000Y1089843D01*
X1124943Y1091300D02*
X1126700Y1089543D01*
X1127000Y1089843D02*
Y1100750D01*
X1110950Y1091300D02*
X1124943D01*
X1127000Y1100750D02*
Y1114742D01*
X1128757Y1116500D02*
X1141400D01*
X1127000Y1114742D02*
X1128757Y1116500D01*
X1129750Y1103500D02*
X1139650D01*
X1127000Y1100750D02*
X1129750Y1103500D01*
X1144350Y1087350D02*
X1148350Y1083350D01*
X1144050Y1087350D02*
X1144350D01*
X1141200Y1090200D02*
X1144050Y1087350D01*
X1141200Y1090200D02*
Y1090500D01*
X1148350Y1076250D02*
Y1083350D01*
X1139400Y1076000D02*
X1139650Y1076250D01*
X1133007Y1076000D02*
X1139400D01*
X1131250Y1074243D02*
X1133007Y1076000D01*
X1131250Y1065007D02*
X1133007Y1063250D01*
X1141550D01*
X1131750Y1050500D02*
X1139750D01*
X1025450Y1083450D02*
X1026750Y1084750D01*
X1026650Y1084850D02*
X1033100Y1091300D01*
X1018150Y1070250D02*
X1019450Y1071550D01*
X1025450Y1079707D02*
Y1083450D01*
X1021207Y1078250D02*
X1023993D01*
X1025450Y1079707D01*
X1019450Y1076493D02*
X1021207Y1078250D01*
X1019450Y1071550D02*
Y1076493D01*
X1033100Y1091300D02*
X1061550D01*
X1012500Y1084750D02*
X1018050D01*
X999250Y1071500D02*
X1012500Y1084750D01*
X807500Y679250D02*
X812250Y684000D01*
X807500Y667500D02*
Y679250D01*
X812250Y684000D02*
X819151D01*
X744900Y463350D02*
X745750Y462500D01*
X820000D01*
X817646Y464854D02*
X820000Y462500D01*
X817646Y464854D02*
Y481750D01*
X881750Y794496D02*
X885500Y798246D01*
Y813250D01*
X917501Y828999D02*
X925250Y821250D01*
X984493D01*
X917501Y828999D02*
Y849650D01*
X885500Y813250D02*
X889751Y817501D01*
X897501Y856850D02*
X899001Y858350D01*
X915751D01*
X897501Y854100D02*
Y856850D01*
X645750Y1074250D02*
X662200D01*
X766850Y1013850D02*
X767100Y1013600D01*
X737500Y1013850D02*
X766850D01*
X737500Y991750D02*
Y1005150D01*
X1323500Y651000D02*
X1326250Y648250D01*
Y638750D02*
Y648250D01*
X744800Y567500D02*
X787500D01*
X807500Y667500D02*
X820751D01*
X744150Y773850D02*
X745000Y773000D01*
X770000D01*
X743750Y680000D02*
X770000D01*
X744150Y566850D02*
X744800Y567500D01*
X1257250Y579250D02*
X1259500Y577000D01*
Y557500D02*
Y577000D01*
X1139500Y590250D02*
Y591062D01*
X1136000Y594562D02*
Y607000D01*
Y594562D02*
X1139500Y591062D01*
X1096250Y581500D02*
X1131000D01*
X1114250Y602500D02*
X1120900D01*
X1121000Y602600D01*
X1022875Y692375D02*
X1023000Y692250D01*
X1022875Y692375D02*
Y704925D01*
X1022750Y705050D02*
X1022875Y704925D01*
X1117180Y791180D02*
X1126500D01*
X1109000Y783000D02*
X1117180Y791180D01*
X1063250Y871950D02*
X1063750Y871450D01*
X1056500Y871950D02*
X1063250D01*
X1339800Y838950D02*
X1370200D01*
X1339750Y839000D02*
X1339800Y838950D01*
X1161663Y462163D02*
Y490088D01*
X1161500Y490250D02*
X1161663Y490088D01*
X1187926Y490176D02*
X1188500Y490750D01*
X1187926Y462701D02*
Y490176D01*
X1187225Y462000D02*
X1187926Y462701D01*
X1238388Y491138D02*
X1238750Y491500D01*
X1263000D02*
X1263213Y491287D01*
Y462212D02*
Y491287D01*
X1288788Y462038D02*
Y491463D01*
X1288750Y491500D02*
X1288788Y491463D01*
Y462038D02*
X1288825Y462000D01*
X1314362Y492863D02*
X1314500Y493000D01*
X1339812Y462188D02*
Y491813D01*
X1340000Y492000D01*
X1365250Y462225D02*
Y492500D01*
X1314225Y462000D02*
X1314362Y462137D01*
X1339625Y462000D02*
X1339812Y462188D01*
X1365025Y462000D02*
X1365250Y462225D01*
X895501Y629600D02*
X896251Y630350D01*
X914501D01*
X1037500Y722250D02*
X1048000Y732750D01*
X1037500Y715507D02*
Y722250D01*
X1022750Y713750D02*
X1035743D01*
X1037500Y715507D01*
X988000Y806750D02*
Y817743D01*
X984493Y821250D02*
X988000Y817743D01*
X1008750Y705050D02*
X1022750D01*
X1005250Y708550D02*
X1008750Y705050D01*
X1005250Y708550D02*
Y710250D01*
X944501Y782251D02*
Y798399D01*
X944501Y798400D01*
X944500Y782250D02*
X944501Y782251D01*
X951085Y579750D02*
X960750D01*
X960750Y579750D01*
X1097250Y527250D02*
X1142250D01*
X1146500Y531500D01*
X1263213Y462212D02*
X1263425Y462000D01*
X1238025D02*
X1238388Y462363D01*
X1161663Y462163D02*
X1161825Y462000D01*
X992000Y580000D02*
Y595000D01*
X914501Y621650D02*
X965350D01*
X992000Y595000D01*
X991800Y579800D02*
X992000Y580000D01*
X953000Y758509D02*
X954757Y756751D01*
X971751D01*
X973251Y758251D02*
Y760900D01*
X971751Y756751D02*
X973251Y758251D01*
X927376Y806975D02*
X944376D01*
X927251Y806850D02*
X927376Y806975D01*
X926876Y807225D02*
X927251Y806850D01*
X908626Y807225D02*
X926876D01*
X908251Y807600D02*
X908626Y807225D01*
X927001Y783000D02*
Y797900D01*
X926751Y782750D02*
X927001Y783000D01*
Y797900D02*
X927251Y798150D01*
X889751Y817501D02*
Y832900D01*
X870757Y775000D02*
X880000D01*
X869000Y768000D02*
Y773243D01*
X880000Y775000D02*
X881750Y776750D01*
X869000Y773243D02*
X870757Y775000D01*
X861500Y760500D02*
X869000Y768000D01*
X849751Y760500D02*
X861500D01*
X835757Y760000D02*
X849251D01*
X834000Y761757D02*
X835757Y760000D01*
X834000Y761757D02*
Y769000D01*
X849251Y760000D02*
X849751Y760500D01*
X828850Y774150D02*
X834000Y769000D01*
X820001Y774150D02*
X828850D01*
X819425Y773574D02*
X820001Y774150D01*
X808574Y773574D02*
X819425D01*
X808000Y773000D02*
X808574Y773574D01*
X884801Y735600D02*
X890001Y730400D01*
X877401Y745250D02*
Y752750D01*
Y745250D02*
X884801Y737850D01*
Y735600D02*
Y737850D01*
X917251Y758751D02*
Y761550D01*
X915751Y757251D02*
X917251Y758751D01*
X909751Y757251D02*
X915751D01*
X905250Y752750D02*
X909751Y757251D01*
X886101Y752750D02*
X905250D01*
X890001Y718750D02*
Y730400D01*
X880201Y675201D02*
Y697750D01*
X871750Y666750D02*
X880201Y675201D01*
X839247Y666750D02*
X871750D01*
X820751Y667500D02*
X821501Y666750D01*
X743400Y680350D02*
X743750Y680000D01*
X988251Y554850D02*
Y568243D01*
X974500Y570900D02*
X985594D01*
X988251Y568243D01*
X949585Y532257D02*
Y569750D01*
Y532257D02*
X951342Y530500D01*
X977251D01*
X978751Y532000D01*
Y533650D01*
X950884Y571050D02*
X951085D01*
X949585Y569750D02*
X950884Y571050D01*
X945150Y572350D02*
X949784D01*
X937650Y579850D02*
X945150Y572350D01*
X949784D02*
X951085Y571050D01*
X931668Y579850D02*
X937650D01*
X912251D02*
X931668D01*
X931960Y555642D02*
X932251Y555350D01*
X931960Y555642D02*
Y570858D01*
X931668Y571150D02*
X931960Y570858D01*
X883250Y602499D02*
X886001Y605250D01*
Y608400D01*
X883250Y583000D02*
Y602499D01*
X879750Y561754D02*
X883250Y565254D01*
X871754Y561754D02*
X879750D01*
X863000Y553000D02*
X871754Y561754D01*
X853250Y553000D02*
X863000D01*
X830150Y561607D02*
X836757Y555000D01*
X830150Y561607D02*
Y566751D01*
X829576Y567325D02*
X830150Y566751D01*
X851250Y555000D02*
X853250Y553000D01*
X836757Y555000D02*
X851250D01*
X817675Y567325D02*
X829576D01*
X817500Y567500D02*
X817675Y567325D01*
X915000Y532500D02*
X916650Y534150D01*
X898350Y532500D02*
X915000D01*
X888350Y542500D02*
X898350Y532500D01*
X916650Y534150D02*
X922751D01*
X886850Y543800D02*
Y544000D01*
Y543800D02*
X888150Y542500D01*
X888350D01*
X877500Y543350D02*
X878150Y544000D01*
X877500Y540000D02*
Y543350D01*
X885451Y529300D02*
Y532049D01*
X877500Y540000D02*
X885451Y532049D01*
Y529300D02*
X886751Y528000D01*
Y527800D02*
X890001Y524550D01*
X886751Y527800D02*
Y528000D01*
X890001Y513000D02*
Y524550D01*
X860000Y462500D02*
X880000Y482500D01*
Y491799D02*
X880201Y492000D01*
X880000Y482500D02*
Y491799D01*
X837746Y462500D02*
X860000D01*
X1340200Y762700D02*
X1370250D01*
X1297500Y720000D02*
X1340200Y762700D01*
X1369250Y812500D02*
X1370250Y813500D01*
X1231000Y762000D02*
Y795500D01*
X1241000Y762000D02*
Y796000D01*
X1246370Y579250D02*
X1257250D01*
X1246300Y579320D02*
X1246370Y579250D01*
X1370200Y838950D02*
X1370250Y838900D01*
X1147600Y791150D02*
X1151000Y787750D01*
Y764750D02*
Y787750D01*
X1138750Y791150D02*
X1147600D01*
X1339250Y625750D02*
X1370250D01*
X1338250Y624750D02*
X1339250Y625750D01*
X1338150Y651150D02*
X1370250D01*
X1338000Y651000D02*
X1338150Y651150D01*
X1338250Y628000D02*
X1338750Y628500D01*
X1338250Y625250D02*
X1339550Y623950D01*
X1226000Y762000D02*
Y800250D01*
X1244500Y580520D02*
Y580820D01*
X1241000Y584320D02*
X1244500Y580820D01*
X1241000Y584320D02*
Y607000D01*
X1232650Y581000D02*
X1236000Y584350D01*
X1231000Y579350D02*
X1231350D01*
X1232650Y580650D01*
Y581000D01*
X1236000Y584350D02*
Y607000D01*
X1211000Y562750D02*
X1211250Y562500D01*
Y538500D02*
Y562500D01*
X1185000Y538250D02*
Y562750D01*
X1121000Y602600D02*
Y607000D01*
X1131000Y581500D02*
Y607000D01*
X1131000Y607000D01*
X1131000Y581500D02*
X1131000Y581500D01*
X988050Y910050D02*
X1007000D01*
D106*
X1299300Y879500D02*
X1299525Y879275D01*
Y847475D02*
X1299750Y847250D01*
X1166990Y849750D02*
X1223750D01*
X1166740Y849500D02*
X1166990Y849750D01*
X1114250Y849500D02*
X1166740D01*
X852601Y845150D02*
Y848250D01*
X840381Y820750D02*
Y835150D01*
X846881Y841650D01*
X849101D01*
X852601Y845150D01*
X849809Y696809D02*
X850000Y697000D01*
X826391Y710760D02*
X849361D01*
X825751Y711400D02*
X826391Y710760D01*
X849361D02*
X850001Y710120D01*
X832630Y622650D02*
X839631Y629651D01*
X841100D02*
X844600Y633151D01*
X832630Y608250D02*
Y622650D01*
X839631Y629651D02*
X841100D01*
X844600Y633151D02*
Y636251D01*
X825751Y509900D02*
X826141Y509510D01*
X848610D01*
X849001Y509119D01*
X791000Y740025D02*
X825751D01*
X1188750Y1000000D02*
Y1014000D01*
Y987250D02*
Y1000000D01*
X1076500Y849500D02*
X1114250D01*
Y872250D01*
X975050Y871350D02*
X999550D01*
X999650Y871450D01*
X1006500D01*
X967800Y878900D02*
X975050Y871650D01*
Y871350D02*
Y871650D01*
X967500Y885350D02*
X967800Y885050D01*
Y878900D02*
Y885050D01*
X967500Y885350D02*
Y936321D01*
X973429Y942250D01*
X1095750D01*
X1155300Y1062400D02*
X1157150Y1064250D01*
X1062400Y735100D02*
Y835400D01*
X1076500Y849500D01*
X1066679D02*
X1076500D01*
X1064750Y732750D02*
X1064900D01*
X1062400Y735100D02*
X1064750Y732750D01*
X1063750Y852429D02*
X1066679Y849500D01*
X1063750Y852429D02*
Y871450D01*
X1167960Y1019750D02*
X1183000D01*
X1188750Y1014000D01*
X1167960Y979750D02*
X1181250D01*
X1188750Y987250D01*
X1063500Y980900D02*
X1063500Y980900D01*
Y959250D02*
Y980900D01*
Y959250D02*
X1063500Y959250D01*
X1034000Y1070000D02*
X1038000Y1066000D01*
X1061450D01*
X1027150Y1070000D02*
X1034000D01*
X1026850Y1055400D02*
X1029000Y1053250D01*
X1026850Y1055400D02*
Y1070250D01*
X1029000Y1032921D02*
Y1053250D01*
X999441Y1067408D02*
X1013200Y1053650D01*
X999441Y1067408D02*
Y1071309D01*
X999250Y1071500D02*
X999441Y1071309D01*
X1013200Y1053250D02*
Y1053650D01*
X1043300Y1078550D02*
X1061500D01*
X1061550Y1078600D01*
X1043250Y1078500D02*
X1043300Y1078550D01*
X1061450Y1066000D02*
X1061550Y1065900D01*
X959829Y963750D02*
X1029000Y1032921D01*
X852751Y725130D02*
X855870D01*
X861580Y719420D02*
X869731D01*
X834221Y727880D02*
X850001D01*
X852751Y725130D01*
X855870D02*
X861580Y719420D01*
X869731D02*
X870401Y718750D01*
X828851Y733250D02*
X834221Y727880D01*
X828851Y733250D02*
Y736350D01*
X850001Y705869D02*
Y710120D01*
Y697000D02*
Y705869D01*
X850001Y705870D01*
X849001Y495500D02*
Y509119D01*
X832630Y608250D02*
X832755Y608375D01*
X844849Y636500D02*
X861250D01*
X844600Y636251D02*
X844849Y636500D01*
X852601Y848250D02*
X852851Y848000D01*
X791750Y848250D02*
X823401D01*
X840381Y820750D02*
X851750D01*
X918000Y973965D02*
X928215Y963750D01*
X959829D01*
X677800Y1074250D02*
X700816D01*
X715158Y1088592D01*
X825751Y539100D02*
X828851D01*
X810150D02*
X825751D01*
X806250Y589500D02*
X853250D01*
X819900Y575850D02*
X829751D01*
X806250Y589500D02*
X819900Y575850D01*
X791000Y604750D02*
X806250Y589500D01*
X805750Y543500D02*
Y569351D01*
X791000Y584100D02*
X805750Y569351D01*
Y543500D02*
X810150Y539100D01*
X791000Y584100D02*
Y604750D01*
X794500Y608250D01*
X814870D01*
X791000Y637250D02*
X791999Y636251D01*
X815400D01*
X798500Y942750D02*
X800000D01*
X843500Y899250D01*
X791750Y798750D02*
X848001D01*
X849751Y797000D01*
X791000Y798000D02*
X791750Y798750D01*
X791000Y782850D02*
X820001D01*
X1344771Y575250D02*
X1345071Y574950D01*
X1344500Y575250D02*
X1344771D01*
X1345071Y574950D02*
X1370250D01*
X1223750Y849750D02*
Y878850D01*
X1095750Y942250D02*
X1122000Y968500D01*
Y980650D02*
X1138640D01*
X1122000Y968500D02*
Y980650D01*
X1119945D02*
X1122000D01*
X870401Y719500D02*
Y731571D01*
X877401Y734300D02*
Y734500D01*
X877101Y734000D02*
X877401Y734300D01*
X870401Y731571D02*
X872830Y734000D01*
X877101D01*
X1148450Y1050700D02*
X1155300Y1057550D01*
Y1062400D01*
X1148450Y1050500D02*
Y1050700D01*
X1142500Y1040750D02*
X1148150Y1046400D01*
Y1050200D02*
X1148450Y1050500D01*
X1148150Y1046400D02*
Y1050200D01*
X1142500Y1022710D02*
Y1040750D01*
X1139540Y1019750D02*
X1142500Y1022710D01*
X1101250Y980650D02*
X1119945D01*
X1122000Y1013071D02*
X1124929Y1016000D01*
X1135790D01*
X1122000Y982705D02*
Y1013071D01*
X1119945Y980650D02*
X1122000Y982705D01*
X1135790Y1016000D02*
X1139540Y1019750D01*
X1138640Y980650D02*
X1139540Y979750D01*
X1110950Y1053200D02*
X1111050Y1053100D01*
Y1032250D02*
Y1053100D01*
X1063500Y1043000D02*
Y1052700D01*
Y1023600D02*
Y1043000D01*
X1064500Y1042000D01*
X1083700D01*
X1063000Y1053200D02*
X1063500Y1052700D01*
X1061550Y1053200D02*
X1063000D01*
X1083700Y1019300D02*
X1094150Y1008850D01*
X1101250D01*
X1083700Y1019300D02*
Y1042000D01*
X1091300Y1034400D01*
X1093450Y1032250D02*
Y1032550D01*
X1091600Y1034400D02*
X1093450Y1032550D01*
X1091300Y1034400D02*
X1091600D01*
X843500Y899250D02*
X858000D01*
X870401Y513750D02*
Y524571D01*
X873330Y527500D02*
X877751D01*
X870401Y524571D02*
X873330Y527500D01*
X877751D02*
X878051Y527800D01*
Y528000D01*
X868651Y515500D02*
X870401Y513750D01*
Y513000D02*
Y513750D01*
X850651Y526880D02*
X862031Y515500D01*
X868651D01*
X849001Y526880D02*
X850651D01*
X828851Y539100D02*
X838321Y529630D01*
X846251D01*
X849001Y526880D01*
X791000Y820000D02*
X791750Y820750D01*
X822621D01*
X791000Y847500D02*
X791750Y848250D01*
D107*
X791000Y920000D02*
Y920500D01*
Y847500D02*
Y920000D01*
Y604750D02*
Y637250D01*
Y740025D01*
Y782850D01*
X719958Y1093392D02*
X733250Y1080100D01*
X712300Y1101050D02*
X719958Y1093392D01*
X601500Y1101500D02*
X638141D01*
X580000Y1080000D02*
X601500Y1101500D01*
X812900Y957150D02*
Y980250D01*
X791000Y920500D02*
Y935250D01*
X798500Y942750D02*
X812900Y957150D01*
X791000Y935250D02*
X798500Y942750D01*
X791000Y798000D02*
Y820000D01*
Y782850D02*
Y798000D01*
X690000Y592400D02*
X692650Y589750D01*
X693400Y486250D02*
Y589000D01*
X692650Y589750D02*
X693400Y589000D01*
X733250Y1080100D02*
X790000D01*
X791000Y820000D02*
Y847500D01*
X650000Y650000D02*
X678284D01*
X690000Y592400D02*
Y638284D01*
X678284Y650000D02*
X690000Y638284D01*
X580000Y695250D02*
X597625Y677625D01*
X622375D01*
X650000Y650000D01*
X630000Y710000D02*
X646750Y693250D01*
X691900D01*
X630000Y710000D02*
Y733534D01*
X580000Y745250D02*
X618284D01*
X630000Y733534D01*
X691900Y693250D02*
Y796000D01*
X692650Y796750D01*
D108*
X791000Y920000D02*
X794250D01*
X790500D02*
X791000D01*
X754750D02*
X790500D01*
X918000Y964000D02*
Y973965D01*
X827050Y943000D02*
X897000D01*
X918000Y964000D01*
X723000Y1043000D02*
X733250Y1053250D01*
Y1080100D01*
X699090Y1043000D02*
X723000D01*
X790500Y920000D02*
X791000Y920500D01*
X918000Y973965D02*
Y1001500D01*
X812900Y957150D02*
X827050Y943000D01*
D109*
X926907Y413554D02*
X929446Y416093D01*
X934525D01*
X937064Y413554D01*
Y411015D01*
X934525Y408476D01*
X937064Y405937D01*
Y403398D01*
X934525Y400858D01*
X929446D01*
X926907Y403398D01*
Y405937D01*
X929446Y408476D01*
X926907Y411015D01*
Y413554D01*
X929446Y408476D02*
X934525D01*
X942142Y416093D02*
X952299D01*
Y413554D01*
X942142Y403398D01*
Y400858D01*
X957377D02*
Y403398D01*
X959916D01*
Y400858D01*
X957377D01*
X970073Y413554D02*
X972612Y416093D01*
X977691D01*
X980230Y413554D01*
Y403398D01*
X977691Y400858D01*
X972612D01*
X970073Y403398D01*
Y413554D01*
X995465Y416093D02*
X985308D01*
Y408476D01*
X990387Y411015D01*
X992926D01*
X995465Y408476D01*
Y403398D01*
X992926Y400858D01*
X987847D01*
X985308Y403398D01*
X1436446Y742927D02*
Y753084D01*
X1438985D01*
X1449142Y742927D01*
X1451681D01*
X1438985Y758163D02*
X1436446Y760702D01*
Y765780D01*
X1438985Y768319D01*
X1449142D01*
X1451681Y765780D01*
Y760702D01*
X1449142Y758163D01*
X1438985D01*
X1454220Y775937D02*
X1451681Y778476D01*
X1449142D01*
Y775937D01*
X1451681D01*
Y778476D01*
X1454220Y775937D01*
X1456759Y773398D01*
X1438985Y788633D02*
X1436446Y791172D01*
Y796250D01*
X1438985Y798789D01*
X1449142D01*
X1451681Y796250D01*
Y791172D01*
X1449142Y788633D01*
X1438985D01*
Y803868D02*
X1436446Y806407D01*
Y811485D01*
X1438985Y814025D01*
X1449142D01*
X1451681Y811485D01*
Y806407D01*
X1449142Y803868D01*
X1438985D01*
D110*
X752875Y508750D02*
D03*
Y725750D02*
D03*
D111*
X763000Y819000D02*
D03*
Y612000D02*
D03*
D112*
X918000Y1106500D02*
D03*
D113*
X650000Y920125D02*
D03*
D114*
X648000Y1043000D02*
D03*
D115*
X599625Y1028375D02*
D03*
D116*
X694125Y1102125D02*
D03*
X654625Y1102125D02*
D03*
D117*
X812875Y998629D02*
D03*
D118*
X580000Y1030000D02*
D03*
Y695250D02*
D03*
D119*
Y1080000D02*
D03*
Y745250D02*
D03*
D120*
X1238025Y462000D02*
D03*
X1288825D02*
D03*
X1161825D02*
D03*
X1187225D02*
D03*
X1212625D02*
D03*
X1263425D02*
D03*
X1339625D02*
D03*
X1314225D02*
D03*
X1299300Y879500D02*
D03*
X1273900D02*
D03*
X1248500D02*
D03*
X1370250Y651150D02*
D03*
Y625750D02*
D03*
Y600350D02*
D03*
D121*
X1365025Y462000D02*
D03*
X1223100Y879500D02*
D03*
D122*
X1370250Y737300D02*
D03*
D123*
Y762700D02*
D03*
Y788100D02*
D03*
Y813500D02*
D03*
Y838900D02*
D03*
D124*
Y574950D02*
D03*
D125*
X1158250Y590250D02*
D03*
X1148750D02*
D03*
X1086500Y628500D02*
D03*
X1228000Y593250D02*
D03*
X1276000Y665000D02*
D03*
Y641250D02*
D03*
X1080250Y450500D02*
D03*
X1320250Y690500D02*
D03*
X1035250Y780500D02*
D03*
X1020250Y510500D02*
D03*
X1080250D02*
D03*
X1095250Y480500D02*
D03*
Y840500D02*
D03*
X1005250Y540500D02*
D03*
X990250Y510500D02*
D03*
X1350250Y870500D02*
D03*
X1125250Y840500D02*
D03*
X1020250Y450500D02*
D03*
X1050250Y750500D02*
D03*
Y450500D02*
D03*
X1335250Y780500D02*
D03*
X1065250Y480500D02*
D03*
X1020250Y750500D02*
D03*
X1080250Y810500D02*
D03*
X1170250D02*
D03*
X1185250Y840500D02*
D03*
X1200250Y810500D02*
D03*
X1110250Y450500D02*
D03*
X1305250Y780500D02*
D03*
X1170250Y870500D02*
D03*
X1140250Y510500D02*
D03*
X1290250Y690500D02*
D03*
X1155250Y840500D02*
D03*
X1035250Y480500D02*
D03*
X1050250Y510500D02*
D03*
X1125250Y480500D02*
D03*
X990250Y450500D02*
D03*
X1005250Y480500D02*
D03*
X1035250Y540500D02*
D03*
X1110250Y510500D02*
D03*
X990000Y1020000D02*
D03*
X780000Y960000D02*
D03*
X660000Y840000D02*
D03*
X840000Y960000D02*
D03*
X630000Y780000D02*
D03*
X840000Y1080000D02*
D03*
X900000Y960000D02*
D03*
X1020000D02*
D03*
X960000Y840000D02*
D03*
X720000D02*
D03*
X1020000D02*
D03*
X960000Y750000D02*
D03*
Y690000D02*
D03*
Y630000D02*
D03*
Y510000D02*
D03*
Y450000D02*
D03*
X930000Y750000D02*
D03*
Y690000D02*
D03*
Y630000D02*
D03*
X945000Y600000D02*
D03*
X930000Y510000D02*
D03*
X945000Y480000D02*
D03*
X930000Y450000D02*
D03*
X605568Y1037250D02*
D03*
Y1029500D02*
D03*
X618704Y1021750D02*
D03*
Y1029500D02*
D03*
Y1037250D02*
D03*
X612136Y1021750D02*
D03*
Y1029500D02*
D03*
Y1037250D02*
D03*
X605568Y1021750D02*
D03*
X599000D02*
D03*
Y1029500D02*
D03*
Y1037250D02*
D03*
X1223750Y849750D02*
D03*
X961500Y800000D02*
D03*
X882000Y650250D02*
D03*
X771636Y508875D02*
D03*
Y502000D02*
D03*
Y515750D02*
D03*
X764750Y501750D02*
D03*
Y515750D02*
D03*
Y508750D02*
D03*
X771636Y719000D02*
D03*
Y725875D02*
D03*
Y732750D02*
D03*
X764750Y718750D02*
D03*
Y725750D02*
D03*
Y732750D02*
D03*
X880000Y875500D02*
D03*
X897500Y792000D02*
D03*
X957750Y559500D02*
D03*
X900500Y559750D02*
D03*
X1285500Y742500D02*
D03*
X1131000Y558750D02*
D03*
X1122000Y590250D02*
D03*
X1110500Y598750D02*
D03*
X1098750Y597750D02*
D03*
X1088250Y652000D02*
D03*
Y665000D02*
D03*
X1088500Y679250D02*
D03*
X1086500Y613250D02*
D03*
X1091250Y703250D02*
D03*
X1131250Y774000D02*
D03*
X1109000Y800000D02*
D03*
X1329500Y610500D02*
D03*
X1238500Y555250D02*
D03*
X1198000Y521750D02*
D03*
X1044000Y633000D02*
D03*
X1043812Y657000D02*
D03*
Y680250D02*
D03*
Y703250D02*
D03*
X1173500Y1099750D02*
D03*
X1080000Y891000D02*
D03*
X947500Y871000D02*
D03*
X988200Y891000D02*
D03*
X1119000Y939000D02*
D03*
X1188750Y1000000D02*
D03*
X1063500Y959250D02*
D03*
X999250Y1071500D02*
D03*
X1043250Y1078500D02*
D03*
X850000Y697000D02*
D03*
X849000Y495500D02*
D03*
X861250Y636500D02*
D03*
X851750Y820750D02*
D03*
X914750Y1114250D02*
D03*
X920750D02*
D03*
X642250Y922750D02*
D03*
Y916750D02*
D03*
X645750Y1074250D02*
D03*
X638750Y1040000D02*
D03*
Y1046000D02*
D03*
X737500Y991750D02*
D03*
X807500Y667500D02*
D03*
X1276000Y654500D02*
D03*
X787500Y567500D02*
D03*
X770000Y773000D02*
D03*
Y680000D02*
D03*
X1276000Y629750D02*
D03*
X1259500Y557500D02*
D03*
X1218000Y593250D02*
D03*
X1139500Y590250D02*
D03*
X1096250Y581500D02*
D03*
X1023000Y692250D02*
D03*
X1090750Y727500D02*
D03*
X1109000Y782250D02*
D03*
X1344500Y575250D02*
D03*
X1339750Y839000D02*
D03*
X1277500Y767500D02*
D03*
X1326250Y638750D02*
D03*
X1161500Y491500D02*
D03*
X1188500D02*
D03*
X1212500D02*
D03*
X1238750D02*
D03*
X1263000D02*
D03*
X1288750D02*
D03*
X1314500D02*
D03*
X1340000D02*
D03*
X1365250D02*
D03*
X988000Y806750D02*
D03*
X944500Y782250D02*
D03*
X960750Y579750D02*
D03*
X1097250Y527250D02*
D03*
X992000Y580000D02*
D03*
X808000Y773000D02*
D03*
X817500Y567500D02*
D03*
M02*
