M48
;Layer_Color=9474304
;FILE_FORMAT=4:4
METRIC,LZ
;TYPE=PLATED
T01F00S00C0.3000
T02F00S00C0.8900
T03F00S00C1.1000
T04F00S00C1.3000
%
T01
X012125Y004915
X0123875
X01263
X0128875
X013145
X0134
X0136525
X013445Y0057525
X013295Y006105
X0132625Y0063875
X01276Y0064125
Y0062975
Y006545
Y00665
X0129025Y006905
X0132025
X012855Y007425
X012775Y007675
X0130525Y007805
X0133525
X01228Y0059325
X01218
X012385Y0055525
X012595Y005575
X01198Y0052175
X011885Y004915
X011615
X0114025Y005105
X0111025
X0109725Y0052725
X0108025Y005105
X0105025
X0102025
X0099025
X0096Y0051
X0093
X00945Y0048
X0096Y0045
X0093
X0099025Y004505
X0102025
X0105025
X0108025
X0111025
X0109525Y004805
X0106525
X0103525
X0100525
Y005405
X0103525
X00992Y0058
X0096075Y0057975
X0095775Y005595
X00945Y006
X0096Y0063
X0093
Y0069
X0096
Y0075
X0093
X009445Y0078225
X008975Y00792
X00808Y00773
X008075Y006675
X0085Y00697
X0086125Y006365
X00882Y0065025
X009005Y0055975
X008175Y005675
X00849Y004955
X0112525Y004805
X01131Y0055875
X011395Y0059025
X0114875
X0115825
X01122
X011105Y0059875
X0109875Y0059775
X0109625Y005815
X010865Y0061325
Y006285
X0108825Y00652
Y00665
X010885Y0067925
X0109125Y0070325
X0109075Y007275
X0105025Y007505
X0102025
X0103525Y007805
X01109Y0078225
X0113125Y00774
X01043812Y0070325
Y0068025
Y00657
X01044Y00633
X01023Y0069225
X0077Y0068
X00771636Y00719
Y00725875
Y0073275
X0076475
Y0072575
Y0071875
X0077Y00773
X0063Y0078
X007875Y005675
X00771636Y0051575
Y00508875
Y00502
X0076475Y0050175
Y0050875
Y0051575
X0072Y0084
X0066
X0064225Y0091675
Y0092275
X0063875Y0104
Y01046
X00618704Y0103725
X00612136
X00605568
X00599
Y010295
X00605568
X00612136
X00618704
Y0102175
X00612136
X00605568
X00599
X0064575Y0107425
X007375Y0099175
X0078Y0096
X0084
X009
X0088Y008755
X009475Y00871
X0096Y0084
X009615Y008
X00988Y0080675
X0102Y0084
X0109525Y008405
X0112525
X0115525
X0118525
X0117025Y008105
Y008705
X0108Y00891
X0108025Y008105
X01109Y008
X01119Y00939
X010635Y0095925
X0102Y0096
X0099Y0102
X0099925Y010715
X0104325Y010785
X011735Y0109975
X0118875Y01
X009882Y00891
X0085175Y0082075
X0084Y0108
X0091475Y0111425
X0092075
X0122375Y0084975
X0120025Y008105
X0133975Y00839
X0135025Y008705
T02
X0137025Y007373
Y007627
Y007881
Y008135
Y008389
T03
X01212625Y00462
X01238025
X01263425
X01288825
X01314225
X01339625
X01365025
X0137025Y0057495
Y0060035
Y0062575
Y0065115
X01187225Y00462
X01161825
X012231Y008795
X012485
X012739
X012993
T04
X0058Y0069525
Y0074525
Y0103
Y0108
M30
